<svg fill="none" height="26" viewBox="0 0 25 26" width="25" xmlns="http://www.w3.org/2000/svg"><g fill="#3b63da"><path clip-rule="evenodd" d="m19.3975 5.9884c0 2.37409-.5899 5.4705-1.4972 5.0004-.6873 2.2464-2.7773 3.8803-5.2488 3.8803-2.8448 0-5.18397-2.1645-5.46078-4.93633-.90053-1.57618-2.08205-4.73363.95507-7.19549.0542-.01791.08774-.16565.13741-.38404.18749-.82528.60424-2.6595 3.2307-2.3093311 2.026.2701111 7.8836 1.3157711 7.8836 5.9444911zm-2.6107 1.49633s-.3098.9067-.0193 1.91768c-.0115 2.26339-1.8499 4.09459-4.116 4.09459-2.2209 0-4.03099-1.7588-4.11317-3.95965.09954-.37724.09913-1.01626.09865-1.72594-.00082-1.28079-.00178-2.7916.58455-3.40826 4.10837 2.73617 7.56527 3.08158 7.56527 3.08158z" fill-rule="evenodd"/><path d="m5.10581 21.2103c0-.7425.39322-1.3932.98279-1.7551-.02182-.0825-.04288-.1686-.06312-.2571-.09446-.4127-.18021-.9147-.24312-1.4187-.05824-.4669-.09865-.9496-.10647-1.376-2.89571 1.1366-5.372179 3.1176-5.372179 5.1978v3.7252h24.696489v-3.7252c0-1.992-2.271-3.8931-5.0066-5.0489l.0006.0189c.0117.4186-.0118.8985-.0566 1.3608-.0413.4278-.1023.8548-.1756 1.2202h.4361c.2599 0 .4974.1468.6136.3793l.686 1.372c.0477.0952.0725.2003.0725.3068v1.372c0 .3789-.3072.686-.6861.686h-1.372v-1.372h.686v-.524l-.4239-.848h-1.8962l-.4239.848v.524h.686v1.372h-1.372c-.3789 0-.6861-.3071-.6861-.686v-1.372c0-.1065.0248-.2116.0725-.3068l.686-1.372c.1162-.2325.3537-.3793.6136-.3793h.9022c.0149-.0589.0301-.1243.0452-.1959.0686-.3234.1295-.7332.1706-1.1564.0409-.4238.0603-.8443.0506-1.1902-.0049-.1733-.0167-.3172-.0338-.428-.015-.0972-.0301-.1421-.0333-.1517-.0006-.0019-.0003-.0015-.0003-.0015l.0025-.0006c-.3666-.1138-.7358-.2133-1.1037-.2971-.345-.0785-.7015.3963-.858.6936h-2.7881c-.6107.0002-.9214.0001-1.2268 0h-.0107c-.312 0-.6225-.0001-1.2467 0h-2.78792c-.01914-.0363-.03869-.0753-.05893-.1156-.14516-.2895-.32434-.6469-.62708-.578-.26405.0602-.52871.1284-.79262.2041-.00769.1016-.01146.2228-.01057.3618.0024.3793.03869.8441.09721 1.3128.05838.4679.13679.9234.21898 1.2825.02387.1042.04733.1971.06983.2777 1.00961.1317 1.7892.9951 1.7892 2.0406 0 1.1366-.92139 2.058-2.05805 2.058-1.13665 0-2.05804-.9214-2.05804-2.058z"/><path d="m7.84957 21.2103c0 .3939-.31667.6961-.68602.6961s-.68601-.3022-.68601-.6961.31666-.6961.68601-.6961.68602.3022.68602.6961z"/></g></svg>