<svg fill="none" height="26" viewBox="0 0 17 26" width="17" xmlns="http://www.w3.org/2000/svg"><g fill="#3b63da"><path d="m5.7959 3.54381h1.69631c0-.59364.45238-1.07276 1.00931-1.07276.55415 0 1.00649.47912 1.00649 1.07276h1.69639c-.0001-1.58803-1.21295-2.880724-2.70288-2.880724-1.49275 0-2.70562 1.292694-2.70562 2.880724z"/><path d="m0 6.30411v17.29659c0 1.1903.907549 2.1576 2.02431 2.1576h12.95149c1.1167 0 2.0243-.9673 2.0243-2.1576v-17.29659c0-1.19032-.9076-2.15763-2.0243-2.15763h-12.95149c-1.116761 0-2.02431.96731-2.02431 2.15763zm15.3035-.34946v17.99515h-13.60679v-17.99515z"/><path d="m14.7381 16.9781c-.7234.3274-2.2994.9392-3.9781.9392-1.16032 0-2.36866-.2924-3.37709-1.1735-.43511-.3804-.92105-.6433-1.44409-.7816-1.63641-.4323-3.23022.4427-3.67661.7185v6.6667h12.47589zm-9.31117 5.6298h-2.14623v-.6026h2.14623zm0-2.1011h-2.14623v-.6027h2.14623zm1.07013-2.1011h-3.21636v-.6027h3.21636z"/><path d="m6.07496 15.3772c.6052.16 1.16594.463 1.66649.9004 2.37505 2.0756 6.18745.4281 6.99665.0409v-9.76088h-12.47589v9.43608c.71888-.3927 2.22461-1.0362 3.81275-.6165zm-2.79423-8.0799h2.14623v.60265h-2.14623zm0 2.10113h2.14623v.60267h-2.14623zm0 2.10107h3.75141v.6027h-3.75141zm0 2.1011h2.14623v.6027h-2.14623z"/></g></svg>