<svg width="24" height="25" viewBox="0 0 24 25" fill="none" xmlns="http://www.w3.org/2000/svg">
<path d="M23.3503 9.61186L13.3503 0.524364C12.9816 0.187063 12.5 0 12.0003 0C11.5006 0 11.019 0.187063 10.6503 0.524364L0.650267 9.61186C0.445522 9.79918 0.281998 10.027 0.170094 10.281C0.05819 10.5349 0.000354891 10.8094 0.000266709 11.0869V22.5994C-0.0078639 23.1036 0.170149 23.5931 0.500267 23.9744C0.687627 24.1874 0.91843 24.3579 1.17716 24.4743C1.43589 24.5908 1.71655 24.6504 2.00027 24.6494H8.00027C8.26548 24.6494 8.51984 24.544 8.70737 24.3565C8.89491 24.1689 9.00027 23.9146 9.00027 23.6494V17.6494C9.00027 17.3841 9.10562 17.1298 9.29316 16.9423C9.4807 16.7547 9.73505 16.6494 10.0003 16.6494H14.0003C14.2655 16.6494 14.5198 16.7547 14.7074 16.9423C14.8949 17.1298 15.0003 17.3841 15.0003 17.6494V23.6494C15.0003 23.9146 15.1056 24.1689 15.2932 24.3565C15.4807 24.544 15.7351 24.6494 16.0003 24.6494H22.0003C22.332 24.6523 22.659 24.5705 22.9503 24.4119C23.2673 24.2392 23.532 23.9845 23.7167 23.6745C23.9014 23.3644 23.9994 23.0103 24.0003 22.6494V11.0869C24.0002 10.8094 23.9423 10.5349 23.8304 10.281C23.7185 10.027 23.555 9.79918 23.3503 9.61186Z" fill="#3B63DA"/>
</svg>
