<svg fill="none" height="28" viewBox="0 0 48 28" width="48" xmlns="http://www.w3.org/2000/svg"><path d="m16.7114 24.5721c.0011-.7109-.1863-1.3992-.5289-1.9432s-.8181-.9085-1.3427-1.029c-.5246-.1204-1.0639.0109-1.5229.3709-.459.3599-.8076.9251-.9844 1.5956h-1.268c-.8987 0-7.93061-8.7652-8.56611-9.6139s-.99236-1.9997-.99236-3.2c0-1.20031.35686-2.35134.99236-3.20007.6355-.84872 1.49705-1.3255 2.39578-1.3255h.76797l1.06059 2.08968c.35187.59005.79886 1.0662 1.30795 1.39292.50909.32667 1.06663.49547 1.63145.49377h3.82337c.1997 0 .3911-.106.5323-.2946.1413-.18861.2206-.44439.2206-.71112v-2.01135c0-.26673-.0793-.52252-.2206-.71112-.1412-.18861-.3326-.29456-.5323-.29456-.1998 0-.3912.10595-.5324.29456-.1413.1886-.2206.44439-.2206.71112v1.00567h-3.07037c-.3388.00104-.67324-.10017-.97863-.29609s-.57356-.48144-.78471-.83529l-.91151-1.83926 1.14258-2.07752c.21104-.35409.47917-.63984.78457-.83594.3054-.19611.6399-.29744.97876-.29645h3.07041v1.00568c0 .26673.0793.52251.2205.71112.1412.1886.3327.29455.5324.29455s.3912-.10595.5324-.29455c.1412-.18861.2205-.44439.2205-.71112v-2.01135c0-.266734-.0793-.522519-.2205-.711125s-.3327-.294555-.5324-.294555h-3.82331c-.56482-.0018341-1.12238.166906-1.63148.493626s-.95608.802904-1.30792 1.393024l-1.29165 2.32893h-.76797c-1.29817 0-2.54262.68867-3.46057 1.91461-.917943 1.22594-1.43341117 2.88854-1.43341117 4.62231 0 1.7337.51546817 3.3963 1.43341117 4.6223.91795 1.2259 8.33278 10.203 9.6309 10.203h1.268c.1768.6704.5254 1.2357.9844 1.5956s.9983.4913 1.5229.3709c.5246-.1205 1.0001-.485 1.3427-1.029s.53-1.2323.5289-1.9432zm-3.0116 0c0-.1989.0441-.3933.1269-.5587.0827-.1654.2003-.2943.3379-.3704.1376-.0762.2889-.0961.435-.0573.146.0388.2802.1346.3855.2753.1053.1406.177.3198.206.5149.0291.1951.0142.3973-.0428.581-.057.1838-.1535.3409-.2773.4514-.1239.1105-.2694.1695-.4183.1695-.1997-.0003-.391-.1063-.5322-.2949-.1412-.1885-.2205-.4442-.2207-.7108z" fill="#3b63da"/><path d="m28.9281 17.0095c-3.4827 4.5787-7.8015 6.0121-11.6075 8.9905 3.2623-3.7231 6.6622-9.8141 6.6622-9.8141.4504-.5109 1.9546-3.6487 1.4626-6.039-.4847-2.35522-1.7134-3.58399-3.482-4.15694-.8813-.28549-2.3214 0-2.3214 0s-1.4151.63231-2.3213 1.03922c-.9066.40704-2.3207 1.04504-2.3207 1.04504.7888-2.71128 4.9166-7.145774 8.9828-7.07334 8.3954.14955 10.4589 8.75996 4.9453 16.00862z" fill="#d6e0ff" stroke="#d6e0ff" stroke-width=".3"/><g fill="#3b63da"><path d="m24.3 12.02v6.98h-1.4v-4.54l-1.87 4.54h-1.06l-1.88-4.54v4.54h-1.4v-6.98h1.59l2.22 5.19 2.22-5.19zm2.7841 0v6.98h-1.4v-6.98zm6.1332 0v1.13h-1.86v5.85h-1.4v-5.85h-1.86v-1.13zm4.6215 6.98-1.54-2.72h-.66v2.72h-1.4v-6.98h2.62c.54 0 1 .0967 1.38.29.38.1867.6634.4433.85.77.1934.32.29.68.29 1.08 0 .46-.1333.8767-.4 1.25-.2666.3667-.6633.62-1.19.76l1.67 2.83zm-2.2-3.77h1.17c.38 0 .6634-.09.85-.27.1867-.1867.28-.4433.28-.77 0-.32-.0933-.5667-.28-.74-.1866-.18-.47-.27-.85-.27h-1.17zm9.2863 2.44h-2.78l-.46 1.33h-1.47l2.51-6.99h1.63l2.51 6.99h-1.48zm-.38-1.12-1.01-2.92-1.01 2.92z"/><path d="m24.3 4.02v6.98h-1.4v-4.54l-1.87 4.54h-1.06l-1.88-4.54v4.54h-1.4v-6.98h1.59l2.22 5.19 2.22-5.19zm2.7841 1.13v1.75h2.35v1.11h-2.35v1.85h2.65v1.14h-4.05v-6.99h4.05v1.14zm6.3623-1.13c.7333 0 1.3767.14333 1.93.43.56.28667.99.69667 1.29 1.23.3067.52667.46 1.14.46 1.84s-.1533 1.31333-.46 1.84c-.3.52-.73.9233-1.29 1.21-.5533.2867-1.1967.43-1.93.43h-2.44v-6.98zm-.05 5.79c.7333 0 1.3-.2 1.7-.6s.6-.96333.6-1.69-.2-1.29333-.6-1.7c-.4-.41333-.9667-.62-1.7-.62h-.99v4.61z"/></g></svg>