<svg width="31" height="36" viewBox="0 0 31 36" fill="none" xmlns="http://www.w3.org/2000/svg">
<path d="M16.4385 8.94671C17.2462 5.9494 15.5307 2.88236 12.6067 2.09628C9.68281 1.31021 6.65772 3.10278 5.85 6.10009L1.4625 22.3814C0.654789 25.3788 2.37031 28.4458 5.29424 29.2319C8.21816 30.0179 11.2433 28.2254 12.051 25.2281L16.4385 8.94671Z" fill="#E05574"/>
<path d="M1.46293 22.3815C1.07505 23.8209 1.26084 25.3512 1.97943 26.6359C2.69802 27.9207 3.89054 28.8545 5.29466 29.2319C6.69878 29.6094 8.19947 29.3997 9.46661 28.6488C10.7337 27.898 11.6635 26.6675 12.0514 25.2281L14.2451 17.0875L3.65668 14.2408L1.46293 22.3815Z" fill="#A1D9FF"/>
<path d="M14.3666 16.6351L3.77811 13.7885L3.53436 14.693L14.1228 17.5396L14.3666 16.6351Z" fill="#B0B5FF"/>
<path d="M8.2636 22.6957C6.58271 25.3064 7.2847 28.749 9.83154 30.3848C12.3784 32.0207 15.8056 31.2304 17.4865 28.6196L26.617 14.438C28.2979 11.8272 27.5959 8.38469 25.0491 6.74885C22.5023 5.113 19.075 5.90333 17.3941 8.51409L8.2636 22.6957Z" fill="#E05574"/>
<path d="M26.6167 14.4378C27.4238 13.184 27.7121 11.6696 27.4181 10.2276C27.124 8.7856 26.2717 7.53417 25.0487 6.74861C23.8257 5.96305 22.3321 5.70771 20.8965 6.03875C19.4609 6.3698 18.2009 7.26012 17.3937 8.51385L12.8285 15.6047L22.0514 21.5286L26.6167 14.4378Z" fill="#A1D9FF"/>
<path d="M12.5753 15.9988L21.7982 21.9227L22.3054 21.1349L13.0825 15.2109L12.5753 15.9988Z" fill="#B0B5FF"/>
</svg>
