<svg width="33" height="30" viewBox="0 0 33 30" fill="none" xmlns="http://www.w3.org/2000/svg">
<path d="M19.1914 13.5206L18.2708 6.86302C17.8346 4.17102 15.3324 2.27674 12.6945 2.6415C10.0566 3.00626 8.16231 5.50847 8.47294 8.21785L9.39353 14.8754L19.1914 13.5206ZM12.9235 7.53842C12.993 8.04088 12.7398 8.52395 12.2373 8.59343C11.7349 8.6629 11.2518 8.40966 11.1823 7.90721L11.165 7.7816C10.9913 6.52546 11.8572 5.38159 13.0592 5.27939C13.5617 5.20991 13.9906 5.53464 14.0601 6.0371C14.1296 6.53955 13.8049 6.9685 13.3024 7.03798C13.0512 7.07272 12.8347 7.35869 12.9235 7.53842ZM20.3552 21.9367L19.4346 15.2791L9.6367 16.634L10.5573 23.2915C10.922 25.9294 13.4243 27.8237 16.1336 27.513C18.843 27.2024 20.6658 24.646 20.3552 21.9367Z" fill="#3B63DA"/>
<path d="M32.3955 20.0537C32.3955 24.472 28.8138 28.0537 24.3955 28.0537C19.9772 28.0537 16.3955 24.472 16.3955 20.0537C16.3955 15.6354 19.9772 12.0537 24.3955 12.0537C28.8138 12.0537 32.3955 15.6354 32.3955 20.0537Z" fill="#3B63DA" stroke="white"/>
<path d="M28.7719 15.5537L18.8955 24.2225C19.0624 24.4741 19.3238 24.6776 19.5231 24.9044C19.7206 25.1292 20.0567 25.3577 20.2829 25.5537L29.8955 16.9498C29.7316 16.7029 29.5952 16.4586 29.4 16.2355C29.1987 16.0067 29.0037 15.7517 28.7719 15.5537Z" fill="white"/>
</svg>
