<svg width="27" height="24" viewBox="0 0 27 24" fill="none" xmlns="http://www.w3.org/2000/svg">
<rect x="8" y="0.663086" width="19" height="20" rx="3" fill="#E8E8E8"/>
<path d="M8.50026 3.72569C8.50026 3.17865 8.23173 2.65402 7.75375 2.26721C7.27577 1.8804 6.62749 1.66309 5.95153 1.66309C5.27556 1.66309 4.62728 1.8804 4.1493 2.26721C3.67132 2.65402 3.4028 3.17865 3.4028 3.72569C3.4028 4.27272 3.67132 4.79735 4.1493 5.18417C4.62728 5.57098 5.27556 5.78829 5.95153 5.78829C6.62749 5.78829 7.27577 5.57098 7.75375 5.18417C8.23173 4.79735 8.50026 4.27272 8.50026 3.72569ZM10.2791 10.2272C10.3322 10.2444 10.3799 10.2616 10.433 10.2787L10.8578 10.4291C11.7286 10.7428 12.3977 11.3401 12.7003 12.0706L12.8384 12.4058C13.1358 13.1277 14.0968 13.5144 14.9889 13.2738C15.8809 13.0332 16.3588 12.2554 16.0615 11.5335L15.9234 11.1983C15.3181 9.73301 13.98 8.53842 12.2384 7.91105L11.8136 7.76065C10.7092 7.36532 9.51444 7.15906 8.30379 7.15906C5.9356 7.15906 3.80104 8.31068 2.89305 10.0768L2.07534 11.6624L0.939028 12.1222C0.100071 12.4617 -0.23976 13.2867 0.179718 13.9656C0.599196 14.6446 1.61869 14.9196 2.45765 14.5801L3.88069 14.0086C4.4276 13.7852 4.8577 13.4156 5.09133 12.9558L5.60108 11.9675L6.62588 14.7821L3.9975 17.1025C3.71077 17.356 3.509 17.6611 3.4028 17.9963L2.18153 21.9539C1.95321 22.6887 2.50543 23.4364 3.41873 23.6212C4.33202 23.806 5.25063 23.3591 5.47895 22.62L6.64712 18.8342L10.4012 15.5212C11.187 14.8294 11.4791 13.8625 11.1817 12.9558L10.2844 10.2272H10.2791ZM13.3482 18.7655L12.0207 16.0841C11.9092 16.213 11.7817 16.3333 11.649 16.4537L9.48789 18.3616L10.2578 19.9171C10.3853 20.1749 10.5764 20.4113 10.8207 20.6089L14.0968 23.2602C14.7606 23.7974 15.8385 23.7974 16.5022 23.2602C17.1659 22.7231 17.1659 21.8508 16.5022 21.3137L13.3482 18.7655Z" fill="#3B63DA"/>
<line x1="11" y1="3.16309" x2="16" y2="3.16309" stroke="#3B63DA"/>
<line x1="12" y1="6.16309" x2="24" y2="6.16309" stroke="#3B63DA"/>
<line x1="17" y1="8.16309" x2="24" y2="8.16309" stroke="#3B63DA"/>
<line x1="17" y1="11.1631" x2="24" y2="11.1631" stroke="#3B63DA"/>
<line x1="18" y1="13.1631" x2="24" y2="13.1631" stroke="#3B63DA"/>
<line x1="14" y1="15.1631" x2="24" y2="15.1631" stroke="#3B63DA"/>
</svg>
