<svg width="48" height="49" viewBox="0 0 48 49" fill="none" xmlns="http://www.w3.org/2000/svg">
<path d="M37.0631 36.9544C36.2099 36.5532 35.5857 35.7011 35.669 35.0512C35.7522 34.4013 36.5114 34.1997 37.3646 34.6009C38.2179 35.0021 38.8421 35.8542 38.7588 36.5041C38.6756 37.154 37.9164 37.3556 37.0631 36.9544Z" fill="#3D42EC"/>
<path d="M47.4738 31.2814H27V37.074C27 37.3812 27.054 37.6854 27.159 37.9693C27.264 38.2531 27.4179 38.511 27.612 38.7282C27.806 38.9455 28.0363 39.1178 28.2898 39.2353C28.5433 39.3528 28.815 39.4133 29.0893 39.4132H45.3849C45.6592 39.4132 45.9308 39.3527 46.1843 39.2352C46.4377 39.1176 46.668 38.9453 46.862 38.7281C47.056 38.5109 47.2098 38.253 47.3148 37.9692C47.4198 37.6853 47.4738 37.3812 47.4738 37.074V31.2814Z" fill="#6FABF6"/>
<path d="M37.2369 36.7028C36.4609 36.7028 35.8319 35.9948 35.8319 35.1214C35.8319 34.248 36.4609 33.54 37.2369 33.54C38.0129 33.54 38.642 34.248 38.642 35.1214C38.642 35.9948 38.0129 36.7028 37.2369 36.7028Z" fill="#3D42EC"/>
<path d="M40.047 4.6272H36.4342M34.8283 4.6272H34.4268" stroke="#3D42EC" stroke-linecap="round" stroke-linejoin="round"/>
<path d="M29.7154 0.811646H44.758C45.9117 0.811646 46.8469 1.85898 46.8469 3.15093V36.3724C46.8469 37.6643 45.9117 38.7117 44.758 38.7117H29.7154C28.5617 38.7117 27.6265 37.6643 27.6265 36.3724V3.15093C27.6265 1.85898 28.5617 0.811646 29.7154 0.811646Z" stroke="#3D42EC"/>
<path d="M5.2861 48.1796V38.8047C5.2861 37.5975 5.61908 36.4137 6.24842 35.3836C6.87775 34.3534 7.77905 33.5168 8.85315 32.9658L15.4175 29.5982C16.3444 29.1227 17.3711 28.8747 18.4129 28.8747H23.5871C24.6289 28.8747 25.6557 29.1227 26.5826 29.5982L33.1469 32.9658C34.2209 33.5168 35.1222 34.3534 35.7515 35.3836C36.3809 36.4138 36.7138 37.5976 36.7138 38.8047V48.1796C36.7138 48.3972 36.6274 48.6058 36.4736 48.7596C36.3197 48.9135 36.1111 48.9999 35.8935 48.9999H6.10641C5.88885 48.9999 5.6802 48.9135 5.52637 48.7596C5.37253 48.6058 5.2861 48.3972 5.2861 48.1796Z" fill="#F9F7F8"/>
<path d="M15.4174 29.5982C16.3444 29.1227 17.3711 28.8747 18.4129 28.8747H23.5871C24.6289 28.8747 25.6557 29.1227 26.5826 29.5982L21 48.5474L15.4174 29.5982Z" fill="#A4AED3"/>
<path d="M16.8278 25.0582H25.1722V31.6982H16.8278V25.0582Z" fill="#F9BEAC"/>
<path d="M16.8278 27.3653C17.1867 27.7724 17.5901 28.1379 18.0306 28.4549C18.9195 29.094 19.9866 29.4378 21.0814 29.4378H22.1345C23.2238 29.4377 24.2859 29.0972 25.1722 28.4639V25.0582H16.8279L16.8278 27.3653Z" fill="#E58A7B"/>
<path d="M10.5099 48.9999C10.4337 48.9999 10.3607 48.9697 10.3068 48.9158C10.253 48.862 10.2227 48.789 10.2227 48.7128V42.7103C10.2227 42.6341 10.253 42.5611 10.3068 42.5072C10.3607 42.4534 10.4337 42.4232 10.5099 42.4232C10.586 42.4232 10.659 42.4534 10.7129 42.5072C10.7667 42.5611 10.797 42.6341 10.797 42.7103V48.7129C10.797 48.789 10.7667 48.8621 10.7129 48.9159C10.659 48.9698 10.586 49 10.5099 49V48.9999ZM31.4902 48.9999C31.414 48.9999 31.341 48.9697 31.2872 48.9158C31.2333 48.862 31.2031 48.789 31.2031 48.7128V42.7103C31.2031 42.6341 31.2333 42.5611 31.2872 42.5072C31.341 42.4534 31.414 42.4232 31.4902 42.4232C31.5663 42.4232 31.6393 42.4534 31.6932 42.5072C31.747 42.5611 31.7773 42.6341 31.7773 42.7103V48.7129C31.7773 48.789 31.747 48.8621 31.6932 48.9159C31.6393 48.9698 31.5663 49 31.4902 49V48.9999Z" fill="#EAEAEA"/>
<path d="M19.0494 45.2675L19.8516 32.9589H22.2305L22.9506 45.2675L21 48.7128L19.0494 45.2675Z" fill="#F96263"/>
<path d="M23.0882 33.5371L21.5281 35.0971C21.4588 35.1665 21.3764 35.2215 21.2858 35.259C21.1952 35.2966 21.0981 35.3159 21 35.3159C20.9019 35.3159 20.8048 35.2966 20.7142 35.259C20.6236 35.2215 20.5412 35.1665 20.4719 35.0971L18.9118 33.5371L21 31.6982L23.0882 33.5371Z" fill="#D34342"/>
<path d="M25.1722 28.8747L21 31.6982L22.9432 33.7847C23.0713 33.9222 23.2291 34.0285 23.4047 34.0955C23.5802 34.1626 23.7687 34.1885 23.9558 34.1714C24.1429 34.1543 24.3236 34.0945 24.4841 33.9967C24.6445 33.8989 24.7804 33.7657 24.8814 33.6072L26.0771 29.9281L25.1722 28.8747ZM16.8278 28.8747L21 31.6982L19.0568 33.7847C18.9287 33.9222 18.7709 34.0285 18.5953 34.0955C18.4198 34.1626 18.2313 34.1885 18.0442 34.1714C17.857 34.1543 17.6763 34.0945 17.5159 33.9967C17.3555 33.8989 17.2196 33.7657 17.1186 33.6072L15.9229 29.9281L16.8278 28.8747Z" fill="#596381"/>
<path d="M27.6267 21.1024V21.2378C27.6267 22.3872 27.3532 23.5202 26.8289 24.543C26.3045 25.5659 25.5443 26.4494 24.611 27.1204C23.7222 27.7595 22.655 28.1033 21.5603 28.1033H20.5072C19.4124 28.1033 18.3453 27.7595 17.4564 27.1204C16.5232 26.4494 15.7629 25.5659 15.2386 24.543C14.7142 23.5202 14.4407 22.3872 14.4407 21.2378V19.6272L15.0149 18.8434L14.4407 17.2381L17.6555 13.3882L27.6267 15.6438L27.0525 17.5409L27.6267 19.6272V21.1024Z" fill="#F9BEAC"/>
<path d="M21.0338 25.0981C20.5878 25.0975 20.1475 24.9984 19.7443 24.808C19.6763 24.7748 19.6242 24.7162 19.5992 24.6449C19.5742 24.5736 19.5784 24.4953 19.6107 24.427C19.6431 24.3587 19.7011 24.3059 19.7721 24.2801C19.8432 24.2543 19.9215 24.2575 19.9902 24.2891C20.3163 24.4437 20.6728 24.524 21.0337 24.524C21.3946 24.524 21.7511 24.4437 22.0772 24.2891C22.1114 24.2723 22.1485 24.2624 22.1866 24.26C22.2246 24.2577 22.2627 24.2629 22.2987 24.2754C22.3346 24.288 22.3677 24.3075 22.3961 24.333C22.4244 24.3584 22.4474 24.3892 22.4637 24.4237C22.48 24.4581 22.4893 24.4954 22.4911 24.5334C22.4928 24.5715 22.487 24.6095 22.4739 24.6453C22.4608 24.681 22.4407 24.7138 22.4148 24.7418C22.3889 24.7697 22.3577 24.7922 22.3231 24.808C21.9227 24.997 21.4857 25.0961 21.0429 25.0981H21.0338ZM22.0758 21.3873V21.8954C22.0758 22.1717 21.966 22.4366 21.7707 22.632C21.5753 22.8274 21.3103 22.9371 21.034 22.9372H21.0335C20.7571 22.9372 20.4922 22.8274 20.2968 22.632C20.1014 22.4367 19.9916 22.1717 19.9916 21.8954V21.3873C19.9916 21.3438 20.0089 21.302 20.0396 21.2713C20.0704 21.2405 20.1121 21.2232 20.1556 21.2232H21.9118C21.9553 21.2232 21.997 21.2405 22.0278 21.2713C22.0585 21.302 22.0758 21.3438 22.0758 21.3873Z" fill="#E58A7B"/>
<path d="M22.6242 48.9999L29.0034 36.2568C29.042 36.1798 29.0553 36.0926 29.0416 36.0075C29.0278 35.9225 28.9877 35.844 28.9268 35.783L27.6846 34.5408C27.6376 34.4938 27.6027 34.4361 27.5829 34.3726C27.5632 34.3091 27.5592 34.2418 27.5712 34.1764C27.5833 34.111 27.6111 34.0496 27.6522 33.9973C27.6933 33.945 27.7464 33.9035 27.8071 33.8764L29.2726 33.2209C29.3272 33.1965 29.3757 33.1604 29.4149 33.1153C29.4541 33.0701 29.4829 33.017 29.4994 32.9595C29.5159 32.9021 29.5196 32.8417 29.5103 32.7826C29.501 32.7236 29.4789 32.6673 29.4455 32.6177L27.8558 30.2514L25.1722 28.8747L20.9396 49L22.6242 48.9999Z" fill="#EAEAEA"/>
<path d="M19.3514 48.9999L12.9976 36.2572C12.9587 36.1801 12.9452 36.0927 12.9589 36.0075C12.9725 35.9223 13.0128 35.8435 13.0738 35.7825L14.3154 34.5408C14.3625 34.4938 14.3973 34.4361 14.4171 34.3726C14.4368 34.3091 14.4408 34.2418 14.4288 34.1764C14.4167 34.111 14.3889 34.0496 14.3479 33.9973C14.3068 33.945 14.2536 33.9035 14.1929 33.8764L12.7646 33.2374C12.7075 33.2119 12.6571 33.1737 12.6171 33.1257C12.577 33.0777 12.5485 33.0213 12.5337 32.9606C12.5188 32.8999 12.518 32.8366 12.5314 32.7756C12.5447 32.7145 12.5718 32.6573 12.6106 32.6083L14.707 29.9627L16.8278 28.8747L21.0604 49L19.3514 48.9999Z" fill="#EAEAEA"/>
<path d="M15.751 11.2521C15.4035 11.2521 15.0702 11.3901 14.8245 11.6358C14.5788 11.8816 14.4407 12.2149 14.4407 12.5624V19.6272H15.1047C15.1683 19.6272 15.2313 19.6147 15.2901 19.5903C15.3488 19.566 15.4023 19.5303 15.4472 19.4853C15.4922 19.4403 15.5279 19.3869 15.5523 19.3281C15.5766 19.2694 15.5891 19.2064 15.5891 19.1427V17.1219C15.5892 16.9647 15.6253 16.8096 15.6947 16.6686C15.7642 16.5276 15.8651 16.4044 15.9896 16.3086C16.4405 15.9613 16.8178 15.5278 17.0996 15.0334C17.3814 14.5389 17.5621 13.9934 17.6311 13.4284L17.8968 11.2521H15.751Z" fill="#38424F"/>
<path d="M29.9094 31.3163C30.7309 32.2415 31.7809 33.7871 32.1192 35.8966C32.2568 36.7609 32.2641 37.6409 32.1408 38.5074C32.1356 38.5447 32.1377 38.5828 32.1472 38.6193C32.1566 38.6558 32.1731 38.6901 32.1958 38.7202C32.2185 38.7503 32.2469 38.7757 32.2794 38.7948C32.3119 38.8139 32.3478 38.8265 32.3851 38.8318C32.4225 38.837 32.4605 38.8349 32.497 38.8254C32.5335 38.816 32.5678 38.7995 32.5979 38.7768C32.628 38.7541 32.6534 38.7257 32.6725 38.6932C32.6917 38.6607 32.7042 38.6248 32.7095 38.5875C32.8407 37.6643 32.8329 36.7266 32.6862 35.8057C32.4572 34.4093 31.9186 33.0818 31.1098 31.9207L29.8965 31.2983C29.9011 31.3042 29.9045 31.3106 29.9095 31.3163H29.9094Z" fill="#596381"/>
<path d="M32.5214 41.6288C33.5308 41.6288 34.3492 40.8105 34.3492 39.801C34.3492 38.7915 33.5308 37.9732 32.5214 37.9732C31.5119 37.9732 30.6935 38.7915 30.6935 39.801C30.6935 40.8105 31.5119 41.6288 32.5214 41.6288Z" fill="#343C4A"/>
<path d="M9.80602 37.5414C9.81488 37.5414 9.82379 37.541 9.83276 37.5403C9.87031 37.5368 9.90681 37.526 9.94017 37.5084C9.97353 37.4908 10.0031 37.4668 10.0272 37.4378C10.0513 37.4088 10.0694 37.3753 10.0806 37.3393C10.0918 37.3033 10.0957 37.2654 10.0922 37.2279C9.90442 35.2203 10.4366 33.2113 11.5936 31.5599L10.6025 32.0684C9.72833 33.6584 9.35139 35.4742 9.52047 37.2808C9.52707 37.352 9.56 37.4182 9.61281 37.4664C9.66562 37.5146 9.73452 37.5413 9.80602 37.5414Z" fill="#596381"/>
<path d="M8.81854 42.4902C8.75161 42.4902 8.68678 42.4669 8.63525 42.4241C8.58372 42.3814 8.54874 42.3221 8.53635 42.2563L8.03998 39.6213C7.98362 39.3255 7.98615 39.0216 8.04742 38.7268C8.10869 38.432 8.22749 38.1522 8.39703 37.9034C8.56657 37.6546 8.78352 37.4417 9.03545 37.2768C9.28739 37.112 9.56936 36.9984 9.86523 36.9427C10.1611 36.887 10.4651 36.8901 10.7597 36.952C11.0544 37.0139 11.3339 37.1333 11.5823 37.3034C11.8308 37.4734 12.0433 37.6908 12.2076 37.9431C12.3719 38.1954 12.4849 38.4776 12.54 38.7736L13.0364 41.4085C13.0505 41.4833 13.0343 41.5607 12.9913 41.6236C12.9484 41.6864 12.8822 41.7297 12.8074 41.7437L11.9233 41.9104C11.8862 41.9173 11.8481 41.9169 11.8112 41.9092C11.7743 41.9015 11.7393 41.8866 11.7082 41.8653C11.677 41.844 11.6504 41.8168 11.6298 41.7853C11.6091 41.7537 11.5949 41.7184 11.588 41.6814C11.581 41.6443 11.5814 41.6062 11.5891 41.5693C11.5968 41.5324 11.6117 41.4974 11.633 41.4663C11.6543 41.4352 11.6815 41.4085 11.713 41.3879C11.7446 41.3673 11.7799 41.353 11.8169 41.3461L12.4191 41.2327L11.9757 38.8799C11.8914 38.4328 11.6331 38.0375 11.2574 37.7809C10.8817 37.5243 10.4194 37.4275 9.97235 37.5117C9.52526 37.5959 9.12995 37.8543 8.87337 38.23C8.61679 38.6057 8.51996 39.068 8.60419 39.515L9.04749 41.8679L9.6496 41.7544C9.72443 41.7403 9.80179 41.7565 9.86467 41.7995C9.92756 41.8424 9.9708 41.9086 9.9849 41.9834C9.999 42.0582 9.98279 42.1356 9.93985 42.1985C9.8969 42.2614 9.83074 42.3046 9.75591 42.3187L8.87161 42.4852C8.85411 42.4885 8.83635 42.4902 8.81854 42.4902ZM27.6267 11.055C27.6268 10.5602 27.5293 10.0702 27.34 9.61305C27.1506 9.15589 26.8731 8.74049 26.5232 8.39059C26.1733 8.04069 25.7579 7.76313 25.3008 7.57376C24.8436 7.38439 24.3536 7.28693 23.8588 7.28693H14.1816C14.1051 7.28692 14.0297 7.30493 13.9615 7.33951C13.8933 7.37408 13.8342 7.42424 13.789 7.48592C13.7438 7.5476 13.7137 7.61906 13.7013 7.69451C13.6889 7.76997 13.6944 7.84729 13.7174 7.92021L14.4433 10.2186C14.8885 11.6287 15.7717 12.8603 16.9644 13.7345C18.1572 14.6087 19.5975 15.08 21.0763 15.0801H23.7659C24.5914 15.0801 25.3955 15.3431 26.0615 15.8309C26.1909 15.9263 26.2959 16.0509 26.3682 16.1945C26.4404 16.3381 26.4779 16.4968 26.4774 16.6575V19.1428C26.4774 19.2065 26.4899 19.2695 26.5143 19.3282C26.5386 19.387 26.5743 19.4404 26.6193 19.4854C26.6643 19.5304 26.7177 19.5661 26.7765 19.5904C26.8353 19.6148 26.8983 19.6273 26.962 19.6273H27.6259V17.5399L27.6267 17.541V11.055Z" fill="#343C4A"/>
<path d="M27.6267 20.7457V17.3784H28.0968C28.481 17.3784 28.8495 17.531 29.1211 17.8027C29.3928 18.0743 29.5454 18.4428 29.5454 18.827C29.5454 19.3359 29.3433 19.8239 28.9835 20.1838C28.6236 20.5436 28.1356 20.7457 27.6267 20.7457ZM14.4408 20.7457C14.1888 20.7457 13.9393 20.6961 13.7065 20.5997C13.4737 20.5033 13.2622 20.3619 13.084 20.1838C12.9059 20.0056 12.7645 19.7941 12.6681 19.5613C12.5717 19.3285 12.5221 19.079 12.5221 18.827C12.5221 18.4428 12.6747 18.0743 12.9464 17.8027C13.218 17.531 13.5865 17.3784 13.9707 17.3784H14.4408V20.7457Z" fill="#E58A7B"/>
<path d="M24.8519 17.9829C24.8145 17.9829 24.7776 17.9755 24.7431 17.9613C24.4559 17.8437 24.1475 17.7868 23.8372 17.7941C23.565 17.801 23.2964 17.8576 23.0446 17.9613C23.0097 17.9756 22.9724 17.9829 22.9347 17.9828C22.897 17.9827 22.8597 17.9751 22.8249 17.9606C22.7901 17.946 22.7585 17.9248 22.7319 17.898C22.7054 17.8712 22.6843 17.8395 22.67 17.8046C22.6557 17.7698 22.6484 17.7324 22.6485 17.6947C22.6486 17.657 22.6562 17.6197 22.6708 17.5849C22.6853 17.5501 22.7066 17.5185 22.7333 17.4919C22.7601 17.4654 22.7918 17.4443 22.8267 17.43C23.5103 17.1489 24.2773 17.1489 24.9609 17.43C25.0225 17.4552 25.0735 17.501 25.1051 17.5596C25.1366 17.6182 25.1469 17.686 25.134 17.7513C25.1211 17.8166 25.0859 17.8755 25.0345 17.9177C24.983 17.9599 24.9184 17.983 24.8519 17.9829ZM23.8938 19.4354C23.8177 19.4354 23.7447 19.4052 23.6908 19.3513C23.637 19.2975 23.6067 19.2245 23.6067 19.1483V18.5386C23.6067 18.4624 23.637 18.3894 23.6908 18.3356C23.7447 18.2817 23.8177 18.2515 23.8938 18.2515C23.97 18.2515 24.043 18.2817 24.0968 18.3356C24.1507 18.3894 24.1809 18.4624 24.1809 18.5386V19.1483C24.1809 19.2245 24.1507 19.2975 24.0968 19.3513C24.043 19.4052 23.97 19.4354 23.8938 19.4354ZM19.1317 17.9829C19.0943 17.9829 19.0574 17.9755 19.0229 17.9613C18.4789 17.7375 17.8685 17.7375 17.3244 17.9613C17.2895 17.9756 17.2522 17.9829 17.2145 17.9828C17.1768 17.9827 17.1395 17.9751 17.1047 17.9606C17.0699 17.946 17.0383 17.9248 17.0117 17.898C16.9852 17.8712 16.9641 17.8395 16.9498 17.8046C16.9355 17.7698 16.9282 17.7324 16.9283 17.6947C16.9284 17.657 16.936 17.6197 16.9505 17.5849C16.9651 17.5501 16.9864 17.5185 17.0131 17.4919C17.0399 17.4654 17.0716 17.4443 17.1065 17.43C17.7901 17.1489 18.557 17.1489 19.2407 17.43C19.3023 17.4552 19.3533 17.501 19.3849 17.5596C19.4164 17.6182 19.4267 17.686 19.4138 17.7513C19.4009 17.8166 19.3657 17.8755 19.3143 17.9177C19.2628 17.9599 19.1982 17.983 19.1317 17.9829ZM18.1735 19.4354C18.0974 19.4354 18.0244 19.4052 17.9705 19.3513C17.9167 19.2975 17.8864 19.2245 17.8864 19.1483V18.5386C17.8864 18.4624 17.9167 18.3894 17.9705 18.3356C18.0244 18.2817 18.0974 18.2515 18.1735 18.2515C18.2497 18.2515 18.3227 18.2817 18.3766 18.3356C18.4304 18.3894 18.4607 18.4624 18.4607 18.5386V19.1483C18.4607 19.2245 18.4304 19.2975 18.3766 19.3513C18.3227 19.4052 18.2497 19.4354 18.1735 19.4354Z" fill="#343C4A"/>
</svg>
