<svg width="42" height="44" viewBox="0 0 42 44" fill="none" xmlns="http://www.w3.org/2000/svg">
<path d="M1.30615 19.5124L18.2902 2.1446L35.2742 19.5124V40.8882H1.30615V19.5124Z" fill="white"/>
<path d="M19.5965 40.8882H18.29V19.5124H19.5965V40.8882Z" fill="#D6D6D6"/>
<path d="M2.61262 40.8882H1.30615V19.5124H2.61262V40.8882ZM33.9677 40.8882H35.2742V19.5124H33.9677V40.8882Z" fill="white"/>
<path d="M35.2743 20.8486C35.1027 20.8488 34.9328 20.8143 34.7743 20.7471C34.6158 20.68 34.4718 20.5814 34.3506 20.4572L18.2903 4.03392L2.22994 20.4572C2.10864 20.5812 1.96464 20.6796 1.80615 20.7467C1.64767 20.8139 1.47781 20.8484 1.30627 20.8484C1.13472 20.8484 0.964864 20.8139 0.80638 20.7467C0.647897 20.6796 0.503895 20.5812 0.382597 20.4572C0.261299 20.3331 0.16508 20.1859 0.0994335 20.0238C0.0337875 19.8618 0 19.6881 0 19.5126C0 19.3372 0.0337875 19.1635 0.0994335 19.0015C0.16508 18.8394 0.261299 18.6921 0.382597 18.5681L17.3666 1.20029C17.4878 1.07611 17.6318 0.9776 17.7903 0.910387C17.9488 0.843172 18.1187 0.808577 18.2903 0.808577C18.4619 0.808577 18.6318 0.843172 18.7903 0.910387C18.9488 0.9776 19.0927 1.07611 19.214 1.20029L36.198 18.5681C36.3813 18.7547 36.5062 18.9928 36.557 19.2521C36.6077 19.5114 36.582 19.7803 36.483 20.0247C36.384 20.269 36.2163 20.4778 36.0011 20.6245C35.7859 20.7712 35.5329 20.8492 35.2743 20.8486Z" fill="#3B4C56"/>
<path d="M18.2905 20.8486C18.0318 20.8492 17.7789 20.7712 17.5637 20.6245C17.3485 20.4778 17.1807 20.269 17.0818 20.0247C16.9828 19.7803 16.957 19.5114 17.0078 19.2521C17.0585 18.9928 17.1835 18.7547 17.3668 18.5681L25.8588 9.8842C26.1038 9.63369 26.436 9.49295 26.7825 9.49295C27.1289 9.49295 27.4612 9.63369 27.7061 9.8842C27.9511 10.1347 28.0887 10.4745 28.0887 10.8287C28.0887 11.183 27.9511 11.5228 27.7061 11.7733L19.2141 20.4572C19.093 20.5814 18.949 20.68 18.7905 20.7471C18.632 20.8143 18.462 20.8488 18.2905 20.8486Z" fill="#3B4C56"/>
<path d="M13.0642 40.8882H7.83838V32.8723H13.0642V40.8882Z" fill="#E8E8E8"/>
<path d="M9.49827 27.09H4.27242V21.746H9.49827V27.09ZM10.6089 27.09H16.275V21.746H10.6089V27.09Z" fill="#EAEAEA"/>
<path d="M38.8512 27.9735C38.109 27.972 37.3902 28.2525 36.8222 28.7655C36.2542 29.2784 35.8736 29.9907 35.7478 30.776C35.6221 31.5614 35.7592 32.3692 36.135 33.0564C36.5108 33.7436 37.1011 34.2658 37.8011 34.5305V36.4291C37.8011 37.7746 37.3033 39.065 36.4171 40.0165C35.5309 40.9679 34.329 41.5024 33.0758 41.5024C31.8226 41.5024 30.6207 40.9679 29.7345 40.0165C28.8483 39.065 28.3505 37.7746 28.3505 36.4291V35.2791L31.6309 32.4628C32.247 31.936 32.7442 31.2665 33.0853 30.5043C33.4264 29.7421 33.6027 28.907 33.6008 28.0614V22.3364C33.6008 22.0374 33.4902 21.7506 33.2933 21.5392C33.0964 21.3278 32.8293 21.209 32.5508 21.209H30.4506C30.1721 21.209 29.905 21.3278 29.7081 21.5392C29.5112 21.7506 29.4006 22.0374 29.4006 22.3364C29.4006 22.6354 29.5112 22.9222 29.7081 23.1336C29.905 23.345 30.1721 23.4638 30.4506 23.4638H31.5007V28.0614C31.5018 28.5686 31.3961 29.0696 31.1915 29.5268C30.987 29.984 30.6888 30.3857 30.3194 30.7018L27.3004 33.2949L24.2825 30.7018C23.9128 30.3858 23.6144 29.9842 23.4097 29.527C23.2049 29.0698 23.0991 28.5687 23.1002 28.0614V23.4638H24.1502C24.4287 23.4638 24.6958 23.345 24.8927 23.1336C25.0897 22.9222 25.2003 22.6354 25.2003 22.3364C25.2003 22.0374 25.0897 21.7506 24.8927 21.5392C24.6958 21.3278 24.4287 21.209 24.1502 21.209H22.0501C21.7716 21.209 21.5045 21.3278 21.3076 21.5392C21.1106 21.7506 21 22.0374 21 22.3364V28.0614C20.9981 28.907 21.1743 29.7422 21.5154 30.5044C21.8566 31.2666 22.3538 31.9361 22.9699 32.4628L26.2504 35.2791V36.4291C26.2504 38.3726 26.9695 40.2366 28.2495 41.6109C29.5295 42.9852 31.2656 43.7573 33.0758 43.7573C34.886 43.7573 36.6221 42.9852 37.9021 41.6109C39.1821 40.2366 39.9013 38.3726 39.9013 36.4291V34.5305C40.6013 34.2658 41.1915 33.7436 41.5673 33.0564C41.9431 32.3692 42.0803 31.5614 41.9545 30.776C41.8288 29.9907 41.4482 29.2784 40.8802 28.7655C40.3122 28.2525 39.5934 27.972 38.8512 27.9735ZM38.8512 32.4831C38.6435 32.4831 38.4405 32.417 38.2678 32.2931C38.0951 32.1692 37.9605 31.9932 37.881 31.7871C37.8016 31.5811 37.7808 31.3545 37.8213 31.1358C37.8618 30.9171 37.9618 30.7162 38.1087 30.5585C38.2555 30.4008 38.4426 30.2935 38.6463 30.25C38.85 30.2065 39.0612 30.2288 39.253 30.3141C39.4449 30.3994 39.6089 30.5439 39.7243 30.7293C39.8397 30.9147 39.9013 31.1327 39.9013 31.3557C39.901 31.6546 39.7903 31.9412 39.5934 32.1526C39.3965 32.3639 39.1296 32.4828 38.8512 32.4831Z" fill="#3B4C56"/>
</svg>
