<svg width="452" height="497" viewBox="0 0 452 497" fill="none" xmlns="http://www.w3.org/2000/svg">
<path d="M422 45H30C13.4315 45 0 58.4315 0 75V467C0 483.569 13.4315 497 30 497H422C438.569 497 452 483.569 452 467V75C452 58.4315 438.569 45 422 45Z" fill="#F2F2F2"/>
<path d="M422 45H392C399.956 45 407.587 48.1607 413.213 53.7868C418.839 59.4129 422 67.0435 422 75V467C422 474.956 418.839 482.587 413.213 488.213C407.587 493.839 399.956 497 392 497H422C429.956 497 437.587 493.839 443.213 488.213C448.839 482.587 452 474.956 452 467V75C452 67.0435 448.839 59.4129 443.213 53.7868C437.587 48.1607 429.956 45 422 45Z" fill="#DEDEDE"/>
<path d="M422 45H30C22.0435 45 14.4129 48.1607 8.7868 53.7868C3.16071 59.4129 0 67.0435 0 75V140.966H452V75C452 67.0435 448.839 59.4129 443.213 53.7868C437.587 48.1607 429.956 45 422 45Z" fill="#5C7CDD"/>
<path d="M422 45H392C399.956 45 407.587 48.1607 413.213 53.7868C418.839 59.4129 422 67.0435 422 75V140.966H452V75C452 67.0435 448.839 59.4129 443.213 53.7868C437.587 48.1607 429.956 45 422 45Z" fill="#3B63DA"/>
<path d="M118 19.5C118 8.73045 109.27 0 98.5 0C87.7304 0 79 8.73045 79 19.5V72.28C79 83.0496 87.7304 91.78 98.5 91.78C109.27 91.78 118 83.0496 118 72.28V19.5Z" fill="#676E87"/>
<path d="M98.5 4.08488e-06C95.9253 -0.00166505 93.376 0.508205 91 1.5C94.5535 2.98091 97.5892 5.48041 99.7246 8.68357C101.86 11.8867 103 15.6503 103 19.5V72.28C103 76.1297 101.86 79.8933 99.7246 83.0964C97.5892 86.2996 94.5535 88.7991 91 90.28C93.3759 91.2719 95.9253 91.7818 98.5 91.78C103.672 91.78 108.632 89.7255 112.289 86.0686C115.946 82.4116 118 77.4517 118 72.28V19.5C118 14.3283 115.946 9.36838 112.289 5.71142C108.632 2.05446 103.672 4.08488e-06 98.5 4.08488e-06Z" fill="#595F74"/>
<path d="M373 19.5C373 8.73045 364.27 0 353.5 0C342.73 0 334 8.73045 334 19.5V72.28C334 83.0496 342.73 91.78 353.5 91.78C364.27 91.78 373 83.0496 373 72.28V19.5Z" fill="#676E87"/>
<path d="M353.5 4.21581e-06C350.925 -0.0016915 348.376 0.508179 346 1.5C349.553 2.98091 352.589 5.48041 354.725 8.68357C356.86 11.8867 358 15.6503 358 19.5V72.28C358 76.1297 356.86 79.8933 354.725 83.0964C352.589 86.2996 349.553 88.7991 346 90.28C348.376 91.2719 350.925 91.7818 353.5 91.78C358.672 91.78 363.632 89.7255 367.289 86.0686C370.946 82.4116 373 77.4517 373 72.28V19.5C373 14.3283 370.946 9.36838 367.289 5.71142C363.632 2.05446 358.672 4.21581e-06 353.5 4.21581e-06Z" fill="#595F74"/>
<path d="M181.5 345.3C162.941 345.279 145.149 337.897 132.026 324.774C118.903 311.651 111.521 293.858 111.5 275.3V218.8C111.504 215.221 112.928 211.789 115.458 209.258C117.989 206.727 121.421 205.304 125 205.3H151.5C153.489 205.3 155.397 206.09 156.803 207.497C158.21 208.903 159 210.811 159 212.8C159 214.789 158.21 216.697 156.803 218.103C155.397 219.51 153.489 220.3 151.5 220.3H126.5V275.3C126.5 289.887 132.295 303.876 142.609 314.191C152.924 324.505 166.913 330.3 181.5 330.3C196.087 330.3 210.076 324.505 220.391 314.191C230.705 303.876 236.5 289.887 236.5 275.3V220.3H211.5C209.511 220.3 207.603 219.51 206.197 218.103C204.79 216.697 204 214.789 204 212.8C204 210.811 204.79 208.903 206.197 207.497C207.603 206.09 209.511 205.3 211.5 205.3H238C241.579 205.304 245.011 206.727 247.542 209.258C250.072 211.789 251.496 215.221 251.5 218.8V275.3C251.479 293.858 244.097 311.651 230.974 324.774C217.851 337.897 200.059 345.279 181.5 345.3Z" fill="#3B3F4D"/>
<path d="M211.635 227.8C219.919 227.8 226.635 221.084 226.635 212.8C226.635 204.516 219.919 197.8 211.635 197.8C203.351 197.8 196.635 204.516 196.635 212.8C196.635 221.084 203.351 227.8 211.635 227.8Z" fill="#3B3F4D"/>
<path d="M301.133 318.3C317.702 318.3 331.133 304.868 331.133 288.3C331.133 271.731 317.702 258.3 301.133 258.3C284.565 258.3 271.133 271.731 271.133 288.3C271.133 304.868 284.565 318.3 301.133 318.3Z" fill="#3B3F4D"/>
<path d="M301.133 295.8C305.275 295.8 308.633 292.442 308.633 288.3C308.633 284.158 305.275 280.8 301.133 280.8C296.991 280.8 293.633 284.158 293.633 288.3C293.633 292.442 296.991 295.8 301.133 295.8Z" fill="#595F74"/>
<path d="M407 459.494C411.142 459.494 414.5 456.136 414.5 451.994C414.5 447.852 411.142 444.494 407 444.494C402.858 444.494 399.5 447.852 399.5 451.994C399.5 456.136 402.858 459.494 407 459.494Z" fill="#676E87"/>
<path d="M377 459.494C381.142 459.494 384.5 456.136 384.5 451.994C384.5 447.852 381.142 444.494 377 444.494C372.858 444.494 369.5 447.852 369.5 451.994C369.5 456.136 372.858 459.494 377 459.494Z" fill="#676E87"/>
<path d="M347 459.494C351.142 459.494 354.5 456.136 354.5 451.994C354.5 447.852 351.142 444.494 347 444.494C342.858 444.494 339.5 447.852 339.5 451.994C339.5 456.136 342.858 459.494 347 459.494Z" fill="#676E87"/>
<path d="M151.635 227.8C159.919 227.8 166.635 221.084 166.635 212.8C166.635 204.516 159.919 197.8 151.635 197.8C143.351 197.8 136.635 204.516 136.635 212.8C136.635 221.084 143.351 227.8 151.635 227.8Z" fill="#3B3F4D"/>
<path d="M241.317 445.167C223.47 445.147 206.359 438.048 193.739 425.428C181.119 412.808 174.02 395.698 174 377.851V337.8C174 335.811 174.79 333.903 176.197 332.497C177.603 331.09 179.511 330.3 181.5 330.3C183.489 330.3 185.397 331.09 186.803 332.497C188.21 333.903 189 335.811 189 337.8V377.85C189 391.725 194.512 405.032 204.323 414.843C214.134 424.654 227.441 430.166 241.316 430.166C255.192 430.166 268.499 424.654 278.31 414.843C288.121 405.032 293.633 391.725 293.633 377.85V318.3C293.633 316.311 294.423 314.403 295.83 312.997C297.236 311.59 299.144 310.8 301.133 310.8C303.122 310.8 305.03 311.59 306.436 312.997C307.843 314.403 308.633 316.311 308.633 318.3V377.85C308.613 395.697 301.514 412.808 288.894 425.428C276.275 438.048 259.164 445.146 241.317 445.167Z" fill="#3B3F4D"/>
</svg>
