<svg width="484" height="315" viewBox="0 0 484 315" fill="none" xmlns="http://www.w3.org/2000/svg">
<path d="M226.405 219.957C247.873 205.697 264.179 184.905 272.911 160.657C281.643 136.409 282.336 109.995 274.889 85.322C267.441 60.6495 252.248 39.0302 231.558 23.6637C210.868 8.29722 185.781 0 160.009 0C134.236 0 109.149 8.29722 88.4591 23.6637C67.7692 39.0302 52.5762 60.6495 45.1285 85.322C37.6808 109.995 38.3742 136.409 47.1061 160.657C55.838 184.905 72.1443 205.697 93.6119 219.957C57.016 233.457 25.3868 257.76 2.91686 289.644C1.22989 292.041 0.233453 294.854 0.0362665 297.778C-0.16092 300.702 0.448716 303.624 1.79866 306.225C3.14861 308.826 5.18702 311.007 7.69148 312.529C10.196 314.05 13.0703 314.855 16.0009 314.855L304.01 314.844C306.94 314.844 309.815 314.039 312.319 312.517C314.823 310.995 316.861 308.814 318.211 306.213C319.561 303.612 320.17 300.69 319.972 297.766C319.775 294.842 318.778 292.028 317.091 289.632C294.621 257.754 262.996 233.456 226.405 219.957Z" fill="#3B63DA"/>
<path d="M480.135 289.633C457.665 257.754 426.039 233.456 389.448 219.958C413.239 204.121 430.596 180.313 438.397 152.819C446.198 125.324 443.93 95.9483 432.001 69.9771C420.072 44.006 399.266 23.1448 373.326 11.1477C347.386 -0.849532 318.017 -3.19499 290.502 4.53332C288.004 5.23585 285.714 6.53534 283.83 8.31979C281.947 10.1042 280.525 12.3201 279.688 14.7763C278.852 17.2325 278.625 19.8553 279.027 22.4187C279.43 24.982 280.45 27.409 282 29.4904C300.087 53.7863 310.484 82.9414 311.853 113.2C313.223 143.458 305.5 173.433 289.681 199.263C287.592 202.669 286.854 206.734 287.61 210.658C288.367 214.581 290.565 218.08 293.771 220.465C299.838 224.98 305.674 229.795 311.259 234.894C311.547 235.208 311.838 235.52 312.156 235.815C333.512 255.557 350.82 279.268 363.114 305.625C364.402 308.384 366.45 310.718 369.019 312.353C371.587 313.988 374.568 314.856 377.613 314.856L467.054 314.845C469.985 314.844 472.859 314.039 475.363 312.517C477.867 310.995 479.905 308.814 481.255 306.213C482.604 303.612 483.213 300.69 483.016 297.766C482.818 294.842 481.822 292.029 480.135 289.633Z" fill="#97B0F9"/>
</svg>
