<svg width="24" height="25" viewBox="0 0 24 25" fill="none" xmlns="http://www.w3.org/2000/svg">
<path d="M20.4014 7.5C19.5531 7.49833 18.7317 7.8094 18.0825 8.37812C17.4334 8.94685 16.9984 9.73652 16.8547 10.6073C16.7109 11.478 16.8677 12.3737 17.2972 13.1356C17.7267 13.8975 18.4012 14.4765 19.2013 14.77V16.875C19.2013 18.3668 18.6323 19.7976 17.6195 20.8525C16.6068 21.9074 15.2332 22.5 13.8009 22.5C12.3687 22.5 10.9951 21.9074 9.98229 20.8525C8.96953 19.7976 8.40057 18.3668 8.40057 16.875V15.6L12.1496 12.4775C12.8537 11.8934 13.4219 11.1511 13.8118 10.306C14.2017 9.46098 14.4031 8.53506 14.401 7.5975V1.25C14.401 0.918479 14.2745 0.600537 14.0495 0.366116C13.8244 0.131696 13.5192 0 13.2009 0H10.8007C10.4824 0 10.1772 0.131696 9.95214 0.366116C9.72708 0.600537 9.60065 0.918479 9.60065 1.25C9.60065 1.58152 9.72708 1.89946 9.95214 2.13388C10.1772 2.3683 10.4824 2.5 10.8007 2.5H12.0008V7.5975C12.002 8.15988 11.8813 8.71529 11.6475 9.22222C11.4137 9.72915 11.073 10.1745 10.6507 10.525L7.20049 13.4L3.75146 10.525C3.32894 10.1747 2.98793 9.7294 2.75392 9.22245C2.51992 8.7155 2.39899 8.16 2.40017 7.5975V2.5H3.60025C3.91853 2.5 4.22378 2.3683 4.44884 2.13388C4.67389 1.89946 4.80033 1.58152 4.80033 1.25C4.80033 0.918479 4.67389 0.600537 4.44884 0.366116C4.22378 0.131696 3.91853 0 3.60025 0H1.2001C0.881815 0 0.576571 0.131696 0.351512 0.366116C0.126454 0.600537 1.76503e-05 0.918479 1.76503e-05 1.25V7.5975C-0.00217093 8.53507 0.199199 9.46102 0.589065 10.3061C0.97893 11.1512 1.5472 11.8935 2.25136 12.4775L6.00041 15.6V16.875C6.00041 19.0299 6.82225 21.0965 8.28513 22.6202C9.74801 24.144 11.7321 25 13.8009 25C15.8697 25 17.8538 24.144 19.3167 22.6202C20.7796 21.0965 21.6014 19.0299 21.6014 16.875V14.77C22.4015 14.4765 23.076 13.8975 23.5055 13.1356C23.935 12.3737 24.0918 11.478 23.948 10.6073C23.8043 9.73652 23.3693 8.94685 22.7202 8.37812C22.071 7.8094 21.2496 7.49833 20.4014 7.5ZM20.4014 12.5C20.164 12.5 19.932 12.4267 19.7346 12.2893C19.5373 12.152 19.3835 11.9568 19.2926 11.7284C19.2018 11.4999 19.178 11.2486 19.2243 11.0061C19.2706 10.7637 19.3849 10.5409 19.5528 10.3661C19.7206 10.1913 19.9344 10.0722 20.1672 10.024C20.4 9.97579 20.6413 10.0005 20.8606 10.0952C21.0799 10.1898 21.2673 10.35 21.3992 10.5555C21.531 10.7611 21.6014 11.0028 21.6014 11.25C21.6011 11.5814 21.4746 11.8992 21.2496 12.1335C21.0246 12.3679 20.7195 12.4997 20.4014 12.5Z" fill="#3B63DA"/>
</svg>
