<svg width="42" height="44" viewBox="0 0 42 44" fill="none" xmlns="http://www.w3.org/2000/svg">
<path d="M1.30627 19.5121L18.2903 2.1443L35.2743 19.5121V40.8879H1.30627V19.5121Z" fill="white"/>
<path d="M19.5967 40.8879H18.2903V19.5121H19.5967V40.8879Z" fill="#D6D6D6"/>
<path d="M2.61274 40.8879H1.30627V19.5121H2.61274V40.8879ZM33.9679 40.8879H35.2743V19.5121H33.9679V40.8879Z" fill="white"/>
<path d="M35.2743 20.8481C35.1027 20.8483 34.9328 20.8138 34.7743 20.7466C34.6158 20.6794 34.4718 20.5809 34.3506 20.4566L18.2903 4.03337L2.22994 20.4566C2.10864 20.5807 1.96464 20.6791 1.80615 20.7462C1.64767 20.8133 1.47781 20.8479 1.30627 20.8479C1.13472 20.8479 0.964864 20.8133 0.80638 20.7462C0.647897 20.6791 0.503895 20.5807 0.382597 20.4566C0.261299 20.3326 0.16508 20.1853 0.0994335 20.0233C0.0337875 19.8612 0 19.6875 0 19.5121C0 19.3367 0.0337875 19.163 0.0994335 19.0009C0.16508 18.8388 0.261299 18.6916 0.382597 18.5676L17.3666 1.19974C17.4878 1.07557 17.6318 0.977051 17.7903 0.909837C17.9488 0.842622 18.1187 0.808026 18.2903 0.808026C18.4619 0.808026 18.6318 0.842622 18.7903 0.909837C18.9488 0.977051 19.0927 1.07557 19.214 1.19974L36.198 18.5676C36.3813 18.7541 36.5062 18.9922 36.557 19.2515C36.6077 19.5109 36.582 19.7798 36.483 20.0241C36.384 20.2685 36.2163 20.4773 36.0011 20.624C35.7859 20.7707 35.5329 20.8487 35.2743 20.8481Z" fill="#3B4C56"/>
<path d="M18.2903 20.8481C18.0316 20.8487 17.7787 20.7707 17.5635 20.624C17.3483 20.4773 17.1805 20.2685 17.0816 20.0241C16.9826 19.7798 16.9569 19.5109 17.0076 19.2516C17.0584 18.9922 17.1833 18.7541 17.3666 18.5676L25.8586 9.88365C26.1036 9.63314 26.4358 9.4924 26.7823 9.4924C27.1287 9.4924 27.461 9.63314 27.706 9.88365C27.9509 10.1342 28.0886 10.4739 28.0886 10.8282C28.0886 11.1825 27.9509 11.5222 27.706 11.7727L19.214 20.4566C19.0928 20.5809 18.9488 20.6794 18.7903 20.7466C18.6318 20.8138 18.4619 20.8483 18.2903 20.8481Z" fill="#3B4C56"/>
<path d="M13.0644 40.8879H7.83856V32.872H13.0644V40.8879Z" fill="#E8E8E8"/>
<path d="M9.49827 27.0895H4.27242V21.7456H9.49827V27.0895ZM10.6089 27.0895H16.275V21.7456H10.6089V27.0895Z" fill="#EAEAEA"/>
<path d="M38.8512 27.9733C38.109 27.9718 37.3902 28.2523 36.8222 28.7653C36.2542 29.2782 35.8736 29.9905 35.7478 30.7758C35.6221 31.5612 35.7592 32.369 36.135 33.0562C36.5108 33.7434 37.1011 34.2656 37.8011 34.5303V36.4289C37.8011 37.7744 37.3033 39.0648 36.4171 40.0163C35.5309 40.9677 34.329 41.5022 33.0758 41.5022C31.8226 41.5022 30.6207 40.9677 29.7345 40.0163C28.8483 39.0648 28.3505 37.7744 28.3505 36.4289V35.2789L31.6309 32.4626C32.247 31.9358 32.7442 31.2663 33.0853 30.5041C33.4264 29.7419 33.6027 28.9068 33.6008 28.0612V22.3362C33.6008 22.0372 33.4902 21.7504 33.2933 21.539C33.0964 21.3276 32.8293 21.2088 32.5508 21.2088H30.4506C30.1721 21.2088 29.905 21.3276 29.7081 21.539C29.5112 21.7504 29.4006 22.0372 29.4006 22.3362C29.4006 22.6352 29.5112 22.922 29.7081 23.1334C29.905 23.3448 30.1721 23.4636 30.4506 23.4636H31.5007V28.0612C31.5018 28.5684 31.3961 29.0694 31.1915 29.5266C30.987 29.9838 30.6888 30.3855 30.3194 30.7016L27.3004 33.2947L24.2825 30.7016C23.9128 30.3857 23.6144 29.984 23.4097 29.5268C23.2049 29.0696 23.0991 28.5686 23.1002 28.0612V23.4636H24.1502C24.4287 23.4636 24.6958 23.3448 24.8927 23.1334C25.0897 22.922 25.2003 22.6352 25.2003 22.3362C25.2003 22.0372 25.0897 21.7504 24.8927 21.539C24.6958 21.3276 24.4287 21.2088 24.1502 21.2088H22.0501C21.7716 21.2088 21.5045 21.3276 21.3076 21.539C21.1106 21.7504 21 22.0372 21 22.3362V28.0612C20.9981 28.9068 21.1743 29.742 21.5154 30.5042C21.8566 31.2664 22.3538 31.9359 22.9699 32.4626L26.2504 35.2789V36.4289C26.2504 38.3724 26.9695 40.2364 28.2495 41.6107C29.5295 42.985 31.2656 43.7571 33.0758 43.7571C34.886 43.7571 36.6221 42.985 37.9021 41.6107C39.1821 40.2364 39.9013 38.3724 39.9013 36.4289V34.5303C40.6013 34.2656 41.1915 33.7434 41.5673 33.0562C41.9431 32.369 42.0803 31.5612 41.9545 30.7758C41.8288 29.9905 41.4482 29.2782 40.8802 28.7653C40.3122 28.2523 39.5934 27.9718 38.8512 27.9733ZM38.8512 32.4829C38.6435 32.4829 38.4405 32.4168 38.2678 32.2929C38.0951 32.1691 37.9605 31.993 37.881 31.787C37.8016 31.581 37.7808 31.3543 37.8213 31.1356C37.8618 30.9169 37.9618 30.716 38.1087 30.5583C38.2555 30.4006 38.4426 30.2933 38.6463 30.2498C38.85 30.2063 39.0612 30.2286 39.253 30.3139C39.4449 30.3993 39.6089 30.5438 39.7243 30.7292C39.8397 30.9146 39.9013 31.1325 39.9013 31.3555C39.901 31.6544 39.7903 31.941 39.5934 32.1524C39.3965 32.3638 39.1296 32.4826 38.8512 32.4829Z" fill="#3B4C56"/>
</svg>
