<svg width="26" height="27" viewBox="0 0 26 27" fill="none" xmlns="http://www.w3.org/2000/svg">
<path d="M21.9584 15.75C22.2061 16.1067 22.5614 16.3748 22.9723 16.5153C23.3832 16.6559 23.8282 16.6614 24.2425 16.5311C24.6567 16.4008 25.0185 16.1416 25.275 15.7912C25.5316 15.4408 25.6694 15.0176 25.6684 14.5833C25.6694 14.1491 25.5316 13.7259 25.275 13.3755C25.0185 13.0251 24.6567 12.7658 24.2425 12.6356C23.8282 12.5053 23.3832 12.5108 22.9723 12.6513C22.5614 12.7919 22.2061 13.06 21.9584 13.4167H21.0017C21.0017 11.585 20.4184 9.91667 19.3684 8.52834L20.9317 6.965C21.5851 7.08167 22.2501 6.895 22.7517 6.41667C23.5334 5.61167 23.5334 4.31667 22.7517 3.50001C21.9467 2.71834 20.6517 2.71834 19.8351 3.50001C19.3567 4.00167 19.1701 4.66667 19.2867 5.32L17.7234 6.88334C16.6501 6.07834 15.3901 5.54167 14.0017 5.34334V3.71001C14.3584 3.46227 14.6266 3.10703 14.7671 2.69614C14.9076 2.28524 14.9131 1.84019 14.7828 1.42594C14.6526 1.01168 14.3933 0.649892 14.0429 0.393372C13.6925 0.136853 13.2693 -0.000973298 12.8351 5.174e-06C12.4008 -0.000973298 11.9776 0.136853 11.6272 0.393372C11.2768 0.649892 11.0176 1.01168 10.8873 1.42594C10.757 1.84019 10.7626 2.28524 10.9031 2.69614C11.0436 3.10703 11.3117 3.46227 11.6684 3.71001V5.34334C10.6184 5.495 9.6384 5.83334 8.75174 6.34667L7.45674 4.49167C7.6784 3.88501 7.62007 3.18501 7.2234 2.62501C7.06962 2.40491 6.87394 2.21731 6.64756 2.07295C6.42118 1.92858 6.16855 1.83029 5.90413 1.78369C5.63971 1.73709 5.3687 1.7431 5.10661 1.80139C4.84451 1.85967 4.59649 1.96907 4.37674 2.12334C3.45507 2.765 3.22174 4.03667 3.87507 4.95834C4.27174 5.53 4.90174 5.83334 5.5434 5.83334L6.92007 7.79334C6.4184 8.295 6.02174 8.85501 5.6834 9.47334C5.31563 9.32965 4.91422 9.29504 4.52727 9.37367C4.14033 9.4523 3.78426 9.64083 3.50174 9.91667C2.72007 10.7333 2.72007 12.0167 3.50174 12.8333C3.84007 13.1483 4.2484 13.335 4.6684 13.4167C4.6684 14.0467 4.75007 14.6533 4.8784 15.2367L3.35007 15.645C2.86007 15.2367 2.1834 15.0617 1.50674 15.2367C0.983819 15.379 0.538859 15.7232 0.269745 16.1936C0.000630091 16.664 -0.0705953 17.2221 0.0717375 17.745C0.21407 18.2679 0.558302 18.7129 1.02871 18.982C1.49911 19.2511 2.05715 19.3223 2.58007 19.18C3.24507 18.9933 3.74674 18.5033 3.95674 17.8967L5.7184 17.4183C6.2434 18.34 6.9434 19.1567 7.76007 19.8333L6.47674 22.1667C5.83507 22.26 5.25174 22.6217 4.9134 23.24C4.78624 23.4759 4.70679 23.7346 4.6796 24.0013C4.65241 24.2679 4.678 24.5373 4.75492 24.7941C4.83184 25.0508 4.95857 25.2899 5.12789 25.4977C5.29721 25.7054 5.5058 25.8778 5.74174 26.005C5.97768 26.1322 6.23636 26.2116 6.503 26.2388C6.76965 26.266 7.03904 26.2404 7.29579 26.1635C7.55254 26.0866 7.79163 25.9598 7.99941 25.7905C8.20718 25.6212 8.37957 25.4126 8.50674 25.1767C8.8334 24.57 8.82174 23.87 8.53007 23.2983L9.7784 21C10.7234 21.3733 11.7501 21.5833 12.8351 21.5833H13.0451C12.8934 21.8867 12.8351 22.2367 12.8351 22.61C12.9284 23.7417 13.9084 24.5817 15.0284 24.5C16.1484 24.4183 17.0001 23.4267 16.9184 22.3067C16.8717 21.7233 16.5801 21.21 16.1601 20.8717C16.7084 20.6267 17.2334 20.3117 17.7234 19.95L20.4534 22.68C20.3367 23.3333 20.5234 23.9983 21.0017 24.5C21.8184 25.2817 23.1017 25.2817 23.9184 24.5C24.7351 23.7183 24.7001 22.4 23.9184 21.5833C23.4167 21.105 22.7517 20.9183 22.0984 21.035L19.3684 18.305C19.9401 17.5467 20.3834 16.6833 20.6634 15.75H21.9584ZM11.0851 13.4167C10.1167 13.4167 9.33507 12.635 9.33507 11.6667C9.33507 10.6983 10.1167 9.91667 11.0851 9.91667C12.0534 9.91667 12.8351 10.6983 12.8351 11.6667C12.8351 12.635 12.0534 13.4167 11.0851 13.4167ZM15.1684 16.9167C14.5267 16.9167 14.0017 16.3917 14.0017 15.75C14.0017 15.1083 14.5267 14.5833 15.1684 14.5833C15.8101 14.5833 16.3351 15.1083 16.3351 15.75C16.3351 16.3917 15.8101 16.9167 15.1684 16.9167Z" fill="#3B63DA"/>
</svg>
