<svg width="512" height="512" viewBox="0 0 512 512" fill="none" xmlns="http://www.w3.org/2000/svg">
<path d="M307.093 0V209.42C307.269 210.958 306.961 212.512 306.21 213.865C305.459 215.218 304.304 216.302 302.906 216.965C301.508 217.629 299.937 217.838 298.415 217.564C296.892 217.29 295.493 216.547 294.414 215.438L240.688 157.952C240.033 157.163 239.212 156.528 238.283 156.092C237.355 155.656 236.342 155.43 235.316 155.43C234.29 155.43 233.277 155.656 232.349 156.092C231.42 156.528 230.599 157.163 229.943 157.952L176.218 215.438C175.139 216.547 173.74 217.29 172.217 217.564C170.694 217.838 169.124 217.629 167.726 216.965C166.328 216.302 165.173 215.218 164.422 213.865C163.671 212.512 163.363 210.958 163.539 209.42V0H307.093Z" fill="#3B63DA"/>
<path d="M414.865 0H339.65V274.75C339.706 276.903 339.114 279.022 337.951 280.835C336.788 282.647 335.108 284.068 333.127 284.913C331.147 285.759 328.958 285.989 326.845 285.576C324.732 285.162 322.792 284.123 321.276 282.594L243.16 207.379C241.151 205.41 238.451 204.307 235.638 204.307C232.826 204.307 230.125 205.41 228.117 207.379L150 282.594C148.485 284.123 146.545 285.162 144.431 285.576C142.318 285.989 140.129 285.759 138.149 284.913C136.169 284.068 134.488 282.647 133.325 280.835C132.162 279.022 131.57 276.903 131.626 274.75V0H96.7051C71.0573 0 46.46 10.1885 28.3243 28.3243C10.1885 46.46 0 71.0573 0 96.7051V414.972C0 440.62 10.1885 465.218 28.3243 483.353C46.46 501.489 71.0573 511.678 96.7051 511.678H414.865C440.513 511.678 465.11 501.489 483.246 483.353C501.382 465.218 511.57 440.62 511.57 414.972V96.7051C511.57 71.0573 501.382 46.46 483.246 28.3243C465.11 10.1885 440.513 0 414.865 0ZM348.031 455.051H100.896C96.6211 455.051 92.5215 453.353 89.4989 450.331C86.4763 447.308 84.7782 443.208 84.7782 438.934C84.7782 434.659 86.4763 430.56 89.4989 427.537C92.5215 424.514 96.6211 422.816 100.896 422.816H348.031C352.306 422.816 356.405 424.514 359.428 427.537C362.45 430.56 364.149 434.659 364.149 438.934C364.149 443.208 362.45 447.308 359.428 450.331C356.405 453.353 352.306 455.051 348.031 455.051ZM437.859 379.836H100.681C96.4062 379.836 92.3066 378.138 89.284 375.116C86.2614 372.093 84.5633 367.993 84.5633 363.719C84.5633 359.444 86.2614 355.345 89.284 352.322C92.3066 349.299 96.4062 347.601 100.681 347.601H437.859C442.134 347.601 446.234 349.299 449.256 352.322C452.279 355.345 453.977 359.444 453.977 363.719C453.977 367.993 452.279 372.093 449.256 375.116C446.234 378.138 442.134 379.836 437.859 379.836Z" fill="#F2F2F2"/>
</svg>
