<svg width="40" height="45" viewBox="0 0 40 45" fill="none" xmlns="http://www.w3.org/2000/svg">
<path d="M20.4519 23.7097H15.9925V26.2264H20.4519V23.7097Z" fill="#D5B79F"/>
<path d="M18.2222 23.7097H15.9925V26.2264H18.2222V23.7097Z" fill="#C6A28A"/>
<path d="M19.9905 0.808044H16.5306V6.76417H19.9905V0.808044Z" fill="#465C6A"/>
<path d="M20.0674 0.808044H18.299V6.76417H20.0674V0.808044Z" fill="#3B4C56"/>
<path d="M15.4543 9.86816V15.9921C9.68777 15.9921 5.99721 19.0121 5.99721 25.2199C5.99721 31.5116 9.68777 34.4477 15.4543 34.4477V40.4877C7.68872 40.4877 1.384 33.6088 1.384 25.136C1.46089 16.7471 7.7656 9.86816 15.4543 9.86816Z" fill="#F9F7F8"/>
<path d="M6.07402 25.2197C6.07402 31.5114 9.76458 34.4475 15.5311 34.4475V37.7192C9.14949 37.7192 3.99808 32.0986 3.99808 25.2197C3.99808 18.3408 9.14949 12.7202 15.4542 12.7202V15.9919C9.76458 15.908 6.07402 18.928 6.07402 25.2197Z" fill="#EAEAEA"/>
<path d="M29.6783 39.2294H1.53773C0.691981 39.2294 0 39.9844 0 40.9072V44.4305H31.216V40.9072C31.216 39.9844 30.524 39.2294 29.6783 39.2294Z" fill="#465C6A"/>
<path d="M1.53773 39.2294C0.691981 39.2294 0 39.9844 0 40.9072V44.4305H15.608V39.2294H1.53773Z" fill="#3B4C56"/>
<path d="M21.2207 6.00922H15.2236V23.542H21.2207V6.00922Z" fill="#3B4C56"/>
<path d="M18.299 6.00922H15.2236V23.542H18.299V6.00922Z" fill="#465C6A"/>
<path d="M21.9127 6.00922H14.3778C14.3009 6.00922 14.224 6.09311 14.224 6.177V7.687C14.224 7.77089 14.3009 7.85478 14.3778 7.85478H21.9127C21.9896 7.85478 22.0665 7.77089 22.0665 7.687V6.177C22.0665 6.177 21.9896 6.00922 21.9127 6.00922Z" fill="#465C6A"/>
<path d="M14.3778 6.00918C14.3009 6.00918 14.224 6.09307 14.224 6.17696V7.68696C14.224 7.77085 14.3009 7.85474 14.3778 7.85474H18.299V5.92529H14.3778V6.00918Z" fill="#3B4C56"/>
<path d="M21.9127 22.2836H14.3778C14.3009 22.2836 14.224 22.3675 14.224 22.4514V23.9614C14.224 24.0453 14.3009 24.1292 14.3778 24.1292H21.9127C21.9896 24.1292 22.0665 24.0453 22.0665 23.9614V22.4514C22.0665 22.3675 21.9896 22.2836 21.9127 22.2836Z" fill="#465C6A"/>
<path d="M14.3778 22.2837C14.3009 22.2837 14.224 22.3676 14.224 22.4515V23.9615C14.224 24.0454 14.3009 24.1293 14.3778 24.1293H18.299V22.1998H14.3778V22.2837Z" fill="#3B4C56"/>
<path d="M25.2958 30.7564H14.1472C13.7627 30.7564 13.4552 31.092 13.4552 31.5114V33.7764C13.4552 34.1959 13.7627 34.5314 14.1472 34.5314H25.2958C25.6802 34.5314 25.9877 34.1959 25.9877 33.7764V31.5114C25.9877 31.092 25.6802 30.7564 25.2958 30.7564Z" fill="#465C6A"/>
<path d="M25.2957 30.7564H19.683V34.4475H25.2957C25.6802 34.4475 25.9877 34.112 25.9877 33.6925V31.4275C25.9877 31.092 25.6802 30.7564 25.2957 30.7564Z" fill="#3B4C56"/>
<path d="M28.1426 15.5816V30.3305C28.1426 33.1398 30.4279 35.4223 33.2405 35.4223C36.0532 35.4223 38.3384 33.1398 38.3384 30.3305V15.5816H28.1426Z" fill="#EAEAEA"/>
<path d="M29.9006 21.3757V30.4181C29.9006 32.2617 31.3948 33.7542 33.2406 33.7542C35.0864 33.7542 36.5806 32.2617 36.5806 30.4181V21.3757H29.9006Z" fill="#E8664A"/>
<path opacity="0.15" d="M33.1527 15.5816V35.4223H33.2406C36.0532 35.4223 38.3385 33.1398 38.3385 30.3305V15.5816H33.1527Z" fill="#919293"/>
<path d="M39.0416 14.7914H27.4395C27.1758 14.7914 27 14.967 27 15.2304V16.9862C27 17.2496 27.1758 17.4252 27.4395 17.4252H39.0416C39.3053 17.4252 39.4811 17.2496 39.4811 16.9862V15.2304C39.4811 14.967 39.3053 14.7914 39.0416 14.7914Z" fill="#E6E6E8"/>
</svg>
