<svg width="92" height="130" viewBox="0 0 92 130" fill="none" xmlns="http://www.w3.org/2000/svg">
<path d="M22.2245 129.692C17.547 128.237 13.0719 126.29 8.88974 123.892C8.60127 123.725 4.43395 121.269 2.04554 117.447C1.54603 116.648 1.03666 115.648 1.33738 114.547C1.52953 113.926 1.90713 113.367 2.42808 112.931C2.94903 112.495 3.59286 112.199 4.28778 112.076C5.28888 111.925 6.17161 112.265 7.35565 112.721C8.78541 113.271 9.15578 113.754 10.0699 113.687C10.7096 113.641 11.5565 113.329 11.8398 112.721C12.3934 111.532 10.4564 109.941 10.3057 109.82C9.07208 108.828 8.42849 109.175 6.29357 108.209C4.82959 107.533 3.51068 106.623 2.39947 105.524C1.19958 104.422 0.519822 103.778 0.629528 102.946C0.738636 102.114 1.60283 101.341 2.51754 101.12C3.75808 100.819 4.31887 101.72 5.70379 101.442C6.51806 101.278 7.46296 100.738 7.5918 100.045C7.72094 99.3523 6.98289 98.7678 5.82157 97.7896C1.65245 94.2777 1.03128 93.2744 0.747305 92.7411C0.349136 91.9928 -0.30013 90.7727 0.157226 89.4114C0.494115 88.4093 1.41899 87.3658 2.63532 87.0482C5.13822 86.3949 8.52714 88.9067 9.83374 91.4522C10.9257 93.5792 11.604 95.2118 11.604 95.2118C11.8984 95.9816 12.3828 96.6797 13.02 97.2525C13.3467 97.5385 14.0895 98.1883 14.6722 98.0046C15.0473 97.8862 15.1086 97.5004 15.4981 96.6082C16.0798 95.2765 16.3706 94.611 16.9141 94.3525C17.7373 93.9609 19.0167 94.4714 19.7464 95.1043C20.8949 96.101 20.9113 97.6016 20.9263 98.9714C20.94 100.223 20.7069 100.228 20.4543 102.516C20.3097 103.801 20.2703 105.093 20.3362 106.383C20.4692 108.901 20.9185 109.257 21.1624 109.391C21.7579 109.716 22.5174 109.467 23.4044 109.176C24.6357 108.746 25.7306 108.045 26.5906 107.135C27.8054 105.908 27.6144 105.44 28.3608 104.987C28.8003 104.719 29.4651 104.518 30.52 104.645C31.4225 104.769 32.282 105.079 33.0326 105.551C33.7833 106.024 34.4051 106.646 34.8505 107.371C35.0237 107.643 35.1813 107.923 35.3228 108.209C37.1349 111.877 35.7279 115.565 34.9689 117.554C32.1608 124.914 24.444 128.688 22.2245 129.692Z" fill="#3CA05D"/>
<path d="M29.5249 46.5287C26.4077 38.2623 19.7853 38.0795 16.5231 30.7423C12.9701 22.7507 17.1036 14.5927 17.5188 13.8036C22.6131 4.12035 32.7649 -1.88897 41.9216 0.539243C47.004 1.88695 49.3233 4.98454 61.0887 11.7933C69.9901 16.945 76.8074 17.7626 78.8613 18.6924C89.3291 23.4307 92.8744 34.0467 91.823 44.1C91.5304 46.898 90.0361 60.4197 74.735 62.4281C69.997 63.0498 71.5146 61.898 56.3923 61.042C40.465 60.1402 31.7755 52.4975 29.5249 46.5287Z" fill="#D6DFFF"/>
<path d="M68.6163 129.692C72.4672 128.494 76.1515 126.892 79.5946 124.917C79.832 124.78 83.263 122.758 85.2293 119.611C85.6404 118.952 86.0598 118.13 85.8123 117.223C85.6541 116.713 85.3432 116.252 84.9144 115.893C84.4855 115.534 83.9555 115.29 83.3835 115.189C82.559 115.065 81.8321 115.344 80.8576 115.72C79.6804 116.173 79.3755 116.57 78.6231 116.516C78.0961 116.477 77.399 116.221 77.1658 115.72C76.71 114.741 78.3047 113.432 78.4288 113.332C79.4442 112.516 79.9742 112.801 81.7319 112.006C82.9372 111.449 84.023 110.7 84.9379 109.795C85.9256 108.888 86.4851 108.358 86.3952 107.672C86.3052 106.987 85.5937 106.351 84.8407 106.169C83.8193 105.921 83.3578 106.663 82.2177 106.434C81.5472 106.299 80.7694 105.854 80.6633 105.284C80.5568 104.714 81.1643 104.233 82.1205 103.427C85.5528 100.536 86.0642 99.7099 86.298 99.271C86.6259 98.6547 87.1604 97.6503 86.7838 96.5296C86.6377 96.0812 86.3765 95.6709 86.0217 95.3326C85.667 94.9943 85.2289 94.7377 84.7436 94.584C82.6831 94.0461 79.8929 96.1141 78.8174 98.2098C77.9185 99.9607 77.3601 101.305 77.3601 101.305C77.1177 101.939 76.7189 102.514 76.1943 102.985C75.9253 103.22 75.3137 103.755 74.8342 103.604C74.5251 103.507 74.4749 103.189 74.1539 102.455C73.675 101.358 73.4358 100.81 72.9881 100.597C72.3104 100.275 71.2573 100.695 70.6564 101.216C69.7109 102.037 69.6972 103.272 69.6849 104.4C69.6739 105.431 69.8658 105.435 70.0735 107.318C70.1925 108.376 70.225 109.44 70.1707 110.502C70.0613 112.575 69.6915 112.869 69.4906 112.978C69.0004 113.246 68.375 113.041 67.6448 112.801C66.6311 112.447 65.7297 111.87 65.0217 111.121C64.0215 110.111 64.1787 109.726 63.5644 109.353C63.0316 109.059 62.397 108.959 61.7867 109.071C61.0437 109.173 60.3361 109.428 59.7181 109.817C59.1001 110.206 58.5881 110.719 58.2214 111.316C58.0789 111.539 57.949 111.77 57.8325 112.006C56.3409 115.026 57.4992 118.062 58.124 119.699C60.4356 125.759 66.7889 128.866 68.6163 129.692Z" fill="#3CA05D"/>
<path d="M68.6163 129.692C68.6163 129.692 70.1632 112.638 85.2395 94.771L85.2386 94.7701C85.9796 95.1576 86.5321 95.786 86.785 96.529C87.1601 97.6492 86.6256 98.6538 86.2992 99.2704C86.0643 99.7101 85.5519 100.536 82.1217 103.427C81.1637 104.232 80.5565 104.714 80.6645 105.284C80.7697 105.854 81.5469 106.298 82.2189 106.433C83.3578 106.664 83.819 105.923 84.8419 106.168C85.2288 106.263 85.5792 106.453 85.8537 106.719C86.1283 106.984 86.3162 107.314 86.3964 107.671C86.4854 108.357 85.927 108.888 84.9391 109.794C84.0238 110.699 82.938 111.448 81.7331 112.005C79.9733 112.801 79.4445 112.516 78.43 113.331C78.3056 113.432 76.7109 114.741 77.1667 115.719C77.399 116.22 78.0952 116.478 78.6243 116.515C79.3746 116.572 79.6795 116.174 80.8588 115.719C81.833 115.346 82.5588 115.066 83.3847 115.189C83.9566 115.29 84.4865 115.534 84.9153 115.893C85.3441 116.252 85.655 116.712 85.8135 117.222C86.0589 118.129 85.6407 118.952 85.2305 119.61C83.2633 122.757 79.8332 124.779 79.5958 124.916C76.153 126.891 72.4686 128.494 68.6175 129.691" fill="#4FBA75"/>
<path d="M69.8828 123.422C69.0376 123.098 68.227 122.704 67.4612 122.245C66.6889 121.789 65.9665 121.266 65.3039 120.684C64.6383 120.096 64.0829 119.413 63.6595 118.662C63.4539 118.283 63.3028 117.882 63.2099 117.468C63.1255 117.056 63.1089 116.635 63.1609 116.218C63.1641 117.044 63.3994 117.856 63.8442 118.576C64.2836 119.292 64.8398 119.944 65.4937 120.509C66.1386 121.088 66.8358 121.617 67.5778 122.09C67.9462 122.332 68.3236 122.563 68.7092 122.782C69.0925 123.007 69.4841 123.22 69.8828 123.422ZM75.0001 110.194C74.5393 109.768 74.1198 109.306 73.7464 108.814C73.3642 108.325 73.0277 107.808 72.7405 107.268C72.4494 106.726 72.2275 106.156 72.079 105.569C71.9315 104.981 71.9075 104.374 72.0082 103.778C72.011 104.368 72.1025 104.955 72.2802 105.523C72.4652 106.086 72.7005 106.634 72.9836 107.162C73.2661 107.692 73.5784 108.209 73.9192 108.711C74.0848 108.965 74.263 109.213 74.4459 109.458C74.6214 109.709 74.8106 109.95 75.0001 110.194Z" fill="#4FBA75"/>
<path d="M69.8726 123.328C70.3243 123.392 70.776 123.448 71.2297 123.484C71.682 123.528 72.1355 123.56 72.589 123.576C73.4934 123.621 74.4005 123.597 75.3005 123.504C76.1981 123.427 77.0778 123.227 77.9095 122.91C78.748 122.594 79.4838 122.088 80.0469 121.44C79.8049 121.797 79.5059 122.119 79.1596 122.396C78.8058 122.669 78.4148 122.9 77.9962 123.082C77.1537 123.435 76.2535 123.66 75.3313 123.748C74.4153 123.833 73.4923 123.838 72.5752 123.763C71.6617 123.694 70.7568 123.548 69.8726 123.328ZM74.821 110.047C75.1352 109.962 75.4482 109.878 75.7561 109.78C76.0663 109.691 76.3736 109.594 76.6774 109.488C77.2856 109.285 77.8821 109.054 78.4643 108.795C79.0451 108.539 79.6018 108.24 80.1291 107.902C80.6539 107.555 81.1242 107.145 81.5268 106.682C81.202 107.207 80.7709 107.672 80.2564 108.051C79.741 108.43 79.1796 108.753 78.5833 109.015C77.991 109.279 77.3754 109.497 76.7431 109.666C76.1157 109.843 75.4726 109.971 74.821 110.047Z" fill="#C0E2CC"/>
<path d="M68.7693 128.544C68.9597 127.102 69.2649 125.673 69.5991 124.252C69.959 122.835 70.3524 121.425 70.8124 120.032C71.0411 119.336 71.2602 118.636 71.5275 117.95L71.9113 116.917C72.0359 116.571 72.1678 116.228 72.3125 115.889L73.156 113.846L74.0758 111.831C74.3726 111.156 74.7334 110.506 75.0644 109.844C75.4057 109.186 75.725 108.519 76.1034 107.878L77.1996 105.938C77.5667 105.292 77.9828 104.67 78.3759 104.037C79.1462 102.762 80.0289 101.549 80.8808 100.32C81.2987 99.7003 81.7818 99.1199 82.2389 98.5242L83.6244 96.7474C81.8344 99.1528 80.0869 101.584 78.5564 104.13C76.9908 106.658 75.5778 109.261 74.3236 111.928C73.0528 114.589 71.9465 117.313 71.01 120.087C70.5273 121.469 70.1133 122.871 69.7267 124.279C69.351 125.689 69.0033 127.107 68.7693 128.544Z" fill="#C0E2CC"/>
<path d="M22.2245 129.692C22.2245 129.692 20.3449 108.977 2.03329 87.2751L2.03418 87.2743C1.13418 87.7449 0.463189 88.5081 0.156036 89.4106C-0.299826 90.771 0.349441 91.9914 0.746115 92.7405C1.03129 93.2746 1.65395 94.2771 5.82008 97.789C6.98379 98.7675 7.72124 99.3525 7.59031 100.045C7.46237 100.737 6.51837 101.277 5.7023 101.441C4.31887 101.721 3.75839 100.821 2.51605 101.119C1.60134 101.34 0.739538 102.115 0.628039 102.945C0.519828 103.777 1.19839 104.422 2.39798 105.523C3.50979 106.622 4.82857 107.532 6.29208 108.208C8.4294 109.175 9.07209 108.829 10.3043 109.819C10.4552 109.942 12.3925 111.532 11.8383 112.72C11.5565 113.328 10.7108 113.642 10.0684 113.686C9.15698 113.755 8.78661 113.272 7.35416 112.72C6.17101 112.266 5.28918 111.926 4.28599 112.075C3.59128 112.198 2.94769 112.495 2.42686 112.931C1.90602 113.367 1.52836 113.926 1.33589 114.546C1.03757 115.647 1.54574 116.646 2.04405 117.446C4.43366 121.268 8.59978 123.724 8.88825 123.891C13.07 126.29 17.5452 128.237 22.223 129.691" fill="#4FBA75"/>
<path d="M20.6863 122.076C21.1706 121.831 21.6459 121.572 22.1115 121.299C22.58 121.033 23.0384 120.753 23.486 120.458C24.3834 119.879 25.2297 119.237 26.0173 118.538C26.4088 118.19 26.775 117.819 27.1135 117.428C27.4554 117.04 27.7591 116.626 28.021 116.19C28.5613 115.315 28.8471 114.329 28.8511 113.325C28.9142 113.832 28.894 114.344 28.7913 114.845C28.6784 115.347 28.4949 115.835 28.2452 116.295C27.7363 117.21 27.061 118.04 26.2478 118.75C25.447 119.461 24.5691 120.097 23.6274 120.647C22.6973 121.204 21.7128 121.683 20.6863 122.076ZM14.4704 106.009C14.9361 105.421 15.3651 104.816 15.7818 104.207C16.1975 103.598 16.5774 102.97 16.9198 102.325C17.0128 102.167 17.0839 102.001 17.1655 101.839C17.2468 101.677 17.3248 101.513 17.3906 101.345C17.4588 101.178 17.5365 101.014 17.5975 100.845L17.7723 100.335C17.9884 99.6455 18.1001 98.9325 18.1044 98.2157C18.2277 98.9392 18.1992 99.6775 18.0204 100.391C17.838 101.105 17.5678 101.797 17.2148 102.455C16.8652 103.11 16.4571 103.739 15.9946 104.334C15.5407 104.931 15.0308 105.492 14.4704 106.009Z" fill="#4FBA75"/>
<path d="M20.6982 121.962C19.6241 122.229 18.5252 122.407 17.4154 122.491C16.3017 122.588 15.1801 122.581 14.0677 122.472C12.9464 122.371 11.8521 122.097 10.831 121.663C10.3225 121.442 9.84748 121.162 9.41766 120.83C8.99722 120.494 8.63413 120.102 8.34033 119.669C9.02425 120.456 9.91782 121.071 10.9362 121.455C11.4381 121.651 11.9579 121.806 12.4897 121.919C13.0216 122.036 13.5613 122.122 14.1054 122.176C15.1991 122.283 16.3003 122.312 17.399 122.263C17.9506 122.243 18.5014 122.206 19.0502 122.152C19.6017 122.105 20.1513 122.041 20.6982 121.962ZM14.6877 105.83C13.8961 105.738 13.1148 105.584 12.3525 105.369C11.5851 105.161 10.8378 104.897 10.118 104.577C9.39408 104.258 8.712 103.866 8.08475 103.407C7.45967 102.946 6.93627 102.382 6.5423 101.743C7.03216 102.305 7.60389 102.803 8.24169 103.223L8.72505 103.526C8.88767 103.625 9.06045 103.71 9.22725 103.803C9.39255 103.898 9.56503 103.983 9.73931 104.065C9.91358 104.147 10.0822 104.238 10.2624 104.31C10.9693 104.624 11.6942 104.905 12.4338 105.15C13.1749 105.394 13.9234 105.63 14.6877 105.83V105.83Z" fill="#C0E2CC"/>
<path d="M22.0386 128.298C21.7546 126.552 21.3322 124.829 20.8754 123.117C20.6294 122.264 20.4151 121.405 20.1383 120.56C19.8746 119.712 19.6188 118.862 19.3165 118.025C19.0236 117.185 18.745 116.341 18.4198 115.512L17.9481 114.262L17.7119 113.637L17.4548 113.019L16.4199 110.55L15.2924 108.115C13.7689 104.875 12.0524 101.714 10.1506 98.6438C9.24394 97.0852 8.1977 95.6011 7.19212 94.0943C6.70786 93.3297 6.14409 92.6121 5.6114 91.8756L3.99481 89.6759L5.67776 91.8342C6.23287 92.558 6.81966 93.2627 7.32693 94.0153C8.36211 95.5084 9.43436 96.9821 10.37 98.5306C10.8471 99.2993 11.3529 100.054 11.7986 100.839L13.1303 103.195C13.5894 103.974 13.9774 104.785 14.3923 105.583C14.7944 106.387 15.2323 107.177 15.5931 107.997L16.7099 110.445L17.7343 112.926L17.9884 113.547L18.2216 114.175L18.6879 115.43C19.0128 116.262 19.2789 117.113 19.5566 117.959C19.8453 118.803 20.0875 119.658 20.3374 120.511C20.5989 121.362 20.8022 122.226 21.0303 123.084C21.4359 124.811 21.8069 126.546 22.0383 128.298L22.0386 128.298Z" fill="#C0E2CC"/>
<path d="M34.4951 18.7011C35.9801 18.7011 37.1839 17.6053 37.1839 16.2536C37.1839 14.9018 35.9801 13.806 34.4951 13.806C33.0101 13.806 31.8063 14.9018 31.8063 16.2536C31.8063 17.6053 33.0101 18.7011 34.4951 18.7011Z" fill="#57C984"/>
<path d="M34.3325 18.4062C33.6486 18.3634 33.0084 18.0844 32.543 17.6263C32.0775 17.1682 31.8219 16.5655 31.8284 15.9415C31.8216 15.9894 31.8163 16.0375 31.8125 16.0857C31.7852 16.4079 31.8283 16.7318 31.9392 17.0388C32.0501 17.3457 32.2267 17.6297 32.4588 17.8742C32.6909 18.1187 32.9739 18.3189 33.2914 18.4634C33.609 18.6078 33.9548 18.6936 34.309 18.7158C34.6631 18.7379 35.0186 18.6961 35.3549 18.5925C35.6911 18.489 36.0016 18.3259 36.2682 18.1126C36.5349 17.8993 36.7525 17.64 36.9086 17.3498C37.0646 17.0596 37.156 16.7441 37.1773 16.4215C37.1812 16.3728 37.1827 16.3246 37.1833 16.2765C37.096 16.8954 36.7522 17.4606 36.2223 17.8564C35.6924 18.2523 35.0164 18.449 34.3325 18.4062Z" fill="#4FBA75"/>
<path d="M33.1777 17.0974C33.2984 17.0626 33.355 16.9156 33.304 16.7691C33.253 16.6225 33.1138 16.5319 32.9931 16.5667C32.8724 16.6014 32.8158 16.7485 32.8668 16.895C32.9178 17.0416 33.057 17.1322 33.1777 17.0974Z" fill="#4FBA75"/>
<path d="M34.7462 15.947C34.7595 15.7698 34.6509 15.6187 34.5035 15.6095C34.3561 15.6002 34.2257 15.7364 34.2123 15.9136C34.199 16.0908 34.3076 16.242 34.455 16.2512C34.6024 16.2604 34.7328 16.1242 34.7462 15.947Z" fill="#4FBA75"/>
<path d="M35.6285 14.9841C35.7071 14.8251 35.6554 14.6489 35.513 14.5906C35.3706 14.5322 35.1914 14.6138 35.1128 14.7727C35.0342 14.9317 35.0859 15.1079 35.2283 15.1662C35.3707 15.2246 35.5499 15.143 35.6285 14.9841Z" fill="#4FBA75"/>
<path d="M36.3639 16.7934C36.5422 16.7141 36.631 16.5462 36.5624 16.4185C36.4937 16.2908 36.2936 16.2516 36.1154 16.331C35.9371 16.4104 35.8482 16.5783 35.9169 16.706C35.9855 16.8336 36.1856 16.8728 36.3639 16.7934Z" fill="#4FBA75"/>
<path d="M34.4028 17.8486C34.521 17.8486 34.6168 17.7614 34.6168 17.6538C34.6168 17.5462 34.521 17.459 34.4028 17.459C34.2845 17.459 34.1887 17.5462 34.1887 17.6538C34.1887 17.7614 34.2845 17.8486 34.4028 17.8486Z" fill="#4FBA75"/>
<path d="M33.0142 15.2974C33.1797 15.1661 33.2263 14.9681 33.1181 14.8551C33.01 14.7422 32.7882 14.757 32.6226 14.8883C32.4571 15.0197 32.4105 15.2177 32.5187 15.3306C32.6268 15.4436 32.8487 15.4287 33.0142 15.2974Z" fill="#4FBA75"/>
<path d="M35.7129 17.6098C35.81 17.6098 35.8887 17.5382 35.8887 17.4498C35.8887 17.3614 35.81 17.2898 35.7129 17.2898C35.6159 17.2898 35.5372 17.3614 35.5372 17.4498C35.5372 17.5382 35.6159 17.6098 35.7129 17.6098Z" fill="#4FBA75"/>
<path d="M34.1438 14.8893C34.2409 14.8893 34.3196 14.8177 34.3196 14.7293C34.3196 14.641 34.2409 14.5693 34.1438 14.5693C34.0468 14.5693 33.9681 14.641 33.9681 14.7293C33.9681 14.8177 34.0468 14.8893 34.1438 14.8893Z" fill="#4FBA75"/>
<path d="M31.0317 17.443C31.3572 17.3096 31.7179 17.2643 32.0708 17.3126L31.8329 16.6C31.8329 16.6 31.7471 16.902 30.9008 17.1488L31.0317 17.443ZM31.6924 14.082C31.9741 14.2814 32.1867 14.5504 32.3049 14.8569L32.8857 14.3323C32.8857 14.3323 32.5524 14.4044 31.9172 13.839L31.6924 14.082ZM34.3151 18.6375C34.2233 18.6317 34.1318 18.6217 34.041 18.6076C34.1211 18.6935 34.2802 18.9409 34.2709 19.5477L34.6189 19.5283C34.5848 19.2188 34.647 18.9067 34.7982 18.6277C34.6378 18.6441 34.4762 18.6474 34.3151 18.6375ZM35.9577 14.2001C36.1471 14.3121 36.3202 14.4454 36.4731 14.5968C36.5728 14.318 36.7489 14.0669 36.9848 13.8673L36.7143 13.6673C36.5204 13.9045 36.2586 14.0887 35.9577 14.2001ZM37.8777 15.021C37.5535 15.1567 37.1932 15.2045 36.8399 15.1587L37.0841 15.8697C37.0841 15.8697 37.1672 15.5671 38.0114 15.3141L37.8777 15.021ZM38.0299 17.1997C37.6833 17.1226 37.3685 16.9562 37.123 16.7205L36.8285 17.4155C36.8285 17.4155 37.1005 17.2256 37.9342 17.5053L38.0299 17.1997ZM35.1297 12.9835C35.0829 13.3054 34.9352 13.6083 34.7043 13.8559L35.4953 14.0472C35.4953 14.0472 35.2586 13.8219 35.4735 13.0371L35.1297 12.9835ZM33.8706 13.8725C33.7437 13.6798 33.6495 13.4707 33.5911 13.2524L33.2623 13.3579C33.3595 13.569 33.3993 13.7984 33.3783 14.0265C33.5365 13.9607 33.7014 13.9091 33.8706 13.8725ZM35.7787 18.4037C35.9454 18.547 36.0904 18.7099 36.2097 18.8881L36.4886 18.6976C36.3422 18.5421 36.2369 18.358 36.1807 18.1597C36.055 18.2518 35.9205 18.3335 35.7787 18.4037ZM32.9834 18.2171C32.8518 18.1351 32.7285 18.0427 32.6149 17.9409C32.5038 18.1142 32.3694 18.274 32.2146 18.4168L32.4845 18.6176C32.6152 18.4512 32.7859 18.3142 32.9837 18.2171H32.9834ZM31.8236 15.9796C31.8405 15.8415 31.8703 15.705 31.9127 15.5715C31.7045 15.6361 31.4793 15.6401 31.2685 15.5829L31.2416 15.7815C31.4519 15.7972 31.6536 15.8658 31.8236 15.9796Z" fill="#57C984"/>
<path d="M31.0901 17.5961C31.0884 17.6158 31.0794 17.6345 31.0646 17.6489C31.0498 17.6634 31.03 17.6728 31.0085 17.6757C30.987 17.6785 30.965 17.6746 30.9463 17.6646C30.9275 17.6546 30.9131 17.6391 30.9053 17.6206L30.6871 17.0919C30.6818 17.0811 30.679 17.0694 30.6789 17.0575C30.6788 17.0456 30.6813 17.0339 30.6863 17.0229C30.6914 17.012 30.6988 17.0021 30.7082 16.9939C30.7175 16.9857 30.7287 16.9793 30.7409 16.9751C30.7531 16.9709 30.7661 16.969 30.7791 16.9696C30.7921 16.9702 30.8048 16.9731 30.8165 16.9783C30.8282 16.9835 30.8387 16.9909 30.8471 16.9999C30.8556 17.0089 30.862 17.0194 30.8659 17.0307L31.0841 17.5594C31.089 17.5711 31.091 17.5836 31.0901 17.5961ZM32.0807 13.756C32.0794 13.7738 32.0721 13.7908 32.0598 13.8047L31.6688 14.2436C31.6524 14.2601 31.6296 14.2702 31.6052 14.2719C31.5808 14.2736 31.5566 14.2667 31.5376 14.2527C31.5186 14.2386 31.5062 14.2185 31.503 14.1964C31.4999 14.1743 31.5061 14.1519 31.5205 14.1339L31.9112 13.695C31.9241 13.6807 31.9416 13.6705 31.9612 13.6659C31.9808 13.6612 32.0016 13.6624 32.0204 13.6691C32.0393 13.6759 32.0553 13.688 32.0661 13.7036C32.077 13.7192 32.0821 13.7375 32.0807 13.756ZM37.2309 13.9168C37.2297 13.9326 37.2237 13.9478 37.2137 13.9607C37.2037 13.9737 37.1899 13.9839 37.174 13.9903C37.1581 13.9967 37.1405 13.999 37.1233 13.9969C37.106 13.9949 37.0897 13.9886 37.0761 13.9788L36.5906 13.6267C36.5717 13.6121 36.5597 13.5913 36.5574 13.5687C36.555 13.5462 36.5623 13.5238 36.5778 13.5061C36.5933 13.4884 36.6158 13.4769 36.6404 13.474C36.6651 13.4711 36.69 13.4771 36.7099 13.4907L37.195 13.8428C37.2071 13.8515 37.2167 13.8628 37.223 13.8757C37.2292 13.8886 37.2319 13.9027 37.2309 13.9168ZM38.2182 15.4207C38.2166 15.4401 38.2079 15.4586 38.1933 15.473C38.1788 15.4873 38.1594 15.4969 38.1382 15.5C38.1171 15.5032 38.0953 15.4997 38.0766 15.4903C38.0578 15.4808 38.043 15.4659 38.0347 15.4479L37.7986 14.9254C37.7905 14.9044 37.7917 14.8814 37.8017 14.8611C37.8117 14.8408 37.8299 14.8248 37.8525 14.8163C37.8751 14.8079 37.9005 14.8076 37.9233 14.8156C37.9461 14.8236 37.9647 14.8392 37.9752 14.8593L38.2114 15.3818C38.2169 15.3941 38.2193 15.4074 38.2182 15.4207ZM38.1716 17.1003C38.1713 17.104 38.1707 17.1076 38.1698 17.1112L38.0514 17.6655C38.0494 17.677 38.0448 17.688 38.0379 17.6978C38.0311 17.7077 38.0222 17.7162 38.0117 17.7228C38.0012 17.7295 37.9893 17.7341 37.9768 17.7365C37.9643 17.7389 37.9514 17.739 37.9388 17.7368C37.9263 17.7346 37.9143 17.7301 37.9037 17.7236C37.8931 17.7171 37.884 17.7087 37.877 17.699C37.87 17.6892 37.8652 17.6783 37.8629 17.6669C37.8607 17.6554 37.8609 17.6437 37.8637 17.6323L37.9824 17.0778C37.9872 17.0562 38.0009 17.037 38.0206 17.0242C38.0403 17.0114 38.0646 17.0059 38.0886 17.0088C38.1126 17.0116 38.1345 17.0227 38.1499 17.0397C38.1653 17.0567 38.1731 17.0783 38.1716 17.1003ZM36.7045 18.6551C36.7034 18.6687 36.6989 18.6819 36.6912 18.6937C36.6835 18.7054 36.6729 18.7153 36.6602 18.7226L36.1356 19.0244C36.1143 19.0353 36.0891 19.0384 36.0653 19.033C36.0415 19.0276 36.0209 19.014 36.0078 18.9951C35.9946 18.9763 35.99 18.9535 35.9948 18.9316C35.9995 18.9097 36.0134 18.8903 36.0334 18.8774L36.558 18.5754C36.5729 18.5668 36.5902 18.5622 36.6078 18.562C36.6255 18.5618 36.6429 18.566 36.658 18.5742C36.6732 18.5825 36.6855 18.5943 36.6937 18.6086C36.7019 18.6228 36.7057 18.6391 36.7045 18.6551ZM34.8637 19.5514C34.8621 19.5726 34.8519 19.5926 34.8352 19.6074C34.8186 19.6223 34.7965 19.6311 34.7731 19.6322L34.1535 19.66C34.1286 19.6604 34.1044 19.6521 34.0862 19.6366C34.068 19.6211 34.0572 19.5998 34.0559 19.5771C34.0547 19.5545 34.0633 19.5323 34.0798 19.5153C34.0962 19.4983 34.1194 19.4878 34.1442 19.4861L34.7639 19.4584C34.7892 19.4572 34.814 19.4653 34.8327 19.4808C34.8515 19.4964 34.8628 19.518 34.864 19.5411C34.8642 19.5445 34.864 19.548 34.8637 19.5514ZM32.6839 18.7147C32.6826 18.7307 32.6764 18.7461 32.6661 18.7591C32.6558 18.7721 32.6417 18.7823 32.6255 18.7885C32.6092 18.7947 32.5914 18.7966 32.5739 18.7942C32.5565 18.7917 32.5402 18.7849 32.5267 18.7746L32.0541 18.4086C32.0435 18.4015 32.0347 18.3925 32.0281 18.3822C32.0215 18.3718 32.0174 18.3604 32.0159 18.3485C32.0144 18.3366 32.0156 18.3246 32.0194 18.3132C32.0232 18.3017 32.0296 18.2912 32.0381 18.2821C32.0466 18.273 32.0571 18.2656 32.0688 18.2603C32.0806 18.2551 32.0935 18.2521 32.1066 18.2515C32.1197 18.251 32.1328 18.2529 32.1451 18.2572C32.1573 18.2615 32.1685 18.268 32.1779 18.2764L32.6505 18.6423C32.6619 18.6511 32.6709 18.6623 32.6767 18.6749C32.6825 18.6874 32.685 18.7011 32.6839 18.7147ZM33.8342 13.2504C33.8328 13.2691 33.8247 13.2869 33.8112 13.3011C33.7978 13.3154 33.7796 13.3252 33.7595 13.3293L33.1533 13.4504C33.1292 13.4538 33.1045 13.4488 33.0844 13.4363C33.0643 13.4238 33.0501 13.4047 33.0449 13.3831C33.0397 13.3614 33.0438 13.3387 33.0563 13.3197C33.0688 13.3006 33.0888 13.2866 33.1123 13.2806L33.7185 13.1592C33.733 13.1564 33.7481 13.1566 33.7625 13.16C33.7768 13.1633 33.7902 13.1697 33.8014 13.1785C33.8126 13.1873 33.8214 13.1984 33.8271 13.2109C33.8328 13.2234 33.8352 13.2369 33.8342 13.2504ZM35.7133 13.0431L35.7127 13.0501C35.7088 13.0729 35.6952 13.0934 35.6748 13.1071C35.6544 13.1207 35.6289 13.1265 35.6038 13.1231L34.9902 13.0387C34.9777 13.037 34.9658 13.0331 34.955 13.0271C34.9443 13.0212 34.9349 13.0135 34.9275 13.0042C34.92 12.995 34.9146 12.9846 34.9116 12.9735C34.9086 12.9624 34.908 12.9508 34.9099 12.9395C34.9118 12.9282 34.9161 12.9174 34.9226 12.9076C34.9291 12.8978 34.9376 12.8892 34.9477 12.8825C34.9579 12.8757 34.9694 12.8708 34.9816 12.868C34.9937 12.8653 35.0064 12.8647 35.0188 12.8665L35.6325 12.9511C35.6562 12.9544 35.6776 12.9657 35.6926 12.9828C35.7075 12.9998 35.7149 13.0213 35.7133 13.0431ZM31.3158 15.4996L31.3149 15.5072L31.253 15.862C31.2513 15.8735 31.247 15.8845 31.2406 15.8945C31.2341 15.9045 31.2255 15.9132 31.2153 15.9201C31.205 15.927 31.1934 15.932 31.181 15.9347C31.1687 15.9375 31.1558 15.938 31.1433 15.9362C31.1307 15.9344 31.1186 15.9303 31.1078 15.9242C31.097 15.9181 31.0876 15.9101 31.0803 15.9006C31.0729 15.8912 31.0676 15.8805 31.0649 15.8692C31.0621 15.8579 31.0618 15.8462 31.0641 15.8348L31.1259 15.48C31.13 15.458 31.1432 15.4383 31.1627 15.4249C31.1823 15.4115 31.2067 15.4054 31.231 15.4079C31.2554 15.4104 31.2777 15.4213 31.2935 15.4384C31.3092 15.4554 31.3172 15.4773 31.3158 15.4996Z" fill="#4FBA75"/>
<path d="M22.4194 12.5232C23.7204 12.5232 24.775 11.5632 24.775 10.379C24.775 9.19483 23.7204 8.23486 22.4194 8.23486C21.1185 8.23486 20.0639 9.19483 20.0639 10.379C20.0639 11.5632 21.1185 12.5232 22.4194 12.5232Z" fill="#57C984"/>
<path d="M22.2768 12.2646C21.6777 12.227 21.117 11.9826 20.7093 11.5813C20.3016 11.18 20.0777 10.6521 20.0833 10.1055C20.0773 10.1474 20.0725 10.1893 20.0693 10.232C20.0481 10.5129 20.0879 10.7949 20.1864 11.0618C20.2849 11.3287 20.4402 11.5753 20.6434 11.7876C20.8466 11.9999 21.0938 12.1737 21.3708 12.299C21.6478 12.4243 21.9492 12.4987 22.2578 12.518C22.5664 12.5373 22.8762 12.5011 23.1694 12.4114C23.4627 12.3218 23.7336 12.1804 23.9668 11.9954C24.2 11.8104 24.3909 11.5854 24.5286 11.3333C24.6663 11.0811 24.7481 10.8068 24.7693 10.5259C24.7723 10.4834 24.774 10.441 24.7743 10.3991C24.6977 10.9412 24.3965 11.4362 23.9323 11.783C23.4681 12.1297 22.8759 12.302 22.2768 12.2646Z" fill="#4FBA75"/>
<path d="M21.2654 11.1183C21.3712 11.0878 21.4207 10.9591 21.3761 10.8307C21.3314 10.7023 21.2095 10.623 21.1037 10.6534C20.998 10.6839 20.9484 10.8127 20.9931 10.9411C21.0377 11.0694 21.1596 11.1488 21.2654 11.1183Z" fill="#4FBA75"/>
<path d="M22.6392 10.1103C22.6509 9.95518 22.5557 9.82284 22.4266 9.81476C22.2974 9.80669 22.1833 9.92593 22.1715 10.0811C22.1598 10.2363 22.255 10.3686 22.3841 10.3767C22.5133 10.3848 22.6274 10.2655 22.6392 10.1103Z" fill="#4FBA75"/>
<path d="M23.4124 9.26673C23.4813 9.12751 23.4359 8.97319 23.3111 8.92205C23.1863 8.87091 23.0293 8.94231 22.9605 9.08153C22.8916 9.22076 22.937 9.37508 23.0618 9.42622C23.1866 9.47736 23.3436 9.40595 23.4124 9.26673Z" fill="#4FBA75"/>
<path d="M24.0567 10.8518C24.2129 10.7823 24.2907 10.6352 24.2305 10.5233C24.1704 10.4114 23.9951 10.3771 23.8389 10.4466C23.6827 10.5161 23.6049 10.6632 23.6651 10.7751C23.7252 10.887 23.9005 10.9214 24.0567 10.8518Z" fill="#4FBA75"/>
<path d="M22.3384 11.7761C22.4419 11.7761 22.5259 11.6998 22.5259 11.6055C22.5259 11.5113 22.4419 11.4349 22.3384 11.4349C22.2349 11.4349 22.151 11.5113 22.151 11.6055C22.151 11.6998 22.2349 11.7761 22.3384 11.7761Z" fill="#4FBA75"/>
<path d="M21.1221 9.5412C21.2671 9.42618 21.3078 9.25267 21.213 9.15365C21.1182 9.05463 20.9239 9.0676 20.7788 9.18261C20.6338 9.29763 20.5931 9.47114 20.6879 9.57016C20.7827 9.66918 20.9771 9.65622 21.1221 9.5412Z" fill="#4FBA75"/>
<path d="M23.4863 11.567C23.5713 11.567 23.6402 11.5043 23.6402 11.4269C23.6402 11.3495 23.5713 11.2867 23.4863 11.2867C23.4013 11.2867 23.3323 11.3495 23.3323 11.4269C23.3323 11.5043 23.4013 11.567 23.4863 11.567Z" fill="#4FBA75"/>
<path d="M22.1118 9.18358C22.1969 9.18358 22.2658 9.12084 22.2658 9.04345C22.2658 8.96606 22.1969 8.90332 22.1118 8.90332C22.0268 8.90332 21.9579 8.96606 21.9579 9.04345C21.9579 9.12084 22.0268 9.18358 22.1118 9.18358Z" fill="#4FBA75"/>
<path d="M19.3853 11.4208C19.6704 11.304 19.9864 11.2643 20.2955 11.3065L20.0872 10.6823C20.0872 10.6823 20.0118 10.9468 19.2708 11.1631L19.3853 11.4208ZM19.9643 8.47643C20.211 8.65117 20.3971 8.88685 20.5006 9.15532L21.0094 8.69574C21.0094 8.69574 20.7173 8.75887 20.1607 8.26365L19.9643 8.47643ZM22.2616 12.4676C22.1811 12.4625 22.101 12.4537 22.0215 12.4412C22.0918 12.5163 22.2311 12.7332 22.223 13.2646L22.5279 13.2477C22.498 12.9765 22.5524 12.7031 22.6848 12.4586C22.5443 12.473 22.4027 12.4762 22.2616 12.4676ZM23.7009 8.5801C23.8667 8.67826 24.0184 8.795 24.1523 8.92757C24.2396 8.68319 24.3939 8.46311 24.6007 8.28813L24.3633 8.11317C24.1935 8.32097 23.9644 8.48245 23.7009 8.5801ZM25.3826 9.29898C25.0987 9.41781 24.7833 9.45975 24.4739 9.4198L24.6873 10.0426C24.6873 10.0426 24.7603 9.77761 25.4998 9.55585L25.3826 9.29898ZM25.516 11.2078C25.2123 11.1402 24.9365 10.9944 24.7214 10.7879L24.4634 11.3969C24.4634 11.3969 24.7017 11.2303 25.432 11.4752L25.516 11.2078ZM22.9754 7.51428C22.9343 7.79635 22.8049 8.06169 22.6026 8.27861L23.2955 8.44595C23.2955 8.44595 23.0881 8.24868 23.2764 7.56108L22.9754 7.51428ZM21.8724 8.29276C21.7611 8.12398 21.6785 7.94088 21.6272 7.74965L21.3394 7.84216C21.4246 8.02714 21.4594 8.22812 21.441 8.42799C21.5795 8.37026 21.7242 8.32497 21.8724 8.29276ZM23.544 12.2624C23.69 12.388 23.817 12.5307 23.9215 12.6869L24.166 12.5201C24.0377 12.3838 23.9453 12.2226 23.8961 12.0488C23.786 12.1295 23.6681 12.2009 23.544 12.2624ZM21.0952 12.0989C20.9799 12.0271 20.8719 11.9462 20.7723 11.857C20.675 12.0087 20.5572 12.1488 20.4217 12.2739L20.6578 12.4499C20.7723 12.3041 20.9219 12.184 21.0952 12.0989ZM20.0788 10.139C20.0937 10.0179 20.1199 9.89817 20.1571 9.78114C19.9748 9.83788 19.7775 9.84149 19.5928 9.79149L19.5694 9.96563C19.7536 9.97939 19.9299 10.0394 20.0788 10.139Z" fill="#57C984"/>
<path d="M19.4365 11.555C19.4351 11.5723 19.4273 11.5887 19.4144 11.6014C19.4014 11.6142 19.3841 11.6225 19.3652 11.625C19.3463 11.6276 19.3271 11.6242 19.3106 11.6154C19.2942 11.6066 19.2815 11.593 19.2747 11.5768L19.0834 11.1134C19.0792 11.104 19.0771 11.0939 19.0773 11.0837C19.0774 11.0735 19.0798 11.0635 19.0843 11.0542C19.0888 11.0448 19.0953 11.0364 19.1034 11.0294C19.1115 11.0224 19.1211 11.017 19.1315 11.0134C19.142 11.0098 19.1531 11.0082 19.1643 11.0086C19.1755 11.009 19.1864 11.0114 19.1965 11.0158C19.2067 11.0201 19.2157 11.0262 19.2232 11.0338C19.2307 11.0413 19.2364 11.0502 19.2401 11.0598L19.4314 11.5229C19.4356 11.5331 19.4373 11.5441 19.4365 11.555ZM20.3042 8.19104C20.3031 8.20656 20.2967 8.22137 20.286 8.23349L19.9434 8.61797C19.9292 8.63279 19.9092 8.64201 19.8876 8.64369C19.8661 8.64538 19.8446 8.6394 19.8278 8.62701C19.811 8.61462 19.8001 8.59678 19.7974 8.57724C19.7947 8.5577 19.8004 8.53797 19.8134 8.52219L20.1557 8.13771C20.1669 8.1251 20.1822 8.11608 20.1994 8.11195C20.2167 8.10782 20.2349 8.1088 20.2515 8.11475C20.268 8.1207 20.2821 8.1313 20.2916 8.14503C20.3011 8.15875 20.3055 8.17487 20.3042 8.19104ZM24.8159 8.33172C24.8148 8.34555 24.8097 8.35885 24.8009 8.37019C24.7921 8.38153 24.7802 8.39048 24.7662 8.39608C24.7523 8.40168 24.737 8.40371 24.7218 8.40196C24.7067 8.40021 24.6924 8.39474 24.6805 8.38614L24.2551 8.07785C24.2378 8.06522 24.2266 8.04683 24.2242 8.02673C24.2217 8.00662 24.2281 7.98645 24.242 7.97064C24.2559 7.95484 24.2761 7.9447 24.2981 7.94245C24.3202 7.94021 24.3424 7.94604 24.3598 7.95867L24.7848 8.26696C24.7954 8.27469 24.8038 8.28465 24.8092 8.29598C24.8146 8.30731 24.8169 8.3194 24.8159 8.33172ZM25.681 9.64923C25.6797 9.66636 25.6721 9.6826 25.6594 9.6953C25.6467 9.70799 25.6296 9.71641 25.611 9.71919C25.5924 9.72196 25.5733 9.71892 25.5568 9.71057C25.5403 9.70222 25.5274 9.68904 25.5202 9.67317L25.3133 9.2155C25.3091 9.20624 25.307 9.19633 25.307 9.18632C25.3071 9.17632 25.3093 9.16641 25.3135 9.15718C25.3177 9.14794 25.3239 9.13956 25.3317 9.1325C25.3395 9.12544 25.3487 9.11985 25.3589 9.11605C25.3691 9.11224 25.38 9.1103 25.391 9.11032C25.402 9.11035 25.4128 9.11234 25.423 9.1162C25.4331 9.12005 25.4423 9.12568 25.4501 9.13278C25.4578 9.13987 25.464 9.14829 25.4682 9.15754L25.675 9.61521C25.6798 9.62599 25.6819 9.63762 25.681 9.64923ZM25.6401 11.1207C25.6399 11.1239 25.6395 11.1271 25.6389 11.1303L25.5348 11.616C25.5327 11.6258 25.5285 11.6351 25.5225 11.6435C25.5164 11.6518 25.5086 11.659 25.4994 11.6646C25.4903 11.6702 25.4801 11.6741 25.4693 11.6761C25.4585 11.6781 25.4474 11.6781 25.4366 11.6762C25.4258 11.6743 25.4156 11.6705 25.4064 11.665C25.3972 11.6594 25.3893 11.6523 25.3832 11.644C25.377 11.6357 25.3728 11.6264 25.3706 11.6166C25.3684 11.6068 25.3683 11.5967 25.3704 11.5868L25.4744 11.1012C25.4786 11.0822 25.4905 11.0655 25.5078 11.0542C25.525 11.043 25.5463 11.0381 25.5673 11.0406C25.5883 11.0431 25.6075 11.0528 25.621 11.0676C25.6345 11.0825 25.6413 11.1015 25.6401 11.1207ZM24.355 12.4826C24.3541 12.4946 24.3501 12.5062 24.3433 12.5165C24.3366 12.5268 24.3273 12.5355 24.3161 12.5419L23.8564 12.8061C23.8376 12.816 23.8154 12.8189 23.7944 12.8142C23.7734 12.8095 23.7552 12.7976 23.7437 12.7809C23.7321 12.7643 23.7281 12.7442 23.7324 12.7249C23.7368 12.7056 23.7492 12.6886 23.767 12.6774L24.2267 12.4129C24.2398 12.4054 24.2549 12.4013 24.2704 12.4012C24.2859 12.401 24.3011 12.4047 24.3144 12.4119C24.3276 12.4191 24.3385 12.4296 24.3456 12.442C24.3528 12.4545 24.356 12.4686 24.355 12.4826ZM22.7423 13.2682C22.7408 13.2867 22.732 13.3042 22.7174 13.3172C22.7028 13.3302 22.6835 13.3379 22.6631 13.3389L22.1202 13.3634C22.1092 13.3639 22.0982 13.3624 22.0879 13.359C22.0775 13.3557 22.068 13.3505 22.0598 13.3438C22.0433 13.3302 22.0334 13.3112 22.0323 13.291C22.0318 13.281 22.0334 13.271 22.0371 13.2616C22.0408 13.2521 22.0465 13.2434 22.0539 13.236C22.0688 13.221 22.0896 13.212 22.1118 13.211L22.655 13.1865C22.6771 13.1856 22.6988 13.1926 22.7152 13.2062C22.7317 13.2198 22.7415 13.2387 22.7426 13.2589C22.7428 13.262 22.7425 13.2651 22.7423 13.2682ZM20.8327 12.5348C20.8317 12.5489 20.8263 12.5625 20.8173 12.5739C20.8083 12.5854 20.796 12.5944 20.7817 12.5999C20.7674 12.6053 20.7517 12.6071 20.7364 12.6049C20.7211 12.6028 20.7067 12.5968 20.6949 12.5876L20.2809 12.2671C20.264 12.254 20.2535 12.2353 20.2517 12.2152C20.2499 12.195 20.257 12.175 20.2714 12.1596C20.2857 12.1442 20.3063 12.1346 20.3284 12.133C20.3506 12.1314 20.3725 12.1378 20.3894 12.1509L20.8034 12.4717C20.8134 12.4794 20.8212 12.4892 20.8263 12.5001C20.8314 12.5111 20.8336 12.523 20.8327 12.5348ZM21.8404 7.74807C21.8392 7.76447 21.8321 7.78007 21.8203 7.79253C21.8085 7.80499 21.7926 7.81364 21.7749 7.81718L21.2441 7.9233C21.2224 7.92763 21.1997 7.92394 21.181 7.91305C21.1623 7.90215 21.1491 7.88494 21.1444 7.8652C21.1396 7.84547 21.1437 7.82482 21.1556 7.8078C21.1676 7.79078 21.1865 7.77879 21.2082 7.77446L21.7391 7.66834C21.7518 7.66577 21.765 7.66594 21.7776 7.66883C21.7903 7.67172 21.802 7.67726 21.8119 7.685C21.8217 7.69274 21.8295 7.70248 21.8345 7.71343C21.8395 7.72437 21.8413 7.73624 21.8404 7.74807ZM23.4866 7.5663L23.486 7.57256C23.4844 7.58249 23.4806 7.59202 23.4749 7.60062C23.4692 7.60921 23.4617 7.61669 23.4528 7.62263C23.4439 7.62858 23.4338 7.63286 23.4231 7.63524C23.4124 7.63762 23.4012 7.63805 23.3903 7.6365L22.8532 7.56249C22.8312 7.55946 22.8115 7.54862 22.7983 7.53234C22.7851 7.51606 22.7796 7.49568 22.7829 7.47569C22.7863 7.4557 22.7982 7.43774 22.8161 7.42575C22.8339 7.41375 22.8563 7.40872 22.8783 7.41175L23.4157 7.48603C23.4364 7.48892 23.4552 7.49877 23.4683 7.51363C23.4814 7.52849 23.488 7.54728 23.4866 7.5663ZM19.634 9.71834L19.6334 9.72514L19.579 10.0362C19.5774 10.0461 19.5737 10.0557 19.568 10.0644C19.5623 10.073 19.5547 10.0805 19.5458 10.0865C19.5369 10.0925 19.5267 10.0968 19.516 10.0991C19.5052 10.1015 19.494 10.1019 19.4831 10.1003C19.4721 10.0988 19.4616 10.0952 19.4522 10.0899C19.4428 10.0846 19.4346 10.0777 19.4282 10.0695C19.4217 10.0613 19.4171 10.052 19.4147 10.0422C19.4122 10.0323 19.4119 10.0221 19.4137 10.0122L19.4678 9.7012C19.4711 9.68174 19.4826 9.6642 19.4997 9.65225C19.5169 9.6403 19.5385 9.63486 19.56 9.63707C19.5815 9.63929 19.6012 9.64899 19.615 9.66414C19.6288 9.67929 19.6356 9.69871 19.634 9.71834Z" fill="#4FBA75"/>
<path d="M22.3778 30.63C24.5902 30.63 26.3837 28.9974 26.3837 26.9836C26.3837 24.9697 24.5902 23.3372 22.3778 23.3372C20.1655 23.3372 18.3719 24.9697 18.3719 26.9836C18.3719 28.9974 20.1655 30.63 22.3778 30.63Z" fill="#57C984"/>
<path d="M22.1357 30.1905C21.1169 30.1267 20.1632 29.7111 19.4698 29.0286C18.7764 28.3462 18.3955 27.4484 18.4051 26.5188C18.3952 26.5895 18.3872 26.6614 18.3815 26.7338C18.3087 27.6985 18.6599 28.6501 19.3579 29.3792C20.0558 30.1083 21.0434 30.5551 22.1033 30.6214C23.1632 30.6877 24.2086 30.368 25.0095 29.7326C25.8105 29.0973 26.3014 28.1984 26.3742 27.2336C26.3795 27.1617 26.3825 27.0896 26.3831 27.0176C26.2529 27.9396 25.7407 28.7816 24.9512 29.3713C24.1617 29.961 23.1546 30.2542 22.1357 30.1905Z" fill="#4FBA75"/>
<path d="M20.4157 28.2409C20.5956 28.1891 20.6799 27.9701 20.604 27.7517C20.528 27.5334 20.3207 27.3984 20.1407 27.4502C19.9608 27.5021 19.8765 27.7211 19.9525 27.9394C20.0284 28.1578 20.2358 28.2928 20.4157 28.2409Z" fill="#4FBA75"/>
<path d="M22.7518 26.5268C22.7717 26.2629 22.6099 26.0379 22.3903 26.0242C22.1708 26.0104 21.9766 26.2132 21.9567 26.4771C21.9368 26.7409 22.0986 26.966 22.3182 26.9797C22.5377 26.9934 22.7319 26.7907 22.7518 26.5268Z" fill="#4FBA75"/>
<path d="M24.067 25.0922C24.1842 24.8553 24.1071 24.5927 23.8949 24.5057C23.6826 24.4187 23.4155 24.5403 23.2984 24.7772C23.1812 25.0141 23.2583 25.2767 23.4705 25.3637C23.6828 25.4507 23.9498 25.3291 24.067 25.0922Z" fill="#4FBA75"/>
<path d="M25.1623 27.7878C25.4279 27.6696 25.5603 27.4194 25.458 27.2291C25.3557 27.0387 25.0574 26.9803 24.7918 27.0986C24.5262 27.2169 24.3938 27.467 24.4961 27.6574C24.5984 27.8477 24.8967 27.9061 25.1623 27.7878Z" fill="#4FBA75"/>
<path d="M22.2403 29.3601C22.4165 29.3601 22.5593 29.2301 22.5593 29.0697C22.5593 28.9094 22.4165 28.7794 22.2403 28.7794C22.0642 28.7794 21.9214 28.9094 21.9214 29.0697C21.9214 29.2301 22.0642 29.3601 22.2403 29.3601Z" fill="#4FBA75"/>
<path d="M20.1719 25.5589C20.4185 25.3633 20.4877 25.0683 20.3265 24.8999C20.1653 24.7316 19.8348 24.7536 19.5882 24.9492C19.3417 25.1448 19.2724 25.4398 19.4336 25.6082C19.5948 25.7765 19.9253 25.7545 20.1719 25.5589Z" fill="#4FBA75"/>
<path d="M24.1923 29.0042C24.337 29.0042 24.4542 28.8975 24.4542 28.7658C24.4542 28.6342 24.337 28.5275 24.1923 28.5275C24.0477 28.5275 23.9305 28.6342 23.9305 28.7658C23.9305 28.8975 24.0477 29.0042 24.1923 29.0042Z" fill="#4FBA75"/>
<path d="M21.8551 24.951C21.9997 24.951 22.1169 24.8442 22.1169 24.7126C22.1169 24.581 21.9997 24.4742 21.8551 24.4742C21.7104 24.4742 21.5932 24.581 21.5932 24.7126C21.5932 24.8442 21.7104 24.951 21.8551 24.951Z" fill="#4FBA75"/>
<path d="M17.2187 28.7555C17.2187 28.7555 17.679 28.4935 18.7662 28.5615L18.412 27.4998C18.412 27.4998 18.2841 27.9493 17.0235 28.3174L17.2187 28.7555ZM18.2028 23.7483C18.2028 23.7483 18.6727 23.996 19.1148 24.9029L19.9805 24.1214C19.9805 24.1214 19.484 24.2286 18.5373 23.3865L18.2028 23.7483ZM22.1097 30.5351C21.973 30.5266 21.8368 30.5118 21.7017 30.4907C21.8213 30.6186 22.058 30.9873 22.044 31.8909L22.5626 31.8621C22.5626 31.8621 22.443 31.4001 22.8295 30.5206C22.5906 30.5451 22.3497 30.5497 22.1097 30.5351ZM24.5573 23.9244C24.8393 24.0914 25.0971 24.2899 25.3247 24.5154C25.4732 24.1 25.7357 23.726 26.0872 23.4286L25.684 23.1304C25.684 23.1304 25.4412 23.5247 24.5573 23.9244ZM27.4174 25.1472C27.4174 25.1472 26.9595 25.4128 25.8714 25.3526L26.2352 26.4117C26.2352 26.4117 26.3589 25.9611 27.6162 25.5839L27.4174 25.1472ZM27.644 28.3934C27.644 28.3934 27.1039 28.3419 26.2929 27.6794L25.8544 28.7147C25.8544 28.7147 26.2591 28.4317 27.5014 28.848L27.644 28.3934ZM23.3237 22.1119C23.3237 22.1119 23.326 22.6061 22.6899 23.4118L23.868 23.6966C23.868 23.6966 23.5153 23.3609 23.8357 22.1917L23.3237 22.1119ZM21.4476 23.436C21.2586 23.149 21.1184 22.8376 21.0315 22.5125L20.5413 22.6697C20.6863 22.9842 20.7458 23.326 20.7146 23.6659C20.9502 23.5678 21.1956 23.4906 21.4476 23.436ZM24.2904 30.1868C24.5387 30.4001 24.7547 30.6427 24.9325 30.9081L25.348 30.6246C25.1299 30.3929 24.9731 30.1189 24.8894 29.8235C24.7021 29.9608 24.5016 30.0821 24.2904 30.1868ZM20.126 29.909C19.93 29.7868 19.7462 29.649 19.5769 29.4973C19.4115 29.7553 19.2111 29.9934 18.9806 30.2061L19.3826 30.5054C19.5772 30.2576 19.8315 30.0536 20.126 29.909ZM18.398 26.5755C18.4233 26.3697 18.4678 26.1662 18.531 25.9673C18.2209 26.0636 17.8855 26.0696 17.5714 25.9845L17.5314 26.2805C17.8447 26.3039 18.1447 26.406 18.398 26.5755Z" fill="#57C984"/>
<path d="M17.3054 28.9835C17.3032 29.0131 17.29 29.0411 17.2679 29.0629C17.2459 29.0846 17.2162 29.0988 17.184 29.1031C17.1518 29.1074 17.119 29.1016 17.0909 29.0865C17.0629 29.0714 17.0414 29.048 17.0301 29.0202L16.7048 28.2325C16.6916 28.2003 16.6929 28.1646 16.7085 28.1333C16.7241 28.102 16.7527 28.0777 16.7881 28.0656C16.8234 28.0535 16.8626 28.0547 16.897 28.0689C16.9314 28.0831 16.9582 28.1092 16.9715 28.1413L17.2964 28.9291C17.3037 28.9464 17.3068 28.965 17.3054 28.9835ZM18.7815 23.2626C18.7794 23.2892 18.7683 23.3146 18.7498 23.3353L18.1678 23.9891C18.156 24.0023 18.1415 24.0133 18.125 24.0214C18.1086 24.0295 18.0906 24.0346 18.072 24.0364C18.0534 24.0382 18.0346 24.0366 18.0166 24.0317C17.9987 24.0269 17.982 24.0189 17.9675 24.0082C17.953 23.9974 17.9409 23.9842 17.932 23.9693C17.9231 23.9543 17.9175 23.9379 17.9156 23.9209C17.9136 23.904 17.9153 23.8869 17.9207 23.8706C17.926 23.8543 17.9348 23.8391 17.9466 23.8258L18.5286 23.1723C18.5476 23.1508 18.5737 23.1355 18.603 23.1284C18.6322 23.1214 18.6632 23.1231 18.6914 23.1332C18.7196 23.1433 18.7435 23.1613 18.7596 23.1846C18.7758 23.208 18.7833 23.2354 18.7812 23.2629L18.7815 23.2626ZM26.4537 23.5026C26.4519 23.5262 26.4431 23.5488 26.4281 23.5682C26.4132 23.5875 26.3927 23.6027 26.3689 23.6122C26.3452 23.6217 26.319 23.6251 26.2933 23.6221C26.2675 23.619 26.2432 23.6096 26.2229 23.5948L25.4998 23.0702C25.4703 23.0488 25.4513 23.0176 25.4471 22.9834C25.4429 22.9492 25.4537 22.9149 25.4772 22.8881C25.5008 22.8612 25.5351 22.8439 25.5726 22.8401C25.6102 22.8362 25.6478 22.8461 25.6774 22.8675L26.4005 23.3921C26.4185 23.4052 26.4328 23.4221 26.4421 23.4414C26.4513 23.4606 26.4553 23.4816 26.4537 23.5026ZM27.9247 25.7428C27.9225 25.772 27.9096 25.7996 27.8879 25.8212C27.8663 25.8428 27.8373 25.8571 27.8056 25.8618C27.7739 25.8665 27.7414 25.8613 27.7134 25.8471C27.6853 25.8328 27.6634 25.8104 27.6512 25.7833L27.2993 25.0051C27.2855 24.9735 27.2859 24.9381 27.3005 24.9067C27.3151 24.8754 27.3427 24.8505 27.3773 24.8375C27.4119 24.8245 27.4507 24.8244 27.4854 24.8373C27.52 24.8502 27.5477 24.875 27.5624 24.9064L27.9142 25.6846C27.9226 25.703 27.9262 25.7229 27.9247 25.7428ZM27.8551 28.245C27.8546 28.2504 27.8538 28.2558 27.8527 28.2611L27.6763 29.0872C27.6727 29.1039 27.6656 29.1198 27.6552 29.134C27.6449 29.1482 27.6316 29.1604 27.6161 29.1699C27.6006 29.1794 27.5832 29.186 27.5649 29.1894C27.5466 29.1928 27.5277 29.1929 27.5093 29.1896C27.491 29.1864 27.4735 29.1799 27.4579 29.1705C27.4423 29.1611 27.4289 29.149 27.4185 29.1348C27.408 29.1207 27.4007 29.1049 27.397 29.0882C27.3933 29.0715 27.3932 29.0544 27.3968 29.0376L27.5732 28.2116C27.5796 28.1787 27.5996 28.1495 27.6291 28.1298C27.6586 28.1101 27.6954 28.1015 27.7317 28.1058C27.768 28.1101 27.801 28.127 27.824 28.1529C27.847 28.1788 27.8581 28.2118 27.8551 28.245ZM25.6693 30.5611C25.6678 30.5814 25.6611 30.6011 25.6496 30.6186C25.6382 30.6361 25.6224 30.6509 25.6035 30.6618L24.8219 31.1113C24.7899 31.1297 24.7513 31.1358 24.7145 31.1282C24.6777 31.1207 24.6456 31.1001 24.6255 31.071C24.6053 31.042 24.5986 31.0068 24.6069 30.9733C24.6152 30.9398 24.6378 30.9106 24.6697 30.8923L25.4514 30.4428C25.4736 30.4299 25.4993 30.4229 25.5256 30.4226C25.552 30.4223 25.5779 30.4286 25.6005 30.4408C25.6231 30.4531 25.6416 30.4709 25.6538 30.4921C25.666 30.5133 25.6711 30.5372 25.6693 30.5611ZM22.9276 31.8966C22.9252 31.9283 22.9101 31.958 22.8852 31.9803C22.8603 32.0025 22.8273 32.0156 22.7924 32.0171L21.8688 32.0585C21.831 32.0602 21.7941 32.0481 21.7661 32.025C21.7382 32.0019 21.7214 31.9696 21.7196 31.9352C21.7178 31.9009 21.731 31.8673 21.7564 31.8418C21.7818 31.8164 21.8173 31.8011 21.855 31.7995L22.7784 31.7581C22.7971 31.7573 22.8158 31.7598 22.8334 31.7655C22.851 31.7713 22.8672 31.7801 22.8811 31.7916C22.8949 31.803 22.9062 31.8168 22.9141 31.8322C22.9221 31.8477 22.9267 31.8643 22.9276 31.8814C22.9279 31.8864 22.9279 31.8915 22.9276 31.8966ZM19.6797 30.6501C19.678 30.6741 19.6689 30.6971 19.6536 30.7166C19.6383 30.7362 19.6173 30.7515 19.593 30.7608C19.5687 30.7701 19.542 30.7731 19.5159 30.7694C19.4899 30.7657 19.4654 30.7555 19.4454 30.7399L18.7414 30.1943C18.7272 30.1833 18.7155 30.1699 18.707 30.1547C18.6985 30.1396 18.6933 30.123 18.6918 30.1061C18.6903 30.0891 18.6925 30.0721 18.6982 30.0559C18.704 30.0397 18.7132 30.0247 18.7253 30.0118C18.7374 29.9988 18.7522 29.9882 18.7688 29.9804C18.7854 29.9727 18.8036 29.968 18.8222 29.9666C18.8408 29.9652 18.8596 29.9672 18.8774 29.9725C18.8951 29.9777 18.9116 29.986 18.9258 29.9971L19.6298 30.5424C19.6469 30.5555 19.6603 30.5721 19.6689 30.5908C19.6776 30.6095 19.6813 30.6298 19.6797 30.6501ZM21.3935 22.5094C21.3913 22.5374 21.3793 22.5639 21.3592 22.5851C21.3391 22.6063 21.312 22.621 21.282 22.627L20.3792 22.8076C20.361 22.8113 20.3421 22.8117 20.3237 22.8087C20.3053 22.8057 20.2877 22.7995 20.272 22.7903C20.2562 22.7812 20.2426 22.7693 20.2319 22.7553C20.2212 22.7414 20.2136 22.7256 20.2096 22.709C20.2056 22.6924 20.2052 22.6752 20.2084 22.6585C20.2117 22.6417 20.2186 22.6257 20.2286 22.6114C20.2387 22.597 20.2518 22.5846 20.2671 22.5749C20.2824 22.5652 20.2997 22.5583 20.3179 22.5546L21.2207 22.3739C21.2423 22.3696 21.2648 22.3698 21.2862 22.3748C21.3077 22.3797 21.3276 22.3891 21.3444 22.4022C21.3612 22.4154 21.3744 22.4319 21.3829 22.4505C21.3914 22.4692 21.395 22.4893 21.3935 22.5094ZM24.1929 22.2006C24.1927 22.2042 24.1923 22.2079 24.1917 22.2115C24.186 22.2454 24.1657 22.2759 24.1353 22.2962C24.105 22.3166 24.067 22.3251 24.0297 22.32L23.1156 22.1938C23.0789 22.188 23.0461 22.1694 23.0244 22.1419C23.0026 22.1144 22.9935 22.0802 22.9991 22.0467C23.0047 22.0132 23.0245 21.983 23.0543 21.9626C23.0841 21.9423 23.1214 21.9333 23.1583 21.9377L24.0724 22.0637C24.1077 22.0686 24.1397 22.0854 24.162 22.1108C24.1843 22.1361 24.1953 22.1682 24.1929 22.2006ZM17.6414 25.8603C17.6411 25.8642 17.6407 25.868 17.6402 25.8718L17.5475 26.4005C17.5448 26.4175 17.5384 26.4338 17.5287 26.4485C17.519 26.4633 17.5062 26.4761 17.491 26.4863C17.4758 26.4964 17.4586 26.5038 17.4402 26.5078C17.4219 26.5119 17.4029 26.5126 17.3842 26.5099C17.3656 26.5072 17.3478 26.5011 17.3317 26.4921C17.3157 26.483 17.3018 26.4712 17.2908 26.4572C17.2799 26.4432 17.2721 26.4274 17.2679 26.4106C17.2637 26.3939 17.2633 26.3766 17.2665 26.3596L17.3589 25.8312C17.3647 25.7984 17.3842 25.7688 17.4133 25.7486C17.4424 25.7285 17.4789 25.7193 17.5152 25.723C17.5516 25.7268 17.5849 25.7431 17.6084 25.7686C17.6319 25.7941 17.6437 25.8271 17.6414 25.8603Z" fill="#4FBA75"/>
<path d="M34.6323 30.1198C35.0556 30.1198 35.3987 29.8075 35.3987 29.4221C35.3987 29.0368 35.0556 28.7245 34.6323 28.7245C34.209 28.7245 33.8658 29.0368 33.8658 29.4221C33.8658 29.8075 34.209 30.1198 34.6323 30.1198Z" fill="#3CA05D"/>
<path d="M24.714 19.7661C25.0985 19.7661 25.4102 19.4824 25.4102 19.1324C25.4102 18.7824 25.0985 18.4987 24.714 18.4987C24.3295 18.4987 24.0178 18.7824 24.0178 19.1324C24.0178 19.4824 24.3295 19.7661 24.714 19.7661Z" fill="#3CA05D"/>
<path d="M10.2098 24.4566C10.6265 24.4566 10.9643 24.1491 10.9643 23.7698C10.9643 23.3905 10.6265 23.083 10.2098 23.083C9.79312 23.083 9.45532 23.3905 9.45532 23.7698C9.45532 24.1491 9.79312 24.4566 10.2098 24.4566Z" fill="#3CA05D"/>
<path d="M69.0605 47.5442C70.5455 47.5442 71.7493 46.4484 71.7493 45.0967C71.7493 43.745 70.5455 42.6492 69.0605 42.6492C67.5755 42.6492 66.3716 43.745 66.3716 45.0967C66.3716 46.4484 67.5755 47.5442 69.0605 47.5442Z" fill="#57C984"/>
<path d="M68.8757 42.9455C69.5592 42.8969 70.2372 43.0877 70.7711 43.479C71.3051 43.8704 71.6547 44.4326 71.7484 45.0507C71.7476 45.0024 71.7452 44.9541 71.7412 44.9059C71.7137 44.5855 71.6171 44.2731 71.457 43.9866C71.2968 43.7002 71.0763 43.4452 70.8079 43.2363C70.5395 43.0275 70.2285 42.8687 69.8927 42.7692C69.557 42.6698 69.203 42.6314 68.8509 42.6565C68.4989 42.6815 68.1557 42.7695 67.841 42.9152C67.5263 43.061 67.2462 43.2618 67.0167 43.5061C66.7872 43.7504 66.6129 44.0334 66.5036 44.3391C66.3943 44.6447 66.3522 44.967 66.3797 45.2874C66.3839 45.3359 66.3902 45.384 66.3973 45.4316C66.3843 44.8077 66.6337 44.2029 67.0944 43.7407C67.555 43.2786 68.1923 42.9941 68.8757 42.9455Z" fill="#4FBA75"/>
<path d="M70.4959 44.5873C70.6097 44.5368 70.6421 44.3838 70.5681 44.2456C70.4942 44.1074 70.342 44.0363 70.2281 44.0867C70.1143 44.1372 70.0819 44.2901 70.1558 44.4284C70.2298 44.5666 70.382 44.6377 70.4959 44.5873Z" fill="#4FBA75"/>
<path d="M69.1555 45.7349C69.3028 45.7244 69.4099 45.5723 69.3947 45.3952C69.3795 45.2181 69.2478 45.0831 69.1005 45.0936C68.9532 45.1041 68.8461 45.2561 68.8613 45.4332C68.8765 45.6103 69.0082 45.7453 69.1555 45.7349Z" fill="#4FBA75"/>
<path d="M68.6871 46.6442C68.7393 46.4765 68.6599 46.3091 68.5096 46.2703C68.3594 46.2315 68.1952 46.336 68.143 46.5037C68.0907 46.6714 68.1701 46.8388 68.3204 46.8776C68.4706 46.9164 68.6348 46.8119 68.6871 46.6442Z" fill="#4FBA75"/>
<path d="M67.4449 45.2359C67.6085 45.1337 67.6695 44.9558 67.5811 44.8386C67.4927 44.7214 67.2884 44.7092 67.1248 44.8115C66.9612 44.9137 66.9003 45.0916 66.9887 45.2088C67.0771 45.326 67.2813 45.3381 67.4449 45.2359Z" fill="#4FBA75"/>
<path d="M68.9272 43.894C69.0454 43.894 69.1412 43.8068 69.1412 43.6992C69.1412 43.5916 69.0454 43.5044 68.9272 43.5044C68.809 43.5044 68.7131 43.5916 68.7131 43.6992C68.7131 43.8068 68.809 43.894 68.9272 43.894Z" fill="#4FBA75"/>
<path d="M71.1318 46.1983C71.2745 46.0463 71.2888 45.8443 71.1637 45.7469C71.0385 45.6495 70.8215 45.6938 70.6788 45.8457C70.5361 45.9976 70.5218 46.1997 70.6469 46.297C70.772 46.3944 70.9891 46.3502 71.1318 46.1983Z" fill="#4FBA75"/>
<path d="M67.6636 44.2353C67.7606 44.2353 67.8393 44.1636 67.8393 44.0753C67.8393 43.9869 67.7606 43.9153 67.6636 43.9153C67.5665 43.9153 67.4878 43.9869 67.4878 44.0753C67.4878 44.1636 67.5665 44.2353 67.6636 44.2353Z" fill="#4FBA75"/>
<path d="M69.6523 46.7182C69.7494 46.7182 69.8281 46.6465 69.8281 46.5582C69.8281 46.4698 69.7494 46.3982 69.6523 46.3982C69.5553 46.3982 69.4766 46.4698 69.4766 46.5582C69.4766 46.6465 69.5553 46.7182 69.6523 46.7182Z" fill="#4FBA75"/>
<path d="M72.2954 43.4597C71.9949 43.6347 71.6454 43.7273 71.2886 43.7264L71.6384 44.4001C71.6384 44.4001 71.6748 44.0899 72.4724 43.7332L72.2954 43.4597ZM72.1815 46.8724C71.8709 46.7126 71.6173 46.4747 71.4512 46.1873L70.961 46.7832C70.961 46.7832 71.2791 46.6678 71.9983 47.1423L72.1815 46.8724ZM68.856 42.7142C68.9476 42.7077 69.0396 42.7054 69.1316 42.7074C69.0386 42.6334 68.8416 42.4097 68.7534 41.8083L68.4124 41.8737C68.4956 42.1753 68.4842 42.4921 68.3795 42.7882C68.5356 42.7507 68.695 42.726 68.856 42.7144V42.7142ZM67.9427 47.3227C67.7375 47.2371 67.5449 47.1283 67.3694 46.9989C67.3155 47.288 67.1815 47.5597 66.9802 47.7886L67.28 47.9505C67.4338 47.69 67.663 47.4729 67.9427 47.3227ZM65.9118 46.766C66.2108 46.5887 66.5595 46.4935 66.9162 46.4917L66.5605 45.8207C66.5605 45.8207 66.527 46.1309 65.7325 46.4936L65.9118 46.766ZM65.4117 44.6306C65.767 44.6609 66.105 44.7837 66.3856 44.9843L66.5653 44.2578C66.5653 44.2578 66.3271 44.4815 65.4572 44.316L65.4117 44.6306ZM68.9573 48.416C68.952 48.0913 69.0496 47.772 69.2383 47.4963L68.4252 47.4122C68.4252 47.4122 68.6954 47.6038 68.6088 48.4089L68.9573 48.416ZM70.0603 47.3693C70.2168 47.543 70.3436 47.7373 70.4364 47.9456L70.7446 47.7973C70.6145 47.6014 70.5383 47.3798 70.5225 47.1513C70.3766 47.2375 70.2218 47.3105 70.0603 47.3693ZM67.4453 43.1403C67.2575 43.0208 67.088 42.8789 66.9413 42.7185L66.6956 42.9441C66.8655 43.0785 66.9992 43.2465 67.0866 43.4352C67.1963 43.3273 67.3163 43.2286 67.4453 43.1403ZM70.2406 42.9533C70.3839 43.0169 70.5208 43.092 70.6495 43.1776C70.7316 42.9914 70.8391 42.8153 70.9694 42.6535L70.6698 42.4905C70.5674 42.6725 70.4206 42.831 70.2406 42.9533ZM71.7472 45.0123C71.7526 45.1512 71.745 45.2903 71.7245 45.4281C71.9201 45.3364 72.1422 45.3024 72.36 45.331L72.3543 45.131C72.1439 45.1433 71.9338 45.1022 71.7475 45.0123H71.7472Z" fill="#57C984"/>
<path d="M72.2135 43.3158C72.212 43.2961 72.2178 43.2764 72.2302 43.2601C72.2425 43.2438 72.2605 43.2319 72.2814 43.2262C72.3022 43.2205 72.3245 43.2214 72.3447 43.2288C72.3648 43.2362 72.3816 43.2496 72.3923 43.2668L72.693 43.7609C72.6991 43.771 72.7029 43.782 72.7044 43.7933C72.7058 43.8047 72.7047 43.8162 72.7012 43.8272C72.6978 43.8382 72.692 43.8484 72.6841 43.8574C72.6763 43.8663 72.6666 43.8738 72.6556 43.8793C72.6446 43.8849 72.6326 43.8884 72.6201 43.8897C72.6076 43.8909 72.595 43.89 72.5829 43.8868C72.5708 43.8837 72.5595 43.8784 72.5497 43.8712C72.5399 43.8641 72.5317 43.8553 72.5256 43.8453L72.2252 43.3512C72.2184 43.3403 72.2146 43.3282 72.2135 43.3158ZM71.8497 47.2465C71.8481 47.2287 71.8526 47.2108 71.8626 47.1954L72.1788 46.7094C72.1923 46.6907 72.2133 46.6774 72.2373 46.6723C72.2612 46.6673 72.2865 46.6708 72.3076 46.6822C72.3288 46.6937 72.3443 46.7121 72.351 46.7337C72.3576 46.7553 72.3548 46.7783 72.3433 46.7981L72.027 47.2841C72.0166 47.2999 72.0009 47.3122 71.9823 47.3194C71.9637 47.3265 71.943 47.3282 71.9234 47.324C71.9037 47.3198 71.8859 47.3101 71.8727 47.2962C71.8595 47.2823 71.8514 47.2649 71.8497 47.2465ZM66.7291 47.7722C66.7278 47.7565 66.7313 47.7406 66.7391 47.7265C66.747 47.7124 66.7589 47.7005 66.7736 47.692C66.7884 47.6836 66.8053 47.679 66.8227 47.6787C66.8401 47.6784 66.8573 47.6824 66.8723 47.6903L67.4089 47.9739C67.4297 47.986 67.4445 48.0049 67.4503 48.0267C67.4561 48.0485 67.4525 48.0715 67.4401 48.0909C67.4277 48.1104 67.4076 48.1247 67.3839 48.1309C67.3602 48.1371 67.3348 48.1348 67.3129 48.1243L66.7764 47.8405C66.763 47.8335 66.7516 47.8236 66.7434 47.8117C66.7351 47.7998 66.7304 47.7863 66.7291 47.7722ZM65.5107 46.4158C65.509 46.3962 65.5146 46.3767 65.5267 46.3604C65.5387 46.344 65.5565 46.3319 65.5771 46.3259C65.5976 46.32 65.6198 46.3205 65.64 46.3275C65.6602 46.3345 65.6772 46.3475 65.6883 46.3644L66.0054 46.8498C66.0168 46.8695 66.0194 46.8925 66.0127 46.9139C66.006 46.9353 65.9906 46.9536 65.9696 46.965C65.9486 46.9763 65.9236 46.98 65.8997 46.9751C65.8759 46.9703 65.855 46.9573 65.8413 46.9388L65.5239 46.4534C65.5164 46.4419 65.5119 46.4291 65.5107 46.4158ZM65.2874 44.7479C65.2872 44.7442 65.2872 44.7406 65.2874 44.737L65.3155 44.1729C65.3157 44.1612 65.3184 44.1497 65.3236 44.139C65.3287 44.1283 65.3362 44.1187 65.3455 44.1107C65.3548 44.1027 65.3658 44.0964 65.3779 44.0924C65.3899 44.0883 65.4027 44.0865 65.4155 44.087C65.4283 44.0876 65.4409 44.0904 65.4524 44.0955C65.464 44.1005 65.4744 44.1076 65.4828 44.1164C65.4913 44.1251 65.4978 44.1353 65.5019 44.1464C65.506 44.1575 65.5075 44.1692 65.5065 44.1808L65.4781 44.7451C65.4766 44.767 65.4661 44.7876 65.4487 44.8027C65.4313 44.8179 65.4082 44.8265 65.3842 44.8268C65.3601 44.8272 65.3367 44.8192 65.3188 44.8046C65.3009 44.7899 65.2897 44.7697 65.2874 44.7479ZM66.4894 43.0149C66.4882 43.0012 66.4906 42.9876 66.4963 42.975C66.502 42.9623 66.5109 42.9511 66.5223 42.9422L66.9928 42.5738C67.0121 42.5597 67.0368 42.5529 67.0614 42.555C67.0861 42.5571 67.109 42.5678 67.1251 42.585C67.1413 42.6021 67.1495 42.6242 67.1481 42.6468C67.1467 42.6693 67.1357 42.6905 67.1174 42.7057L66.6469 43.0739C66.6335 43.0843 66.6172 43.0912 66.5998 43.0937C66.5824 43.0963 66.5646 43.0944 66.5483 43.0883C66.532 43.0822 66.5179 43.0721 66.5075 43.0591C66.4971 43.0462 66.4908 43.0308 66.4894 43.0149ZM68.1664 41.8832C68.1646 41.862 68.1714 41.841 68.1855 41.824C68.1996 41.8071 68.22 41.7954 68.2429 41.7912L68.8515 41.6813C68.8758 41.6779 68.9007 41.6832 68.9208 41.6961C68.941 41.7089 68.9549 41.7284 68.9597 41.7503C68.9645 41.7723 68.9599 41.7951 68.9467 41.8141C68.9335 41.833 68.9128 41.8465 68.8889 41.8519L68.28 41.9618C68.2552 41.9662 68.2294 41.9615 68.2084 41.9487C68.1874 41.9359 68.1728 41.9161 68.1679 41.8935C68.1671 41.8901 68.1666 41.8867 68.1664 41.8832ZM70.457 42.4211C70.4557 42.4051 70.4593 42.389 70.4674 42.3747C70.4756 42.3604 70.4879 42.3484 70.503 42.3401C70.5182 42.3318 70.5355 42.3274 70.5532 42.3276C70.5709 42.3277 70.5882 42.3323 70.6032 42.3409L71.1293 42.6402C71.1495 42.6529 71.1636 42.6723 71.1685 42.6942C71.1735 42.7161 71.169 42.7389 71.1559 42.7579C71.1429 42.7769 71.1223 42.7906 71.0985 42.7961C71.0747 42.8016 71.0494 42.7986 71.028 42.7876L70.5019 42.4883C70.4891 42.4811 70.4784 42.4713 70.4706 42.4596C70.4628 42.4479 70.4582 42.4348 70.457 42.4211ZM70.1961 47.9799C70.1945 47.9611 70.1996 47.9424 70.2106 47.9265C70.2216 47.9106 70.2381 47.8984 70.2574 47.8917L70.8376 47.6912C70.8494 47.6866 70.8621 47.6843 70.875 47.6844C70.8878 47.6845 70.9005 47.6869 70.9123 47.6915C70.9241 47.6961 70.9347 47.7028 70.9436 47.7112C70.9525 47.7197 70.9594 47.7297 70.9639 47.7406C70.9685 47.7515 70.9706 47.7631 70.9701 47.7748C70.9696 47.7865 70.9665 47.7979 70.9611 47.8085C70.9556 47.8191 70.9479 47.8286 70.9383 47.8363C70.9288 47.8441 70.9176 47.8501 70.9054 47.8539L70.3255 48.0544C70.3116 48.0592 70.2967 48.061 70.2819 48.0597C70.2671 48.0583 70.2528 48.0539 70.2403 48.0466C70.2277 48.0394 70.2172 48.0296 70.2095 48.018C70.2018 48.0064 70.1972 47.9933 70.1961 47.9799ZM68.3702 48.4348V48.4275C68.3704 48.4045 68.3805 48.3825 68.3985 48.3662C68.4164 48.35 68.4406 48.3409 68.4659 48.3409L69.0868 48.3431C69.1121 48.3432 69.1364 48.3525 69.1543 48.3689C69.1721 48.3853 69.1821 48.4075 69.182 48.4306C69.1818 48.4537 69.1717 48.4758 69.1536 48.492C69.1356 48.5083 69.1112 48.5174 69.0859 48.5173L68.4653 48.5148C68.4414 48.5147 68.4184 48.5064 68.4008 48.4916C68.3833 48.4768 68.3722 48.4565 68.3702 48.4348ZM72.3265 45.4199V45.4121L72.3307 45.0529C72.3308 45.0414 72.3334 45.0301 72.3384 45.0196C72.3433 45.0091 72.3505 44.9996 72.3595 44.9916C72.3684 44.9836 72.3791 44.9773 72.3907 44.973C72.4024 44.9688 72.4148 44.9666 72.4274 44.9668C72.44 44.9669 72.4524 44.9693 72.4639 44.9738C72.4755 44.9782 72.4859 44.9848 72.4947 44.9929C72.5035 45.0011 72.5105 45.0108 72.5151 45.0214C72.5198 45.032 72.5221 45.0434 72.522 45.0548L72.5175 45.414C72.5173 45.4364 72.5076 45.4579 72.4903 45.4739C72.4731 45.49 72.4498 45.4994 72.4252 45.5001C72.4005 45.5009 72.3765 45.493 72.3582 45.4781C72.3398 45.4631 72.3284 45.4423 72.3265 45.4199Z" fill="#4FBA75"/>
<path d="M81.9495 51.4465C83.2505 51.4465 84.3051 50.4865 84.3051 49.3024C84.3051 48.1182 83.2505 47.1582 81.9495 47.1582C80.6486 47.1582 79.594 48.1182 79.594 49.3024C79.594 50.4865 80.6486 51.4465 81.9495 51.4465Z" fill="#57C984"/>
<path d="M81.7875 47.418C82.3863 47.3754 82.9803 47.5425 83.4481 47.8854C83.916 48.2282 84.2223 48.7207 84.3045 49.2622C84.3036 49.2198 84.3014 49.1775 84.2979 49.1352C84.274 48.8543 84.1896 48.5804 84.0494 48.3292C83.9092 48.078 83.716 47.8545 83.4808 47.6713C83.2457 47.4881 82.9731 47.3489 82.6788 47.2617C82.3845 47.1744 82.0742 47.1408 81.7657 47.1628C81.4571 47.1848 81.1563 47.2619 80.8805 47.3897C80.6047 47.5176 80.3592 47.6936 80.1582 47.9079C79.9572 48.1221 79.8045 48.3703 79.7089 48.6383C79.6134 48.9062 79.5767 49.1887 79.6012 49.4696C79.6047 49.512 79.6101 49.5539 79.6164 49.5958C79.6051 49.0493 79.8236 48.5195 80.2271 48.1147C80.6307 47.7099 81.1888 47.4607 81.7875 47.418Z" fill="#4FBA75"/>
<path d="M83.2069 48.8559C83.3066 48.8117 83.335 48.6777 83.2702 48.5567C83.2055 48.4356 83.0721 48.3733 82.9724 48.4175C82.8726 48.4617 82.8442 48.5957 82.909 48.7168C82.9738 48.8378 83.1071 48.9001 83.2069 48.8559Z" fill="#4FBA75"/>
<path d="M82.0328 49.8614C82.1619 49.8523 82.2557 49.7191 82.2424 49.564C82.2291 49.409 82.1137 49.2907 81.9846 49.2999C81.8556 49.3091 81.7618 49.4422 81.7751 49.5973C81.7884 49.7524 81.9038 49.8706 82.0328 49.8614Z" fill="#4FBA75"/>
<path d="M81.6224 50.6579C81.6681 50.5111 81.5985 50.3644 81.4668 50.3304C81.3352 50.2964 81.1913 50.3879 81.1456 50.5348C81.0998 50.6817 81.1694 50.8283 81.3011 50.8623C81.4328 50.8963 81.5766 50.8048 81.6224 50.6579Z" fill="#4FBA75"/>
<path d="M80.5341 49.4244C80.6775 49.3348 80.7309 49.1789 80.6534 49.0762C80.5759 48.9735 80.397 48.9629 80.2536 49.0524C80.1103 49.142 80.0569 49.2979 80.1344 49.4006C80.2119 49.5033 80.3908 49.5139 80.5341 49.4244Z" fill="#4FBA75"/>
<path d="M81.8326 48.2487C81.9361 48.2487 82.0201 48.1723 82.0201 48.0781C82.0201 47.9839 81.9361 47.9075 81.8326 47.9075C81.7291 47.9075 81.6452 47.9839 81.6452 48.0781C81.6452 48.1723 81.7291 48.2487 81.8326 48.2487Z" fill="#4FBA75"/>
<path d="M83.7644 50.2677C83.8894 50.1347 83.9018 49.9576 83.7921 49.8723C83.6824 49.7869 83.4922 49.8256 83.3672 49.9587C83.2422 50.0917 83.2298 50.2688 83.3395 50.3541C83.4492 50.4395 83.6394 50.4008 83.7644 50.2677Z" fill="#4FBA75"/>
<path d="M80.7257 48.5477C80.8108 48.5477 80.8797 48.485 80.8797 48.4076C80.8797 48.3302 80.8108 48.2675 80.7257 48.2675C80.6407 48.2675 80.5718 48.3302 80.5718 48.4076C80.5718 48.485 80.6407 48.5477 80.7257 48.5477Z" fill="#4FBA75"/>
<path d="M82.4679 50.7226C82.5529 50.7226 82.6218 50.6599 82.6218 50.5825C82.6218 50.5051 82.5529 50.4424 82.4679 50.4424C82.3828 50.4424 82.3139 50.5051 82.3139 50.5825C82.3139 50.6599 82.3828 50.7226 82.4679 50.7226Z" fill="#4FBA75"/>
<path d="M84.7833 47.8684C84.5202 48.0218 84.214 48.1031 83.9015 48.1024L84.2079 48.6923C84.2079 48.6923 84.2399 48.4205 84.9385 48.1078L84.7833 47.8684ZM84.6835 50.8582C84.4113 50.7181 84.1892 50.5096 84.0438 50.2577L83.6142 50.7801C83.6142 50.7801 83.8931 50.6789 84.523 51.0949L84.6835 50.8582ZM81.7702 47.2156C81.8505 47.2098 81.9311 47.2077 82.0117 47.2094C81.9304 47.1443 81.7576 46.9484 81.6805 46.4216L81.3816 46.4788C81.4546 46.7432 81.4447 47.0209 81.3529 47.2804C81.4896 47.2475 81.6292 47.2258 81.7702 47.2156ZM80.9702 51.2528C80.7904 51.1776 80.6217 51.0822 80.468 50.9687C80.4209 51.222 80.3036 51.4601 80.1273 51.6606L80.3897 51.8027C80.5244 51.5744 80.7251 51.3842 80.9702 51.2525V51.2528ZM79.1913 50.7649C79.4532 50.6096 79.7586 50.5262 80.0711 50.5246L79.7596 49.9369C79.7596 49.9369 79.73 50.2087 79.0341 50.5263L79.1913 50.7649ZM78.7528 48.8942C79.0641 48.9208 79.3604 49.0284 79.6062 49.2041L79.7638 48.5674C79.7638 48.5674 79.5548 48.7636 78.7929 48.6186L78.7528 48.8942ZM81.8592 52.2106C81.8545 51.9261 81.9398 51.6464 82.105 51.4049L81.3929 51.3314C81.3929 51.3314 81.6297 51.499 81.5537 52.204L81.8592 52.2106ZM82.8254 51.2936C82.9624 51.4457 83.0735 51.6158 83.1548 51.7981L83.425 51.6683C83.3109 51.4966 83.2441 51.3025 83.2301 51.1023C83.1023 51.1778 82.9668 51.242 82.8254 51.2936ZM80.5347 47.5887C80.37 47.484 80.2214 47.3597 80.0929 47.2192L79.8777 47.4167C80.0264 47.5344 80.1436 47.6816 80.2202 47.8469C80.3163 47.7523 80.4216 47.6661 80.5347 47.5887ZM82.9832 47.4249C83.1088 47.4806 83.2288 47.5463 83.3416 47.6213C83.4134 47.4583 83.5074 47.304 83.6214 47.1623L83.3593 47.0194C83.2695 47.1789 83.1409 47.3176 82.9832 47.4249ZM84.3033 49.2286C84.308 49.3504 84.3013 49.4722 84.2832 49.593C84.4545 49.5126 84.6491 49.4829 84.8398 49.5078L84.835 49.3326C84.6506 49.3434 84.4665 49.3074 84.3033 49.2286Z" fill="#57C984"/>
<path d="M84.7116 47.7426C84.71 47.7252 84.715 47.7079 84.7257 47.6934C84.7365 47.679 84.7523 47.6684 84.7707 47.6633C84.789 47.6583 84.8087 47.6591 84.8264 47.6656C84.8442 47.6722 84.8589 47.6841 84.8682 47.6993L85.1315 48.1322C85.1369 48.141 85.1403 48.1506 85.1415 48.1606C85.1428 48.1705 85.1419 48.1806 85.1388 48.1902C85.1358 48.1998 85.1307 48.2088 85.1239 48.2167C85.1171 48.2245 85.1086 48.2311 85.099 48.2359C85.0894 48.2408 85.0788 48.2439 85.0678 48.245C85.0569 48.2461 85.0459 48.2453 85.0353 48.2426C85.0247 48.2398 85.0148 48.2352 85.0062 48.2289C84.9976 48.2227 84.9904 48.215 84.9851 48.2063L84.722 47.7733C84.7161 47.7638 84.7125 47.7532 84.7116 47.7423V47.7426ZM84.3926 51.1857C84.3915 51.1701 84.3956 51.1545 84.4046 51.1411L84.6814 50.7153C84.6928 50.6982 84.7112 50.6858 84.7326 50.681C84.7539 50.6761 84.7765 50.6791 84.7955 50.6893C84.8144 50.6995 84.8282 50.7161 84.8338 50.7355C84.8394 50.7548 84.8364 50.7755 84.8255 50.7928L84.5483 51.2187C84.5393 51.2326 84.5256 51.2435 84.5092 51.2499C84.4929 51.2562 84.4747 51.2577 84.4574 51.254C84.4401 51.2504 84.4245 51.2418 84.4129 51.2295C84.4013 51.2172 84.3943 51.2019 84.3929 51.1857H84.3926ZM79.9069 51.6461C79.9058 51.6323 79.9088 51.6184 79.9157 51.6061C79.9226 51.5937 79.9331 51.5832 79.946 51.5759C79.9589 51.5685 79.9738 51.5645 79.989 51.5643C80.0043 51.564 80.0193 51.5676 80.0325 51.5746L80.5024 51.823C80.5119 51.828 80.5203 51.8347 80.5269 51.8426C80.5336 51.8505 80.5385 51.8596 80.5414 51.8693C80.5442 51.8789 80.545 51.889 80.5435 51.8989C80.5421 51.9089 80.5385 51.9184 80.533 51.9271C80.5275 51.9357 80.5202 51.9433 80.5115 51.9494C80.5028 51.9555 80.4928 51.96 80.4822 51.9626C80.4716 51.9652 80.4605 51.9658 80.4496 51.9645C80.4387 51.9632 80.4282 51.96 80.4187 51.955L79.9482 51.7063C79.9365 51.7001 79.9267 51.6914 79.9195 51.681C79.9123 51.6705 79.908 51.6587 79.9069 51.6464V51.6461ZM78.8398 50.4582C78.8382 50.441 78.843 50.4238 78.8536 50.4095C78.8641 50.3951 78.8797 50.3844 78.8977 50.3792C78.9158 50.374 78.9352 50.3744 78.953 50.3806C78.9707 50.3867 78.9856 50.3981 78.9952 50.413L79.2732 50.8383C79.2836 50.8556 79.2862 50.8759 79.2804 50.8949C79.2747 50.9139 79.2611 50.9301 79.2425 50.9402C79.2239 50.9503 79.2017 50.9534 79.1806 50.9489C79.1595 50.9444 79.1412 50.9326 79.1294 50.9161L78.8514 50.4911C78.8447 50.481 78.8406 50.4696 78.8395 50.4579L78.8398 50.4582ZM78.6443 48.997C78.644 48.9938 78.6439 48.9906 78.644 48.9875L78.6688 48.493C78.6698 48.4728 78.6796 48.4538 78.696 48.4402C78.7125 48.4266 78.7342 48.4195 78.7564 48.4204C78.7786 48.4213 78.7994 48.4303 78.8144 48.4452C78.8294 48.4602 78.8372 48.4799 78.8362 48.5001L78.8111 48.9945C78.8097 49.0136 78.8004 49.0315 78.7852 49.0447C78.77 49.0578 78.7499 49.0653 78.7289 49.0656C78.7079 49.0659 78.6876 49.059 78.6719 49.0463C78.6562 49.0336 78.6463 49.016 78.6443 48.997ZM79.6971 47.4787C79.696 47.4667 79.6981 47.4548 79.7031 47.4437C79.7081 47.4326 79.7158 47.4228 79.7258 47.415L80.1383 47.0923C80.1466 47.0858 80.1563 47.0808 80.1668 47.0777C80.1772 47.0746 80.1882 47.0733 80.1992 47.0741C80.2102 47.0749 80.2208 47.0776 80.2307 47.0821C80.2405 47.0866 80.2492 47.0928 80.2564 47.1004C80.2635 47.108 80.269 47.1168 80.2724 47.1263C80.2758 47.1359 80.2772 47.1459 80.2763 47.1559C80.2755 47.1659 80.2725 47.1756 80.2676 47.1845C80.2626 47.1934 80.2557 47.2014 80.2474 47.2079L79.8349 47.5304C79.8232 47.5395 79.8089 47.5455 79.7937 47.5477C79.7785 47.5499 79.7629 47.5482 79.7486 47.5429C79.7344 47.5375 79.722 47.5287 79.7129 47.5174C79.7038 47.506 79.6983 47.4926 79.6971 47.4787ZM81.166 46.4874C81.1644 46.4688 81.1704 46.4503 81.1828 46.4355C81.1952 46.4207 81.2132 46.4105 81.2333 46.4069L81.7665 46.3105C81.7883 46.3066 81.811 46.3107 81.8294 46.322C81.8479 46.3332 81.8607 46.3507 81.865 46.3705C81.8694 46.3904 81.8648 46.411 81.8525 46.4278C81.8401 46.4446 81.8209 46.4563 81.7991 46.4602L81.2658 46.5562C81.255 46.5582 81.2439 46.5582 81.2331 46.5563C81.2223 46.5544 81.212 46.5505 81.2029 46.545C81.1937 46.5394 81.1858 46.5322 81.1797 46.5239C81.1736 46.5156 81.1693 46.5062 81.1672 46.4964C81.1666 46.4934 81.1662 46.4904 81.166 46.4874ZM83.173 46.9587C83.1717 46.9446 83.1748 46.9304 83.1818 46.9178C83.1889 46.9052 83.1997 46.8947 83.213 46.8873C83.2262 46.88 83.2415 46.8762 83.257 46.8763C83.2726 46.8764 83.2878 46.8804 83.3009 46.8879L83.7619 47.1502C83.7807 47.161 83.7941 47.178 83.7991 47.1977C83.8041 47.2174 83.8003 47.2381 83.7885 47.2553C83.7767 47.2724 83.7579 47.2846 83.7363 47.2891C83.7147 47.2937 83.6919 47.2902 83.6731 47.2795L83.2122 47.0175C83.201 47.0111 83.1917 47.0025 83.1849 46.9923C83.1781 46.9821 83.174 46.9706 83.173 46.9587ZM82.9443 51.8282C82.9429 51.8118 82.9475 51.7954 82.9571 51.7815C82.9668 51.7676 82.9812 51.757 82.9981 51.7512L83.5063 51.5754C83.5271 51.5682 83.5501 51.5688 83.5704 51.5771C83.5906 51.5854 83.6065 51.6007 83.6144 51.6196C83.6222 51.6385 83.6216 51.6595 83.6124 51.6779C83.6033 51.6964 83.5865 51.7108 83.5658 51.718L83.0576 51.8935C83.0454 51.8977 83.0324 51.8993 83.0194 51.8981C83.0065 51.8969 82.994 51.893 82.983 51.8867C82.972 51.8803 82.9628 51.8717 82.956 51.8616C82.9493 51.8514 82.9453 51.84 82.9443 51.8282ZM81.3451 52.2268L81.3448 52.2205C81.3448 52.2003 81.3536 52.181 81.3693 52.1667C81.385 52.1524 81.4063 52.1444 81.4285 52.1444L81.9725 52.1465C81.9947 52.1466 82.0159 52.1548 82.0316 52.1691C82.0472 52.1835 82.0559 52.2029 82.0558 52.2231C82.0556 52.2433 82.0467 52.2627 82.0309 52.2769C82.0151 52.2911 81.9938 52.299 81.9716 52.2989L81.4282 52.297C81.4072 52.2969 81.387 52.2897 81.3716 52.2767C81.3562 52.2637 81.3467 52.2459 81.3451 52.2268ZM84.8108 49.5855L84.8105 49.5787L84.8144 49.2639C84.8145 49.2539 84.8168 49.244 84.8211 49.2348C84.8254 49.2256 84.8317 49.2173 84.8395 49.2103C84.8474 49.2033 84.8567 49.1978 84.8669 49.194C84.8771 49.1903 84.888 49.1884 84.899 49.1885C84.91 49.1886 84.9208 49.1907 84.9309 49.1946C84.9411 49.1986 84.9502 49.2043 84.9579 49.2114C84.9656 49.2186 84.9717 49.227 84.9758 49.2363C84.9799 49.2456 84.9819 49.2555 84.9818 49.2655L84.9779 49.5804C84.9787 49.6006 84.9706 49.6202 84.9555 49.635C84.9404 49.6498 84.9194 49.6585 84.8972 49.6593C84.875 49.66 84.8534 49.6527 84.8371 49.6389C84.8209 49.6251 84.8113 49.606 84.8105 49.5858L84.8108 49.5855Z" fill="#4FBA75"/>
<path d="M79.3252 36.5168C81.5376 36.5168 83.3311 34.8843 83.3311 32.8704C83.3311 30.8566 81.5376 29.224 79.3252 29.224C77.1128 29.224 75.3193 30.8566 75.3193 32.8704C75.3193 34.8843 77.1128 36.5168 79.3252 36.5168Z" fill="#57C984"/>
<path d="M79.0502 29.6657C80.0684 29.5933 81.0784 29.8777 81.8739 30.4606C82.6694 31.0436 83.1902 31.8811 83.3299 32.8019C83.3286 32.7299 83.3249 32.658 83.3189 32.5861C83.2361 31.622 82.7359 30.7273 81.9284 30.0989C81.1209 29.4704 80.0722 29.1597 79.013 29.2351C77.9538 29.3105 76.9709 29.7658 76.2805 30.5008C75.5901 31.2358 75.2488 32.1904 75.3316 33.1546C75.3379 33.2269 75.3471 33.2982 75.3579 33.3695C75.3386 32.44 75.7101 31.539 76.3964 30.8505C77.0828 30.1621 78.032 29.7382 79.0502 29.6657Z" fill="#4FBA75"/>
<path d="M81.4638 32.1113C81.6335 32.0361 81.6817 31.8083 81.5716 31.6023C81.4614 31.3964 81.2346 31.2905 81.0649 31.3657C80.8953 31.4409 80.847 31.6688 80.9572 31.8747C81.0673 32.0806 81.2942 32.1865 81.4638 32.1113Z" fill="#4FBA75"/>
<path d="M79.467 33.8211C79.6864 33.8055 79.8459 33.5791 79.8232 33.3154C79.8006 33.0518 79.6044 32.8507 79.385 32.8663C79.1656 32.8819 79.0061 33.1083 79.0287 33.372C79.0514 33.6357 79.2476 33.8368 79.467 33.8211Z" fill="#4FBA75"/>
<path d="M78.7686 35.1753C78.8465 34.9253 78.7281 34.6758 78.5042 34.618C78.2802 34.5601 78.0355 34.7159 77.9576 34.9659C77.8797 35.2158 77.9981 35.4653 78.2221 35.5232C78.446 35.581 78.6907 35.4252 78.7686 35.1753Z" fill="#4FBA75"/>
<path d="M76.9189 33.0776C77.1627 32.9253 77.2535 32.6602 77.1217 32.4855C76.99 32.3108 76.6856 32.2927 76.4418 32.445C76.198 32.5973 76.1072 32.8624 76.239 33.0371C76.3707 33.2118 76.6751 33.2299 76.9189 33.0776Z" fill="#4FBA75"/>
<path d="M79.1268 31.0787C79.3029 31.0787 79.4457 30.9487 79.4457 30.7884C79.4457 30.628 79.3029 30.498 79.1268 30.498C78.9506 30.498 78.8078 30.628 78.8078 30.7884C78.8078 30.9487 78.9506 31.0787 79.1268 31.0787Z" fill="#4FBA75"/>
<path d="M82.4115 34.5119C82.624 34.2857 82.6452 33.9846 82.4587 33.8395C82.2722 33.6944 81.9488 33.7602 81.7363 33.9864C81.5237 34.2127 81.5026 34.5138 81.6891 34.6589C81.8755 34.804 82.199 34.7382 82.4115 34.5119Z" fill="#4FBA75"/>
<path d="M77.2442 31.5869C77.3888 31.5869 77.506 31.4802 77.506 31.3486C77.506 31.2169 77.3888 31.1102 77.2442 31.1102C77.0995 31.1102 76.9823 31.2169 76.9823 31.3486C76.9823 31.4802 77.0995 31.5869 77.2442 31.5869Z" fill="#4FBA75"/>
<path d="M80.2071 35.2859C80.3517 35.2859 80.4689 35.1792 80.4689 35.0476C80.4689 34.9159 80.3517 34.8092 80.2071 34.8092C80.0624 34.8092 79.9452 34.9159 79.9452 35.0476C79.9452 35.1792 80.0624 35.2859 80.2071 35.2859Z" fill="#4FBA75"/>
<path d="M84.1448 30.4316C84.1448 30.4316 83.7314 30.7519 82.6448 30.8292L83.1658 31.8324C83.1658 31.8324 83.2202 31.3707 84.4082 30.839L84.1448 30.4316ZM83.975 35.5158C83.975 35.5158 83.4704 35.3332 82.8872 34.4949L82.1567 35.3833C82.1567 35.3833 82.6305 35.2111 83.7021 35.9183L83.975 35.5158ZM79.0206 29.3215C79.1573 29.3117 79.2944 29.3083 79.4314 29.3111C79.293 29.2004 78.9991 28.8673 78.8682 27.9713L78.3597 28.0687C78.3597 28.0687 78.5522 28.5098 78.3107 29.4314C78.5432 29.3754 78.7808 29.3388 79.0206 29.3215ZM77.6602 36.1866C77.3545 36.0589 77.0676 35.8968 76.8062 35.7041C76.7259 36.1348 76.5263 36.5397 76.2263 36.8807L76.6732 37.122C76.6732 37.122 76.8501 36.6997 77.6602 36.1866ZM74.6348 35.3575C74.6348 35.3575 75.0452 35.0337 76.1309 34.9485L75.6012 33.9491C75.6012 33.9491 75.551 34.4116 74.3676 34.9518L74.6348 35.3575ZM73.8896 32.1763C73.8896 32.1763 74.4318 32.1551 75.3406 32.7029L75.6084 31.6204C75.6084 31.6204 75.2533 31.954 73.9574 31.7075L73.8896 32.1763ZM79.1719 37.8156C79.1719 37.8156 79.09 37.3269 79.5901 36.4456L78.3788 36.3204C78.3788 36.3204 78.7815 36.6056 78.6524 37.8047L79.1719 37.8156ZM80.8151 36.2562C81.0481 36.515 81.2369 36.8043 81.375 37.1144L81.8344 36.8937C81.6406 36.6019 81.5271 36.2717 81.5035 35.9313C81.2862 36.0597 81.0556 36.1686 80.8151 36.2562ZM76.9195 29.9557C76.6395 29.7778 76.3868 29.5666 76.1683 29.3277L75.8024 29.6635C76.0554 29.8637 76.2547 30.114 76.385 30.3952C76.5483 30.2345 76.7271 30.0874 76.9192 29.9557H76.9195ZM81.0835 29.6771C81.2971 29.7719 81.5009 29.8837 81.6927 30.0112C81.815 29.7339 81.975 29.4717 82.1689 29.2306L81.7229 28.9879C81.5702 29.259 81.3514 29.4948 81.0832 29.6771H81.0835ZM83.3282 32.7448C83.3361 32.9518 83.3247 33.1591 83.2941 33.3643C83.5855 33.2277 83.9164 33.1771 84.2408 33.2196L84.2327 32.9216C83.919 32.94 83.6059 32.8788 83.3282 32.7448Z" fill="#57C984"/>
<path d="M84.0226 30.2175C84.0199 30.188 84.0285 30.1585 84.0468 30.1341C84.0651 30.1096 84.0921 30.0916 84.1233 30.083C84.1544 30.0744 84.1878 30.0759 84.218 30.087C84.2481 30.0982 84.2732 30.1184 84.2889 30.1443L84.737 30.8806C84.7553 30.9107 84.7597 30.9461 84.7493 30.9791C84.7388 31.0121 84.7144 31.04 84.6814 31.0567C84.6484 31.0733 84.6094 31.0773 84.5732 31.0678C84.5369 31.0583 84.5063 31.0361 84.488 31.0061L84.0399 30.27C84.03 30.2539 84.0241 30.236 84.0226 30.2175ZM83.4809 36.0731C83.4785 36.0465 83.4852 36.0199 83.5 35.9969L83.9711 35.2731C83.9904 35.2435 84.0217 35.2221 84.0583 35.2136C84.0949 35.205 84.1337 35.2101 84.1662 35.2276C84.1987 35.2451 84.2222 35.2736 84.2316 35.3069C84.241 35.3402 84.2355 35.3755 84.2163 35.4051L83.7452 36.1289C83.7298 36.1527 83.7065 36.1714 83.6787 36.1823C83.6508 36.1931 83.6199 36.1957 83.5904 36.1894C83.5609 36.1832 83.5343 36.1686 83.5146 36.1476C83.4948 36.1267 83.4832 36.1006 83.4809 36.0731ZM75.852 36.8562C75.85 36.8327 75.8552 36.8091 75.8668 36.788C75.8785 36.7669 75.8963 36.7491 75.9183 36.7365C75.9403 36.724 75.9656 36.7171 75.9915 36.7168C76.0175 36.7164 76.043 36.7224 76.0655 36.7343L76.8648 37.1569C76.8975 37.1741 76.9213 37.2025 76.931 37.2357C76.9407 37.2689 76.9355 37.3043 76.9165 37.334C76.8976 37.3637 76.8664 37.3854 76.8299 37.3942C76.7934 37.4031 76.7546 37.3983 76.7219 37.3811L75.9223 36.9582C75.9024 36.9477 75.8856 36.9329 75.8733 36.9151C75.8611 36.8973 75.8538 36.8771 75.852 36.8562ZM74.0373 34.8356C74.0347 34.8064 74.043 34.7773 74.0609 34.753C74.0789 34.7286 74.1053 34.7106 74.136 34.7017C74.1666 34.6928 74.1997 34.6937 74.2298 34.7041C74.2598 34.7145 74.2851 34.7339 74.3015 34.7591L74.7744 35.4821C74.784 35.4967 74.7903 35.5129 74.793 35.5298C74.7957 35.5467 74.7947 35.5638 74.7901 35.5803C74.7855 35.5969 74.7774 35.6124 74.7662 35.626C74.755 35.6397 74.741 35.6512 74.7249 35.6599C74.7089 35.6686 74.6911 35.6744 74.6725 35.6768C74.654 35.6793 74.6352 35.6784 74.617 35.6742C74.5989 35.6701 74.5818 35.6627 74.5668 35.6525C74.5518 35.6423 74.5392 35.6295 74.5296 35.6149L74.0567 34.8916C74.0456 34.8746 74.0389 34.8554 74.0373 34.8356ZM73.7046 32.3511C73.7041 32.3456 73.704 32.3402 73.7043 32.3347L73.7464 31.4939C73.7481 31.4596 73.7648 31.4273 73.7927 31.4042C73.8206 31.3811 73.8574 31.369 73.8951 31.3705C73.9328 31.3721 73.9683 31.3873 73.9937 31.4127C74.0191 31.4381 74.0324 31.4716 74.0307 31.5059L73.9888 32.3467C73.9879 32.3801 73.9728 32.4118 73.9468 32.4354C73.9207 32.4589 73.8857 32.4723 73.849 32.4729C73.8123 32.4734 73.7768 32.4611 73.7499 32.4384C73.723 32.4157 73.7067 32.3844 73.7046 32.3511ZM75.4951 29.7691C75.4934 29.7488 75.4969 29.7284 75.5054 29.7096C75.5139 29.6908 75.5272 29.6741 75.5441 29.6608L76.2451 29.112C76.2737 29.0896 76.311 29.0784 76.3486 29.081C76.3863 29.0836 76.4212 29.0997 76.4458 29.1257C76.4705 29.1518 76.4827 29.1857 76.4799 29.2199C76.477 29.2542 76.4594 29.286 76.4308 29.3084L75.7298 29.8573C75.7098 29.8729 75.6855 29.8831 75.6596 29.8869C75.6336 29.8908 75.607 29.8879 75.5827 29.8788C75.5584 29.8697 75.5373 29.8546 75.5219 29.8352C75.5064 29.8159 75.4971 29.793 75.4951 29.7691ZM77.9932 28.0832C77.9905 28.0515 78.0006 28.0201 78.0217 27.9948C78.0427 27.9696 78.0732 27.9522 78.1074 27.946L79.0144 27.7825C79.0514 27.7758 79.0898 27.7828 79.1212 27.8019C79.1525 27.821 79.1743 27.8507 79.1816 27.8844C79.189 27.9181 79.1813 27.9531 79.1603 27.9816C79.1393 28.0102 79.1067 28.03 79.0697 28.0366L78.1627 28.2004C78.1444 28.2038 78.1255 28.2038 78.1071 28.2004C78.0888 28.1971 78.0713 28.1905 78.0558 28.181C78.0402 28.1716 78.0269 28.1594 78.0165 28.1452C78.0061 28.131 77.9989 28.1151 77.9953 28.0984C77.9943 28.0934 77.9936 28.0883 77.9932 28.0832ZM81.4064 28.8845C81.4044 28.8606 81.4097 28.8368 81.4217 28.8155C81.4338 28.7942 81.452 28.7764 81.4745 28.764C81.497 28.7516 81.5228 28.7451 81.5491 28.7453C81.5753 28.7454 81.6011 28.7521 81.6234 28.7648L82.4075 29.2107C82.424 29.2195 82.4384 29.2311 82.4499 29.245C82.4614 29.2589 82.4697 29.2747 82.4743 29.2916C82.4789 29.3084 82.4797 29.326 82.4768 29.3431C82.4738 29.3603 82.467 29.3767 82.4569 29.3915C82.4468 29.4062 82.4335 29.4189 82.4179 29.4289C82.4023 29.4389 82.3846 29.4459 82.3659 29.4495C82.3472 29.4532 82.328 29.4533 82.3092 29.45C82.2905 29.4467 82.2726 29.44 82.2568 29.4303L81.4727 28.9844C81.4538 28.9737 81.4379 28.959 81.4263 28.9417C81.4147 28.9243 81.4081 28.9047 81.4064 28.8845ZM81.0172 37.1659C81.0148 37.1379 81.0224 37.1101 81.0389 37.0864C81.0554 37.0628 81.0799 37.0446 81.1086 37.0347L81.9728 36.7357C82.0081 36.7235 82.0473 36.7245 82.0817 36.7386C82.1161 36.7527 82.143 36.7787 82.1564 36.8108C82.1698 36.8429 82.1686 36.8785 82.1531 36.9099C82.1377 36.9412 82.1091 36.9656 82.0739 36.9778L81.21 37.2769C81.1893 37.2841 81.167 37.2868 81.145 37.2848C81.1229 37.2828 81.1017 37.2762 81.083 37.2654C81.0642 37.2546 81.0485 37.24 81.0371 37.2227C81.0257 37.2054 81.0189 37.186 81.0172 37.1659ZM78.2975 37.8437C78.2972 37.84 78.297 37.8364 78.2969 37.8328C78.2971 37.7984 78.3122 37.7655 78.339 37.7413C78.3658 37.717 78.4021 37.7035 78.4398 37.7035L79.3644 37.7068C79.4022 37.7069 79.4384 37.7207 79.465 37.7452C79.4916 37.7696 79.5064 37.8026 79.5063 37.837C79.5061 37.8714 79.4909 37.9043 79.4641 37.9285C79.4373 37.9527 79.401 37.9662 79.3632 37.9661L78.4386 37.9628C78.4029 37.9627 78.3685 37.9504 78.3423 37.9283C78.3161 37.9061 78.3 37.8758 78.2972 37.8434L78.2975 37.8437ZM84.1912 33.3521C84.1909 33.3482 84.1908 33.3443 84.1909 33.3404L84.1971 32.8049C84.1975 32.7705 84.2129 32.7377 84.2399 32.7136C84.2669 32.6896 84.3033 32.6763 84.3411 32.6766C84.3788 32.677 84.4149 32.691 84.4413 32.7156C84.4678 32.7401 84.4824 32.7732 84.482 32.8076L84.4754 33.3431C84.4747 33.3762 84.4601 33.4078 84.4345 33.4314C84.409 33.455 84.3745 33.4688 84.3381 33.47C84.3018 33.4711 84.2663 33.4595 84.239 33.4376C84.2117 33.4157 84.1947 33.3851 84.1915 33.3521H84.1912Z" fill="#4FBA75"/>
<path d="M66.8111 32.7856C67.2344 32.7856 67.5775 32.4732 67.5775 32.0879C67.5775 31.7026 67.2344 31.3903 66.8111 31.3903C66.3878 31.3903 66.0446 31.7026 66.0446 32.0879C66.0446 32.4732 66.3878 32.7856 66.8111 32.7856Z" fill="#3CA05D"/>
<path d="M78.2746 41.5818C78.6591 41.5818 78.9708 41.298 78.9708 40.948C78.9708 40.5981 78.6591 40.3143 78.2746 40.3143C77.8901 40.3143 77.5784 40.5981 77.5784 40.948C77.5784 41.298 77.8901 41.5818 78.2746 41.5818Z" fill="#3CA05D"/>
<path d="M69.0859 55.6093C69.3877 55.6093 69.6323 55.3866 69.6323 55.1119C69.6323 54.8372 69.3877 54.6145 69.0859 54.6145C68.7841 54.6145 68.5394 54.8372 68.5394 55.1119C68.5394 55.3866 68.7841 55.6093 69.0859 55.6093Z" fill="#3CA05D"/>
<path d="M36.0008 77.9644L31.9013 124.377C31.9013 124.377 34.6263 127.48 40.01 125.182L46.0913 80.7069L47.9856 80.8794L50.478 124.923C50.478 124.923 54.4992 126.905 58.0217 124.837L57.6451 78.0929L36.0193 77.9495C36.0147 77.9493 36.0101 77.9508 36.0066 77.9536C36.0031 77.9563 36.0012 77.9602 36.0008 77.9644Z" fill="#238B94"/>
<path d="M57.6454 78.8109C57.6143 78.5712 57.5851 78.3316 57.5578 78.092L36.0935 77.95C36.0588 78.2353 36.022 78.5206 35.9832 78.806L43.2201 80.0647C45.3258 80.4324 47.4718 80.5727 49.6136 80.4827C57.2864 80.1534 57.6457 78.8109 57.6457 78.8109H57.6454Z" fill="#083333"/>
<path d="M58.4074 44.4657L52.129 42.6394L47.4362 45.6804L41.8872 42.6394L35.4893 44.4573C34.783 44.6553 34.1339 44.9939 33.5891 45.4486C32.4346 46.4194 30.2868 48.5799 26.8761 53.2673L31.8329 56.8022L35.0502 53.4311C35.0502 53.4311 37.6832 65.8024 35.9897 78.0888L43.2202 79.3465C45.3258 79.7142 47.4718 79.8545 49.6136 79.7644C57.2864 79.4352 57.6457 78.0926 57.6457 78.0926C56.0503 65.7962 58.7756 53.442 58.7756 53.442L61.9658 56.8324L66.9506 53.3272C63.5782 48.6202 61.4477 46.4472 60.3011 45.469C59.7594 45.0108 59.1126 44.6681 58.4074 44.4657Z" fill="#083863"/>
<path d="M39.3012 29.2512C38.4511 30.7587 40.256 33.0402 41.096 32.9287C41.8782 32.8244 42.0146 30.6177 42.0262 30.4003C42.0663 29.6692 42.1338 28.4325 41.4284 28.1593C40.7952 27.9144 39.7173 28.5138 39.3012 29.2512Z" fill="#874106"/>
<path d="M41.5943 26.0642C41.5943 26.0642 40.3517 30.6648 39.7 30.8599C39.7 30.8599 37.1744 33.1009 40.6969 33.5031C40.6969 33.5031 40.8963 39.3641 44.9506 40.2262V41.7042C44.9507 41.8522 44.8921 41.9952 44.7857 42.1071C44.6793 42.219 44.5322 42.2922 44.3713 42.3134L41.8872 42.6394C41.8872 42.6394 47.3435 49.7646 52.129 42.6394L50.49 42.3295C50.3487 42.3027 50.2205 42.2355 50.1241 42.1376C50.0278 42.0397 49.9684 41.9164 49.9546 41.7856L49.8028 40.341C49.8028 40.341 54.7877 38.7897 54.2559 33.6756C54.2559 33.6756 57.2708 32.3023 54.4672 30.5182C54.4672 30.5182 54.232 30.6809 54.1752 29.491C54.1569 29.1082 54.1163 26.5559 54.1486 25.8427C54.1486 25.8427 44.4284 21.8515 41.5943 26.0642ZM61.9658 56.8321L64.4747 59.1882L57.6953 67.247C57.6953 67.247 58.8408 69.4831 59.0321 70.2701C59.0399 70.2976 59.0546 70.3231 59.0751 70.3446C59.0957 70.366 59.1214 70.3828 59.1504 70.3936C59.1793 70.4044 59.2106 70.4088 59.2418 70.4066C59.2729 70.4044 59.3031 70.3955 59.3298 70.3808C60.3025 69.8649 63.7315 67.7463 69.5591 61.0279C69.5591 61.0279 72.1253 58.5804 66.5555 53.605L61.9658 56.8321ZM31.7064 56.6634L29.1973 59.0193L36.0074 67.1145C36.0074 67.1145 34.8314 69.3142 34.6401 70.1008C34.6324 70.1284 34.6177 70.1539 34.5971 70.1754C34.5766 70.1969 34.5509 70.2137 34.5219 70.2245C34.493 70.2353 34.4617 70.2398 34.4305 70.2376C34.3993 70.2354 34.3691 70.2265 34.3424 70.2118C33.3697 69.6959 29.9404 67.5774 24.1128 60.8589C24.1128 60.8589 21.5469 58.4114 27.1167 53.4361L31.7064 56.6634Z" fill="#F6B98A"/>
<path d="M34.4792 70.2403C36.1577 72.6832 38.1841 70.1084 38.1841 70.1084L39.0385 70.3587C39.6145 70.5363 40.229 70.5852 40.8302 70.5015C41.4314 70.4178 42.0017 70.2038 42.4931 69.8776C42.5579 69.8323 42.621 69.7849 42.6824 69.7356C43.8123 68.8254 43.2258 68.0556 42.4624 67.5449C41.7899 67.108 40.9965 66.8513 40.172 66.804C36.2874 66.5411 35.941 67.1778 35.941 67.1778C35.2744 67.9304 34.8139 68.8164 34.5973 69.7628L34.4792 70.2403Z" fill="#9CE9EF"/>
<path d="M50.4783 124.923V128.687H67.6928C67.7692 128.287 67.6832 127.876 67.4508 127.529C67.2184 127.183 66.8555 126.926 66.4299 126.805L63.2439 127.07C62.5081 127.131 61.7705 126.971 61.144 126.614L58.022 124.837L50.4783 124.923ZM40.0222 124.923V128.687H22.8077C22.7313 128.287 22.8173 127.876 23.0497 127.529C23.2821 127.183 23.645 126.926 24.0706 126.805L26.9511 127.044C27.4061 127.082 27.8647 127.036 28.2994 126.908C28.7341 126.779 29.1357 126.573 29.48 126.299L31.9013 124.377L40.0222 124.923Z" fill="#442005"/>
<path d="M22.8077 128.687H40.022V129.836H22.8077V128.687ZM50.49 128.687H67.7043V129.836H50.49V128.687Z" fill="#874106"/>
<path d="M41.5943 33.5031V37.2611C41.5943 37.2611 43.1562 41.9214 49.8028 40.3413C49.8028 40.3413 54.3802 39.3663 54.275 33.8931C54.275 33.8931 49.6199 33.3309 41.5946 33.5031H41.5943Z" fill="#9CE9EF"/>
<path d="M44.1364 30.5182C44.3016 30.4099 44.486 30.3282 44.6816 30.2766C44.8767 30.2219 45.0786 30.1901 45.2824 30.1819C45.6982 30.1547 46.1094 30.2753 46.4297 30.5182C46.2395 30.4823 46.0475 30.4554 45.8543 30.4374C45.6672 30.4244 45.4795 30.421 45.292 30.4273C44.9148 30.4382 44.5399 30.4839 44.1367 30.5182H44.1364ZM50.9659 30.5182C51.1564 30.4122 51.3643 30.3348 51.5817 30.2888C51.7997 30.2387 52.024 30.2149 52.2489 30.2181C52.4774 30.2228 52.7035 30.2625 52.9176 30.3353C53.1307 30.4112 53.3175 30.5379 53.4583 30.7021C53.2654 30.6221 53.0637 30.5607 52.8566 30.519C52.6539 30.4859 52.4486 30.4673 52.2426 30.4635C52.0355 30.4559 51.8262 30.4681 51.6143 30.4776L50.9659 30.5182Z" fill="#020202"/>
<path d="M45.1336 33.1154C45.3538 33.1154 45.5323 32.797 45.5323 32.4044C45.5323 32.0117 45.3538 31.6934 45.1336 31.6934C44.9133 31.6934 44.7348 32.0117 44.7348 32.4044C44.7348 32.797 44.9133 33.1154 45.1336 33.1154Z" fill="#020202"/>
<path d="M51.8134 33.1154C52.0336 33.1154 52.2121 32.797 52.2121 32.4044C52.2121 32.0117 52.0336 31.6934 51.8134 31.6934C51.5931 31.6934 51.4146 32.0117 51.4146 32.4044C51.4146 32.797 51.5931 33.1154 51.8134 33.1154Z" fill="#020202"/>
<path d="M59.1597 70.3959C57.4816 72.8388 55.4522 70.1774 55.4522 70.1774L54.5978 70.4278C54.0218 70.6053 53.4073 70.6543 52.8061 70.5706C52.2049 70.4869 51.6346 70.2729 51.1432 69.9467C51.0784 69.9013 51.0153 69.854 50.9539 69.8047C49.824 68.8942 50.4105 68.1244 51.1739 67.6137C51.8464 67.1769 52.6398 66.9203 53.4643 66.8731C57.3488 66.6102 57.6953 67.2469 57.6953 67.2469L58.1078 67.7835C58.5279 68.3276 58.8085 68.9504 58.929 69.6063L59.1597 70.3959Z" fill="#9CE9EF"/>
<path d="M44.1364 34.8878C44.4652 34.9675 44.7928 35.0454 45.124 35.1093C45.4528 35.1801 45.7828 35.2454 46.1149 35.2979C46.7751 35.4133 47.4425 35.4915 48.1133 35.5319C48.7798 35.5805 49.4502 35.5627 50.1125 35.4788C50.778 35.3925 51.4195 35.1919 52.0029 34.8878C51.8669 34.9792 51.7279 35.0699 51.5862 35.1583C51.4412 35.2418 51.2892 35.3151 51.1318 35.3773C51.0532 35.4094 50.9764 35.4467 50.8951 35.4726L50.6485 35.5417C50.4855 35.5933 50.3188 35.6344 50.1495 35.6647C49.4742 35.7897 48.7829 35.8275 48.0959 35.777C47.4124 35.7361 46.7346 35.6373 46.0713 35.4818C45.4084 35.3364 44.7609 35.1376 44.1367 34.8878H44.1364ZM44.0024 36.2774C44.3313 36.3572 44.6586 36.435 44.9898 36.4989C45.3186 36.5697 45.6489 36.635 45.981 36.6875C46.6411 36.803 47.3084 36.8812 47.979 36.9218C48.6456 36.9703 49.316 36.9524 49.9783 36.8684C50.6438 36.7821 51.2853 36.5815 51.8687 36.2774C51.7327 36.3689 51.5937 36.4595 51.452 36.5479C51.3069 36.6315 51.155 36.7047 50.9976 36.7669C50.919 36.799 50.8422 36.8363 50.7608 36.8622L50.5145 36.9313C50.3515 36.9829 50.1847 37.024 50.0153 37.0543C49.34 37.1793 48.6487 37.2171 47.9617 37.1667C47.2782 37.1257 46.6004 37.0269 45.9371 36.8714C45.2741 36.726 44.6267 36.5272 44.0024 36.2774ZM44.0024 37.8997C44.3313 37.9794 44.6586 38.0572 44.9898 38.1212C45.3186 38.1919 45.6489 38.2572 45.981 38.3097C46.6411 38.4253 47.3084 38.5035 47.979 38.544C48.6456 38.5925 49.316 38.5746 49.9783 38.4907C50.6438 38.4043 51.2853 38.2038 51.8687 37.8997C51.7327 37.9911 51.5937 38.082 51.452 38.1702C51.3069 38.2537 51.155 38.327 50.9976 38.3892C50.919 38.4213 50.8422 38.4586 50.7608 38.4844L50.5145 38.5535C50.3515 38.6052 50.1847 38.6463 50.0153 38.6765C49.34 38.8015 48.6487 38.8393 47.9617 38.7889C47.2782 38.748 46.6004 38.6491 45.9371 38.4937C45.2741 38.3483 44.6267 38.1495 44.0024 37.8997Z" fill="#26B5BF"/>
<path d="M48.1748 20.7112C48.1748 20.7112 44.8074 20.0777 40.3202 23.9625C38.8387 25.23 37.8956 26.9325 37.6568 28.7705C37.4712 30.301 37.7387 31.88 39.5535 32.073C39.5535 32.073 40.7426 31.3603 41.4224 26.7303C41.4224 26.7303 48.2681 27.2663 51.6128 25.9638L54.1871 27.9066C54.1387 28.5377 54.1361 29.1711 54.1793 29.8026C54.2645 30.5476 54.4672 30.5182 54.4672 30.5182L54.8325 29.7362C54.9992 29.3795 55.0973 28.9993 55.1224 28.6124C55.1224 28.6124 56.1836 21.8793 48.1748 20.7112Z" fill="#3F1510"/>
<path d="M41.5943 33.5031C41.3215 33.0455 41.0053 32.6106 40.6491 32.2033C40.4697 32.008 40.2713 31.8279 40.0563 31.6651C39.831 31.505 39.5887 31.3659 39.3329 31.2499C39.6318 31.2773 39.9202 31.3655 40.1768 31.5078C40.4328 31.6538 40.662 31.8354 40.8562 32.046C41.045 32.2569 41.2047 32.4881 41.3315 32.7345C41.4609 32.9773 41.5495 33.2364 41.5946 33.5031H41.5943Z" fill="#63DAEA"/>
<path d="M40.0222 79.23C39.9825 79.4319 39.9332 79.6332 39.8847 79.8354C39.8836 79.8427 39.8808 79.8497 39.8765 79.856C39.8722 79.8623 39.8666 79.8677 39.8599 79.8719C39.8532 79.8761 39.8457 79.8791 39.8377 79.8805C39.8297 79.8819 39.8215 79.8819 39.8136 79.8803C39.8057 79.8787 39.7982 79.8757 39.7916 79.8714C39.785 79.867 39.7794 79.8615 39.7753 79.8552C39.7711 79.8488 39.7685 79.8418 39.7675 79.8344C39.7664 79.8271 39.7671 79.8196 39.7694 79.8126C39.7699 79.81 39.7707 79.8074 39.7717 79.8049L39.7729 79.8022C39.8534 79.6117 39.9326 79.4205 40.0222 79.23ZM39.497 80.9741C39.3245 81.34 39.145 81.7045 38.9587 82.0674C38.9496 82.0852 38.9368 82.1011 38.921 82.1143C38.9051 82.1275 38.8866 82.1378 38.8664 82.1445C38.8462 82.1512 38.8248 82.1542 38.8033 82.1533C38.7819 82.1525 38.7608 82.1478 38.7414 82.1395C38.7219 82.1313 38.7044 82.1196 38.6899 82.1052C38.6754 82.0908 38.6641 82.0739 38.6567 82.0556C38.6494 82.0372 38.6461 82.0177 38.647 81.9982C38.6479 81.9786 38.6531 81.9595 38.6621 81.9417L38.663 81.9398L38.6711 81.9251C38.8594 81.575 39.0537 81.227 39.254 80.8811L39.26 80.8707C39.2751 80.8421 39.302 80.8201 39.3349 80.8095C39.3678 80.7989 39.404 80.8007 39.4355 80.8144C39.4669 80.8281 39.4911 80.8527 39.5027 80.8826C39.5143 80.9126 39.5121 80.9455 39.497 80.9741ZM38.249 83.0848C37.9807 83.4105 37.6656 83.702 37.3122 83.9515C37.2849 83.9705 37.2505 83.9791 37.2163 83.9754C37.1822 83.9718 37.1509 83.9562 37.1292 83.9319C37.1074 83.9077 37.0969 83.8767 37.0998 83.8455C37.1027 83.8143 37.1189 83.7854 37.1448 83.7648C37.4576 83.5059 37.7398 83.218 37.9869 82.9058C38.0126 82.8739 38.0512 82.8527 38.0942 82.8467C38.1372 82.8408 38.181 82.8506 38.216 82.8741C38.251 82.8975 38.2743 82.9327 38.2809 82.9718C38.2874 83.0109 38.2766 83.0508 38.2508 83.0826L38.249 83.0848ZM36.1072 84.4687C35.8825 84.5117 35.6518 84.5229 35.4233 84.5019C35.6458 84.4796 35.8647 84.4337 36.0755 84.365C36.0829 84.3626 36.0906 84.3615 36.0984 84.3618C36.1062 84.3621 36.1139 84.3638 36.121 84.3667C36.128 84.3697 36.1344 84.3739 36.1397 84.3792C36.145 84.3844 36.1491 84.3905 36.1518 84.3972C36.1545 84.4038 36.1557 84.4109 36.1554 84.418C36.155 84.4251 36.1532 84.4321 36.1499 84.4385C36.1466 84.4449 36.142 84.4507 36.1363 84.4555C36.1305 84.4604 36.1238 84.4641 36.1165 84.4665C36.1136 84.4675 36.1103 84.4682 36.1072 84.4687ZM52.3179 80.301L52.3538 80.9156C52.3539 80.9178 52.3531 80.92 52.3515 80.9216C52.3498 80.9233 52.3476 80.9242 52.3451 80.9244C52.3427 80.9245 52.3404 80.9237 52.3386 80.9222C52.3368 80.9207 52.3357 80.9187 52.3356 80.9165L52.3179 80.301ZM52.4262 82.1523L52.4985 83.3888C52.4992 83.3944 52.4987 83.4001 52.4969 83.4055C52.4951 83.411 52.492 83.416 52.488 83.4203C52.484 83.4247 52.4791 83.4282 52.4735 83.4308C52.4679 83.4333 52.4618 83.4348 52.4556 83.4351C52.4494 83.4354 52.4432 83.4345 52.4373 83.4326C52.4315 83.4306 52.4261 83.4276 52.4216 83.4237C52.4171 83.4198 52.4135 83.4151 52.411 83.4099C52.4086 83.4047 52.4073 83.399 52.4073 83.3934V83.3923L52.3715 82.1542C52.3712 82.1476 52.3738 82.1412 52.3787 82.1364C52.3837 82.1315 52.3905 82.1286 52.3978 82.1284C52.405 82.1281 52.4121 82.1305 52.4174 82.135C52.4227 82.1395 52.4259 82.1457 52.4262 82.1523ZM52.5708 84.6257L52.6432 85.8621C52.6438 85.8816 52.636 85.9006 52.6215 85.915C52.607 85.9293 52.5869 85.938 52.5655 85.939C52.5441 85.9401 52.5231 85.9335 52.5069 85.9207C52.4908 85.9078 52.4808 85.8898 52.4791 85.8703V85.8681L52.4432 84.6301C52.4435 84.6152 52.45 84.601 52.4614 84.5903C52.4728 84.5797 52.4883 84.5734 52.5046 84.5728C52.521 84.5722 52.5369 84.5773 52.5492 84.5871C52.5616 84.5969 52.5693 84.6109 52.5708 84.6257ZM52.7086 87.0991L52.7729 88.3361C52.7735 88.3607 52.7635 88.3846 52.7451 88.4026C52.7266 88.4206 52.7012 88.4314 52.6741 88.4325C52.6471 88.4337 52.6206 88.4252 52.6004 88.4089C52.5801 88.3925 52.5677 88.3696 52.5658 88.345V88.3434L52.5218 87.1059C52.5218 87.0839 52.5312 87.0628 52.5479 87.0469C52.5647 87.031 52.5875 87.0217 52.6116 87.0208C52.6358 87.0199 52.6594 87.0276 52.6775 87.0422C52.6955 87.0568 52.7067 87.0772 52.7086 87.0991ZM52.8372 89.573L52.9018 90.81C52.9034 90.8253 52.9016 90.8407 52.8965 90.8553C52.8914 90.87 52.8831 90.8835 52.8721 90.8951C52.861 90.9067 52.8475 90.9162 52.8324 90.9229C52.8172 90.9296 52.8007 90.9334 52.7838 90.9341C52.767 90.9349 52.7502 90.9325 52.7344 90.9271C52.7186 90.9217 52.7041 90.9134 52.692 90.9028C52.6798 90.8922 52.6701 90.8794 52.6635 90.8653C52.6569 90.8512 52.6536 90.836 52.6536 90.8206L52.6533 90.819L52.6094 89.5812C52.6082 89.5537 52.6191 89.5269 52.6396 89.5067C52.6601 89.4865 52.6886 89.4745 52.7188 89.4734C52.749 89.4724 52.7785 89.4822 52.8007 89.5009C52.8229 89.5196 52.836 89.5455 52.8372 89.573ZM52.966 92.047L53.0288 93.2839C53.0306 93.3015 53.0284 93.3192 53.0224 93.336C53.0165 93.3528 53.0068 93.3683 52.9941 93.3816C52.9813 93.395 52.9658 93.4058 52.9483 93.4135C52.9309 93.4211 52.9119 93.4255 52.8925 93.4263C52.8731 93.4271 52.8538 93.4243 52.8356 93.4182C52.8174 93.412 52.8009 93.4025 52.7868 93.3903C52.7728 93.3781 52.7616 93.3635 52.754 93.3472C52.7464 93.331 52.7424 93.3136 52.7424 93.2959V93.2943L52.6973 92.0568C52.6968 92.0248 52.71 91.994 52.7341 91.9708C52.7582 91.9476 52.7913 91.9338 52.8264 91.9326C52.8615 91.9313 52.8957 91.9425 52.9218 91.9639C52.9479 91.9853 52.9637 92.0151 52.966 92.047ZM53.0862 94.5212L53.1439 95.7584C53.1449 95.7943 53.1304 95.829 53.1035 95.8552C53.0766 95.8814 53.0395 95.897 53.0001 95.8985C52.9608 95.9 52.9224 95.8873 52.8932 95.8633C52.864 95.8392 52.8463 95.8056 52.8441 95.7698L52.7932 94.5318C52.7925 94.5143 52.7955 94.4968 52.8021 94.4803C52.8087 94.4639 52.8189 94.4488 52.8319 94.4359C52.845 94.423 52.8607 94.4126 52.8781 94.4052C52.8956 94.3979 52.9145 94.3937 52.9337 94.393C52.953 94.3923 52.9722 94.395 52.9902 94.4011C53.0083 94.4071 53.0249 94.4163 53.0391 94.4282C53.0676 94.4522 53.0846 94.4858 53.0862 94.5212ZM53.2016 96.9954L53.259 98.2326C53.2598 98.2514 53.2567 98.2701 53.2496 98.2877C53.2425 98.3054 53.2317 98.3216 53.2178 98.3354C53.2038 98.3492 53.187 98.3604 53.1683 98.3684C53.1496 98.3763 53.1294 98.3808 53.1088 98.3816C53.0881 98.3824 53.0676 98.3795 53.0482 98.3731C53.0288 98.3666 53.011 98.3568 52.9958 98.3441C52.9806 98.3314 52.9683 98.3161 52.9596 98.2991C52.9509 98.282 52.946 98.2636 52.9451 98.2449L52.8946 97.0065C52.8938 96.9699 52.9089 96.9346 52.9365 96.908C52.9641 96.8814 53.0021 96.8657 53.0422 96.8642C53.0824 96.8628 53.1216 96.8758 53.1514 96.9003C53.1811 96.9249 53.1992 96.9588 53.2016 96.9954ZM53.3164 99.4698L53.3741 100.707C53.3755 100.746 53.3599 100.785 53.3305 100.814C53.3011 100.842 53.2604 100.859 53.2172 100.861C53.174 100.863 53.1319 100.849 53.0999 100.822C53.068 100.796 53.0489 100.759 53.0467 100.72L52.9959 99.4815C52.9942 99.4429 53.0095 99.4052 53.0383 99.3767C53.0671 99.3483 53.1072 99.3314 53.1497 99.3299C53.1922 99.3283 53.2336 99.3422 53.2649 99.3684C53.2961 99.3947 53.3147 99.4312 53.3164 99.4698ZM53.4314 101.944L53.4859 103.182C53.4867 103.202 53.4833 103.222 53.4757 103.24C53.4681 103.259 53.4565 103.276 53.4416 103.291C53.4267 103.306 53.4087 103.318 53.3887 103.326C53.3688 103.335 53.3472 103.339 53.3252 103.34C53.3032 103.341 53.2813 103.338 53.2606 103.331C53.24 103.324 53.221 103.313 53.2048 103.3C53.1887 103.286 53.1756 103.27 53.1664 103.252C53.1571 103.233 53.1519 103.214 53.1511 103.194L53.0972 101.956C53.0975 101.917 53.1143 101.879 53.1443 101.851C53.1743 101.823 53.215 101.806 53.2581 101.805C53.3011 101.803 53.3432 101.817 53.3755 101.843C53.4078 101.869 53.4278 101.905 53.4314 101.944ZM53.5367 104.419L53.5875 105.656C53.5892 105.695 53.5739 105.733 53.545 105.761C53.516 105.79 53.4759 105.807 53.4332 105.808C53.3906 105.81 53.3491 105.796 53.3177 105.77C53.2864 105.743 53.2678 105.707 53.2661 105.668L53.2087 104.431C53.2073 104.391 53.223 104.353 53.2524 104.324C53.2818 104.295 53.3226 104.278 53.3659 104.276C53.4091 104.275 53.4514 104.289 53.4834 104.315C53.5153 104.342 53.5345 104.38 53.5367 104.419ZM53.638 106.894L53.6888 108.131C53.6895 108.168 53.6745 108.203 53.6468 108.23C53.6191 108.257 53.5811 108.272 53.5409 108.274C53.5006 108.275 53.4614 108.262 53.4315 108.238C53.4017 108.213 53.3836 108.179 53.3812 108.142L53.3238 106.905C53.322 106.886 53.3244 106.867 53.331 106.848C53.3377 106.83 53.3483 106.813 53.3623 106.798C53.3763 106.784 53.3934 106.772 53.4126 106.764C53.4317 106.755 53.4525 106.751 53.4737 106.75C53.495 106.749 53.5161 106.752 53.536 106.759C53.5559 106.766 53.574 106.776 53.5893 106.79C53.6047 106.803 53.6168 106.819 53.6252 106.837C53.6335 106.855 53.638 106.874 53.638 106.894ZM53.7393 109.369L53.7902 110.606C53.791 110.641 53.7767 110.675 53.7503 110.701C53.7239 110.726 53.6876 110.741 53.6491 110.743C53.6106 110.744 53.5731 110.732 53.5445 110.708C53.5159 110.685 53.4986 110.652 53.4963 110.617L53.4389 109.38C53.4377 109.344 53.4522 109.309 53.4791 109.282C53.506 109.256 53.5433 109.24 53.5828 109.239C53.6223 109.237 53.6609 109.25 53.6902 109.274C53.7195 109.298 53.7371 109.333 53.7393 109.369ZM53.8407 111.844L53.8864 113.081C53.8869 113.113 53.8737 113.144 53.8494 113.168C53.8252 113.191 53.7919 113.205 53.7567 113.206C53.7215 113.207 53.6871 113.196 53.6609 113.175C53.6347 113.153 53.6188 113.123 53.6165 113.091L53.5537 111.854C53.552 111.819 53.5654 111.785 53.5911 111.76C53.6168 111.734 53.6526 111.719 53.6906 111.717C53.7287 111.716 53.7659 111.728 53.794 111.751C53.8221 111.775 53.8389 111.807 53.8407 111.842V111.844ZM53.9304 114.319L53.974 115.557C53.9742 115.584 53.9628 115.61 53.9423 115.629C53.9218 115.649 53.8937 115.66 53.864 115.661C53.8343 115.663 53.8053 115.653 53.7832 115.635C53.761 115.617 53.7475 115.592 53.7453 115.565L53.6807 114.328C53.6791 114.313 53.6809 114.297 53.686 114.283C53.6911 114.268 53.6995 114.254 53.7106 114.243C53.7216 114.231 53.7352 114.222 53.7504 114.215C53.7656 114.208 53.7822 114.204 53.7991 114.203C53.816 114.203 53.8329 114.205 53.8488 114.21C53.8647 114.216 53.8792 114.224 53.8914 114.235C53.9037 114.245 53.9134 114.258 53.92 114.272C53.9267 114.287 53.9301 114.302 53.9301 114.317L53.9304 114.319ZM54.0179 116.794L54.0616 118.032C54.0616 118.054 54.0522 118.075 54.0354 118.091C54.0186 118.107 53.9957 118.116 53.9715 118.117C53.9472 118.118 53.9236 118.111 53.9054 118.096C53.8873 118.081 53.8761 118.061 53.8742 118.039L53.8096 116.802C53.8083 116.777 53.818 116.752 53.8366 116.734C53.8552 116.715 53.8811 116.704 53.9087 116.703C53.9363 116.701 53.9632 116.71 53.9837 116.727C54.0041 116.744 54.0163 116.768 54.0176 116.793L54.0179 116.794ZM54.1046 119.27L54.1405 120.508C54.1412 120.523 54.135 120.538 54.1235 120.55C54.1119 120.561 54.0958 120.568 54.0788 120.569C54.0617 120.569 54.0451 120.564 54.0326 120.553C54.0201 120.543 54.0126 120.528 54.012 120.512L53.9393 119.276C53.9396 119.257 53.9478 119.238 53.9623 119.224C53.9769 119.211 53.9966 119.202 54.0176 119.201C54.0386 119.2 54.0593 119.207 54.0754 119.219C54.0915 119.231 54.1018 119.249 54.1043 119.268L54.1046 119.27ZM54.1761 121.746L54.2119 122.984C54.2123 122.99 54.2097 122.997 54.2047 123.002C54.1997 123.007 54.1928 123.01 54.1855 123.01C54.1782 123.01 54.171 123.008 54.1656 123.003C54.1602 122.999 54.157 122.992 54.1566 122.986L54.0843 121.749C54.0843 121.738 54.0889 121.728 54.0969 121.72C54.105 121.713 54.1161 121.708 54.1278 121.707C54.1395 121.707 54.151 121.71 54.16 121.717C54.169 121.724 54.1747 121.734 54.1761 121.744V121.746ZM54.2475 124.222L54.2654 124.837L54.2293 124.222C54.2292 124.221 54.2294 124.22 54.2297 124.219C54.2301 124.218 54.2307 124.217 54.2315 124.217C54.2323 124.216 54.2332 124.215 54.2343 124.215C54.2353 124.214 54.2365 124.214 54.2376 124.214C54.2388 124.214 54.24 124.214 54.2411 124.214C54.2422 124.215 54.2433 124.215 54.2442 124.216C54.2451 124.216 54.2458 124.217 54.2463 124.218C54.2468 124.219 54.2474 124.221 54.2475 124.222Z" fill="#083333"/>
<path d="M76.4837 130H13.7243C13.6346 130 13.5486 129.967 13.4852 129.91C13.4218 129.852 13.3862 129.774 13.3862 129.692C13.3862 129.611 13.4218 129.532 13.4852 129.475C13.5486 129.417 13.6346 129.384 13.7243 129.384H76.4837C76.5733 129.384 76.6593 129.417 76.7227 129.475C76.7861 129.532 76.8217 129.611 76.8217 129.692C76.8217 129.774 76.7861 129.852 76.7227 129.91C76.6593 129.967 76.5733 130 76.4837 130Z" fill="#139DA0"/>
</svg>
