<svg width="342" height="427" viewBox="0 0 342 427" fill="none" xmlns="http://www.w3.org/2000/svg">
<path d="M170.667 0C125.419 0.0508183 82.0384 18.048 50.0432 50.0432C18.048 82.0384 0.0508183 125.419 0 170.667C0 240.107 50.4107 297.771 103.808 358.805C120.704 378.133 138.197 398.123 153.771 418.347C155.764 420.932 158.323 423.025 161.252 424.466C164.182 425.906 167.402 426.656 170.667 426.656C173.931 426.656 177.152 425.906 180.081 424.466C183.01 423.025 185.57 420.932 187.563 418.347C203.136 398.123 220.629 378.133 237.525 358.805C290.923 297.771 341.333 240.107 341.333 170.667C341.283 125.419 323.285 82.0384 291.29 50.0432C259.295 18.048 215.915 0.0508183 170.667 0ZM170.667 234.667C158.009 234.667 145.635 230.913 135.11 223.881C124.585 216.848 116.382 206.853 111.538 195.158C106.694 183.464 105.427 170.596 107.896 158.181C110.366 145.766 116.461 134.362 125.412 125.412C134.362 116.461 145.766 110.366 158.181 107.896C170.596 105.427 183.464 106.694 195.158 111.538C206.853 116.382 216.848 124.585 223.881 135.11C230.913 145.635 234.667 158.009 234.667 170.667C234.667 187.641 227.924 203.919 215.922 215.921C203.919 227.924 187.641 234.667 170.667 234.667Z" fill="#3B63DA"/>
</svg>
