<svg width="494" height="383" viewBox="0 0 494 383" fill="none" xmlns="http://www.w3.org/2000/svg">
<path d="M462.182 0H181.146C164.096 0 150.272 13.824 150.272 30.8736V84.7872C158.259 84.0192 166.4 83.5584 174.694 83.5584C276.48 83.5584 359.322 144.128 359.322 218.624C359.322 219.853 359.27 221.082 359.219 222.259H383.693C380.006 244.378 369.766 286.771 344.422 304.384C344.422 304.384 413.184 279.501 439.552 222.259H462.234C479.283 222.259 493.107 208.435 493.107 191.386V30.8736C493.056 13.824 479.232 0 462.182 0Z" fill="#3B63DA"/>
<path d="M288.41 382.669L260.966 381.133C207.309 378.112 181.248 359.526 168.602 343.654C73.8304 341.35 0 286.771 0 218.624C0 149.606 78.3872 93.4912 174.694 93.4912C271.002 93.4912 349.389 149.606 349.389 218.624C349.389 272.128 302.643 319.181 232.602 336.742C237.414 359.782 263.014 371.405 263.27 371.558L288.41 382.669ZM174.694 103.526C83.9168 103.526 10.0352 155.136 10.0352 218.624C10.0352 280.781 82.3296 332.339 171.213 333.67L173.722 333.722L175.206 335.718C184.422 348.211 203.264 363.264 241.51 369.101C232.602 361.318 223.386 349.542 222.003 333.414L221.645 329.062L225.894 328.09C293.786 312.525 339.405 268.595 339.405 218.675C339.354 155.187 265.472 103.526 174.694 103.526Z" fill="#3B63DA"/>
<path d="M174.528 254.957C171.944 254.957 169.465 253.927 167.637 252.093C165.81 250.26 164.783 247.773 164.783 245.181C164.689 237.293 167.441 229.637 172.53 223.624C173.261 222.842 174.284 221.913 175.503 220.789C181.544 215.363 194.018 204.022 194.018 191.46C194.19 188.848 193.804 186.228 192.886 183.778C191.967 181.327 190.537 179.102 188.692 177.25C186.847 175.399 184.628 173.965 182.186 173.043C179.743 172.122 177.132 171.735 174.528 171.907C171.924 171.735 169.313 172.122 166.871 173.043C164.428 173.965 162.21 175.399 160.364 177.25C158.519 179.102 157.089 181.327 156.171 183.778C155.252 186.228 154.866 188.848 155.038 191.46C155.038 194.053 154.012 196.539 152.184 198.373C150.356 200.206 147.878 201.236 145.293 201.236C142.709 201.236 140.23 200.206 138.403 198.373C136.575 196.539 135.548 194.053 135.548 191.46C135.379 186.279 136.271 181.118 138.17 176.296C140.069 171.475 142.934 167.096 146.588 163.43C150.242 159.764 154.607 156.89 159.413 154.985C164.219 153.08 169.363 152.185 174.528 152.355C179.693 152.185 184.837 153.08 189.643 154.985C194.449 156.89 198.814 159.764 202.468 163.43C206.122 167.096 208.987 171.475 210.886 176.296C212.785 181.118 213.677 186.279 213.508 191.46C213.508 212.723 196.698 228.023 188.609 235.453L186.271 237.555C184.932 239.941 184.243 242.638 184.273 245.376C184.222 247.935 183.173 250.372 181.351 252.163C179.529 253.954 177.079 254.957 174.528 254.957ZM174.528 284.334C171.955 284.337 169.485 283.317 167.658 281.499C166.745 280.591 166.02 279.509 165.525 278.318C165.03 277.127 164.775 275.849 164.775 274.558C164.775 273.268 165.03 271.99 165.525 270.798C166.02 269.607 166.745 268.526 167.658 267.617C169.524 265.875 171.979 264.907 174.528 264.907C177.077 264.907 179.532 265.875 181.398 267.617C181.859 268.075 182.268 268.583 182.616 269.132C182.972 269.659 183.282 270.215 183.542 270.794C183.772 271.398 183.951 272.019 184.078 272.652C184.338 273.909 184.338 275.207 184.078 276.465C183.951 277.082 183.772 277.687 183.542 278.273C183.291 278.873 182.981 279.446 182.616 279.984C182.268 280.533 181.859 281.041 181.398 281.499C179.571 283.317 177.101 284.337 174.528 284.334Z" fill="#97B0F9"/>
</svg>
