<svg width="22" height="26" viewBox="0 0 22 26" fill="none" xmlns="http://www.w3.org/2000/svg">
<g clip-path="url(#clip0_22_238)">
<path d="M15.6853 16.2497L11 21.0938L6.31469 16.2497C2.80402 16.4071 0 19.3779 0 23.0438C0 23.8277 0.301165 24.5796 0.837243 25.1339C1.37332 25.6883 2.1004 25.9997 2.85853 25.9997H19.1415C19.8996 25.9997 20.6267 25.6883 21.1628 25.1339C21.6988 24.5796 22 23.8277 22 23.0438C22 19.3779 19.196 16.4071 15.6853 16.2497ZM11 15.4372C12.6671 15.4372 14.2659 14.7524 15.4447 13.5334C16.6235 12.3144 17.2857 10.6611 17.2857 8.93723V3.34215C17.2861 3.01106 17.1887 2.68774 17.0065 2.41548C16.8243 2.14322 16.566 1.93501 16.2662 1.81871L12.1034 0.206406C11.392 -0.0694529 10.608 -0.0694529 9.89656 0.206406L5.73375 1.82074C5.43429 1.93692 5.17624 2.14482 4.99407 2.41668C4.8119 2.68853 4.7143 3.0114 4.71429 3.34215V8.93723C4.71429 10.6611 5.37653 12.3144 6.55533 13.5334C7.73413 14.7524 9.33292 15.4372 11 15.4372ZM9.03571 3.63922C9.03571 3.57188 9.06158 3.5073 9.10763 3.45968C9.15368 3.41206 9.21613 3.38531 9.28125 3.38531H10.3454V2.28488C10.3454 2.21754 10.3713 2.15296 10.4173 2.10534C10.4634 2.05773 10.5258 2.03098 10.5909 2.03098H11.4091C11.4742 2.03098 11.5366 2.05773 11.5827 2.10534C11.6287 2.15296 11.6546 2.21754 11.6546 2.28488V3.38531H12.7188C12.7839 3.38531 12.8463 3.41206 12.8924 3.45968C12.9384 3.5073 12.9643 3.57188 12.9643 3.63922V4.48523C12.9643 4.55257 12.9384 4.61716 12.8924 4.66477C12.8463 4.71239 12.7839 4.73914 12.7188 4.73914H11.6546V5.83957C11.6546 5.90691 11.6287 5.97149 11.5827 6.01911C11.5366 6.06673 11.4742 6.09348 11.4091 6.09348H10.5909C10.5258 6.09348 10.4634 6.06673 10.4173 6.01911C10.3713 5.97149 10.3454 5.90691 10.3454 5.83957V4.73914H9.28125C9.21613 4.73914 9.15368 4.71239 9.10763 4.66477C9.06158 4.61716 9.03571 4.55257 9.03571 4.48523V3.63922ZM7.07143 8.12473H14.9286V8.93723C14.9286 10.0147 14.5147 11.048 13.7779 11.8098C13.0412 12.5717 12.0419 12.9997 11 12.9997C9.95808 12.9997 8.95883 12.5717 8.22208 11.8098C7.48533 11.048 7.07143 10.0147 7.07143 8.93723V8.12473Z" fill="#3B63DA"/>
</g>
<defs>
<clipPath id="clip0_22_238">
<rect width="22" height="26" fill="white"/>
</clipPath>
</defs>
</svg>
