<svg fill="none" height="389" viewBox="0 0 368 389" width="368" xmlns="http://www.w3.org/2000/svg" xmlns:xlink="http://www.w3.org/1999/xlink"><linearGradient id="a" gradientUnits="userSpaceOnUse" x1="23" x2="357.327" y1="389" y2="389"><stop offset="0" stop-color="#3b63da"/><stop offset="1" stop-color="#3b63da"/></linearGradient><path d="m184 367.64c97.556 0 176.64-79.084 176.64-176.64 0-97.5552-79.084-176.6396-176.64-176.6396-97.5556 0-176.64001 79.0844-176.64001 176.6396 0 97.556 79.08441 176.64 176.64001 176.64z" fill="#ecb751"/><path d="m184 330.84c77.231 0 139.84-62.608 139.84-139.84 0-77.231-62.609-139.8398-139.84-139.8398-77.232 0-139.84 62.6088-139.84 139.8398 0 77.232 62.608 139.84 139.84 139.84z" fill="#fad461"/><path d="m237.432 61.8262c18.058 12.9287 32.777 29.9725 42.939 49.7208 10.161 19.748 15.473 41.633 15.495 63.842 0 37.088-14.733 72.656-40.958 98.881-26.225 26.226-61.794 40.959-98.882 40.959-18.333-.02-36.483-3.644-53.417-10.667 23.72 17.045 52.182 26.234 81.391 26.278 37.088 0 72.657-14.733 98.882-40.958s40.958-61.794 40.958-98.882c-.011-27.664-8.227-54.702-23.608-77.696-15.38-22.993-37.236-40.9078-62.8-51.4778z" fill="#ecb751"/><path d="m184 0c-101.5332 0-184 82.4668-184 184 0 101.533 82.4668 184 184 184 101.533 0 184-82.467 184-184 0-101.5332-82.467-184-184-184zm0 14.72c93.578 0 169.28 75.7021 169.28 169.28 0 93.578-75.702 169.28-169.28 169.28-93.5779 0-169.28-75.702-169.28-169.28 0-93.5779 75.7021-169.28 169.28-169.28zm0 22.08c-81.209 0-147.2 65.991-147.2 147.2 0 32.962 10.8614 63.475 29.1956 88.018 1.1685 1.565 2.911 2.602 4.844 2.882 1.9329.281 3.8979-.218 5.4629-1.387 1.565-1.168 2.6018-2.911 2.8822-4.844s-.2187-3.898-1.3872-5.463c-16.5073-22.098-26.2775-49.473-26.2775-79.206 0-73.254 59.226-132.48 132.48-132.48s132.48 59.226 132.48 132.48-59.226 132.48-132.48 132.48c-21.367 0-41.502-5.038-59.354-14.001-.864-.435-1.805-.695-2.769-.766s-1.933.049-2.851.353-1.767.785-2.499 1.417c-.731.632-1.332 1.401-1.766 2.265s-.694 1.805-.765 2.769c-.07.964.05 1.933.354 2.851s.785 1.767 1.417 2.498c.632.732 1.402 1.332 2.266 1.766 19.844 9.963 42.279 15.568 65.967 15.568 81.209 0 147.2-65.991 147.2-147.2s-65.991-147.2-147.2-147.2zm-.115 58.9519c-1.949.0304-3.807.8332-5.166 2.2319-1.358 1.3987-2.106 3.2792-2.079 5.2292v13.454c-.949.169-1.9.24-2.846.475-.005 0-.01 0-.015 0-17.281 4.29-29.814 19.124-29.814 36.383 0 17.2 12.464 31.965 29.656 36.311 10.231 3.101 16.347 1.815 23.474 4.715 9.82 5.4 14.252 15.544 11.428 25.3-2.851 9.851-12.751 17.121-24.495 17.121-11.743 0-21.658-7.27-24.509-17.121-.269-.929-.718-1.795-1.322-2.551-.604-.755-1.351-1.384-2.198-1.851s-1.777-.762-2.739-.869c-.961-.107-1.934-.024-2.862.245-.929.269-1.796.719-2.552 1.323-.755.604-1.384 1.351-1.85 2.198-.467.848-.762 1.778-.868 2.739-.107.962-.023 1.934.246 2.863 4.131 14.272 16.54 24.441 31.266 27.04v13.8c-.014.975.166 1.943.53 2.848.363.906.903 1.729 1.588 2.424.685.694 1.501 1.246 2.401 1.622.9.377 1.865.571 2.841.571.975 0 1.941-.194 2.84-.571.9-.376 1.716-.928 2.401-1.622.685-.695 1.225-1.518 1.588-2.424.364-.905.544-1.873.531-2.848v-13.786c14.748-2.582 27.172-12.763 31.308-27.054 4.808-16.614-3.226-34.251-18.831-42.593-.192-.099-.389-.191-.589-.273-11.049-4.697-18.47-3.166-25.516-5.347-.133-.042-.267-.081-.403-.115-11.302-2.806-18.644-11.957-18.644-22.095 0-10.141 7.342-19.288 18.644-22.094 11.302-2.803 23.16 1.886 28.75 10.853.512.821 1.18 1.532 1.967 2.095.786.562 1.676.964 2.618 1.182.941.219 1.917.249 2.871.091.954-.159 1.867-.504 2.687-1.016s1.532-1.18 2.094-1.966c.562-.787.964-1.677 1.182-2.619s.248-1.917.089-2.871-.504-1.867-1.016-2.687c-6.075-9.745-16.121-16.051-27.212-17.983v-13.297c.014-.985-.17-1.962-.541-2.874-.371-.9126-.922-1.741-1.619-2.4367s-1.526-1.2443-2.439-1.6136-1.89-.5522-2.875-.5368zm109.624 113.2461c-.784.049-1.533.347-2.136.851-.602.505-1.028 1.189-1.213 1.952-5.375 20.52-16.601 39.095-32.344 53.403-.374.321-.68.712-.9 1.153-.219.44-.349.92-.38 1.412-.03.491.038.984.2 1.448.163.465.417.892.748 1.256.331.365.732.659 1.178.866.447.207.931.322 1.423.339s.982-.065 1.442-.241c.459-.177.879-.443 1.234-.784 16.8-15.27 28.793-35.085 34.529-56.983.15-.536.177-1.099.078-1.647s-.32-1.066-.648-1.515c-.328-.45-.754-.82-1.245-1.081-.492-.262-1.036-.408-1.592-.429-.125-.006-.249-.006-.374 0zm-47.998 66.571c-.702.014-1.385.228-1.97.618-1.525.985-3.088 1.932-4.671 2.846-.847.488-1.465 1.293-1.718 2.236-.253.944-.122 1.949.366 2.795.488.847 1.293 1.465 2.236 1.718.944.254 1.949.122 2.796-.366 1.689-.975 3.345-1.997 4.973-3.048.682-.426 1.205-1.065 1.489-1.817.285-.751.315-1.576.087-2.347s-.702-1.446-1.35-1.922-1.434-.726-2.238-.713zm-153.3383 6.325c-1.5261-.049-3.0296.378-4.3024 1.221-1.2727.843-2.2517 2.062-2.8013 3.486-.5496 1.425-.6426 2.985-.2662 4.465.3765 1.479 1.2039 2.805 2.3674 3.794 1.891 1.653 3.8187 3.26 5.7931 4.816.7566.621 1.6293 1.085 2.5673 1.365.9381.279 1.9225.369 2.8957.264.9732-.106 1.9157-.404 2.7717-.878.857-.474 1.61-1.114 2.216-1.883.606-.768 1.053-1.65 1.314-2.593.261-.944.332-1.93.207-2.9-.124-.971-.441-1.908-.932-2.755s-1.145-1.587-1.926-2.178c-1.778-1.401-3.5152-2.853-5.218-4.341-1.2911-1.161-2.951-1.828-4.6863-1.883z" fill="#e1e4eb"/><path d="m135.7 236.222c12.737 0 25.188-3.584 35.779-10.299 10.59-6.715 18.845-16.259 23.719-27.426 4.874-11.166 6.149-23.454 3.665-35.308-2.485-11.854-8.619-22.743-17.625-31.29-9.007-8.546-20.482-14.367-32.974-16.725-12.493-2.358-25.441-1.148-37.209 3.478-11.7674 4.625-21.8253 12.458-28.9016 22.508-7.0764 10.049-10.8534 21.864-10.8534 33.951 0 16.208 6.785 31.752 18.8623 43.212 12.0777 11.461 28.4577 17.899 45.5377 17.899zm128.8 30.556c9.553 0 18.891-2.688 26.834-7.725 7.943-5.036 14.134-12.194 17.789-20.569 3.656-8.375 4.613-17.59 2.749-26.481s-6.464-17.058-13.219-23.468-15.361-10.775-24.73-12.543c-9.369-1.769-19.081-.861-27.907 2.608-8.825 3.469-16.369 9.344-21.676 16.881s-8.14 16.398-8.14 25.463c0 12.156 5.089 23.814 14.147 32.41 9.058 8.595 21.343 13.424 34.153 13.424zm64.4 106.944c4.27 0 8.365-1.609 11.384-4.475 3.02-2.865 4.716-6.751 4.716-10.803-.013-14.278-4.243-28.268-12.21-40.381-7.967-12.112-19.353-21.864-32.864-28.148-13.512-6.283-28.609-8.847-43.579-7.401s-29.213 6.845-41.113 15.583c-15.77-14.905-35.838-25.046-57.673-29.143s-44.46-1.967-65.0214 6.122c-20.5612 8.088-38.138 21.774-50.5136 39.329-12.3756 17.556-18.9959 38.196-19.026 59.317 0 4.052 1.6962 7.938 4.7156 10.803 3.0193 2.865 7.1144 4.475 11.3844 4.475h193.2c4.27 0 8.365-1.61 11.384-4.475 3.02-2.865 4.716-6.751 4.716-10.803" fill="url(#a)"/></svg>