<svg width="8" height="7" viewBox="0 0 8 7" fill="none" xmlns="http://www.w3.org/2000/svg">
<path d="M7.60815 2.63796C7.57403 2.53587 7.50826 2.44597 7.41946 2.38004C7.33066 2.31412 7.22299 2.27524 7.11055 2.26852L5.08605 2.13565L4.33624 0.337037C4.29529 0.238001 4.22403 0.152932 4.13166 0.092842C4.0393 0.0327523 3.93009 0.000409268 3.81818 0C3.70627 0.000409268 3.59706 0.0327523 3.5047 0.092842C3.41234 0.152932 3.34107 0.238001 3.30013 0.337037L2.53668 2.14537L0.525814 2.26852C0.413514 2.27568 0.306058 2.31472 0.217345 2.38058C0.128633 2.44644 0.0627468 2.53611 0.0282102 2.63796C-0.00725584 2.74138 -0.00932798 2.85253 0.0222609 2.95708C0.0538498 3.06163 0.117651 3.15479 0.205439 3.22454L1.75278 4.46898L1.29267 6.18981C1.26084 6.30623 1.26657 6.42906 1.30911 6.54233C1.35166 6.65561 1.42906 6.7541 1.53125 6.825C1.63044 6.89269 1.74861 6.9307 1.87065 6.93417C1.99269 6.93763 2.11304 6.90639 2.21631 6.84444L3.81477 5.88194H3.82159L5.54276 6.91574C5.63105 6.9703 5.73398 6.99955 5.83927 7C5.92525 6.99936 6.00992 6.97998 6.08678 6.94336C6.16365 6.90673 6.23066 6.85384 6.28267 6.78874C6.33467 6.72364 6.37029 6.64807 6.38678 6.56784C6.40326 6.48761 6.40019 6.40485 6.37778 6.32593L5.8904 4.44306L7.43092 3.22454C7.51871 3.15479 7.58251 3.06163 7.6141 2.95708C7.64569 2.85253 7.64362 2.74138 7.60815 2.63796Z" fill="#FFC34D"/>
</svg>
