<svg width="22" height="24" viewBox="0 0 22 24" fill="none" xmlns="http://www.w3.org/2000/svg">
<path d="M20.5833 6.5C19.5 6.5 19.5 5.41667 19.5 5.41667V4.33333H17.3333V6.5H15.1667V5.41667C15.1667 3.5425 13.8125 0 8.66667 0C3.52083 0 2.16667 3.5425 2.16667 5.41667V19.5C2.16667 19.8575 2.05833 21.6667 0 21.6667V23.8333C3.17417 23.8333 4.33333 21.2442 4.33333 19.5V5.41667C4.33333 5.28667 4.3875 2.16667 8.66667 2.16667C12.8158 2.16667 13 5.09167 13 5.41667V6.5H10.8333V4.33333H8.66667V5.41667C8.66667 5.41667 8.66667 6.5 7.58333 6.5C6.5 6.5 6.5 7.58333 6.5 7.58333V20.5833C6.5 20.5833 6.5 22.75 11.9167 22.75H16.25C21.6667 22.75 21.6667 20.5833 21.6667 20.5833V7.58333C21.6667 7.58333 21.6667 6.5 20.5833 6.5ZM14.0833 19.9333C13.2214 19.9333 12.3947 19.5909 11.7852 18.9814C11.1757 18.3719 10.8333 17.5453 10.8333 16.6833C10.8333 14.5167 14.0833 10.8333 14.0833 10.8333C14.0833 10.8333 17.3333 14.5167 17.3333 16.6833C17.3333 17.5453 16.9909 18.3719 16.3814 18.9814C15.7719 19.5909 14.9453 19.9333 14.0833 19.9333Z" fill="#3B63DA"/>
</svg>
