<svg width="28" height="26" viewBox="0 0 28 26" fill="none" xmlns="http://www.w3.org/2000/svg">
<path d="M19.8923 4.77849C20.9884 4.77849 21.8751 3.89506 21.8751 2.80306C21.8751 1.71785 20.9878 0.833856 19.8923 0.833856C18.8044 0.833856 17.9166 1.71729 17.9166 2.80306C17.9166 3.89506 18.8038 4.77849 19.8923 4.77849ZM21.3658 5.22049H18.4778L13.5556 0.313858C13.4659 0.217855 13.357 0.140544 13.2355 0.0866313C13.114 0.0327191 12.9824 0.00333468 12.8488 0.000267694C12.7152 -0.00279929 12.5824 0.0205152 12.4584 0.0687916C12.3344 0.117068 12.2218 0.189296 12.1276 0.281076C11.9323 0.467364 11.8192 0.719743 11.812 0.985156C11.8049 1.25057 11.9042 1.50834 12.0891 1.70429L17.2329 6.83813V23.8522C17.2329 24.4694 17.7287 24.9629 18.3413 24.9629C18.9608 24.9629 19.456 24.4694 19.456 23.8522V14.624H20.3555L20.3625 23.8528C20.3625 24.47 20.8642 24.9634 21.4767 24.9634C22.0909 24.9634 22.5856 24.47 22.5856 23.8528L22.5792 6.83926L27.7236 1.70542C27.9081 1.5092 28.007 1.2514 27.9996 0.98607C27.9922 0.72074 27.8791 0.468487 27.6839 0.282206C27.5897 0.190352 27.4772 0.118059 27.3532 0.0697365C27.2292 0.0214138 27.0963 -0.00192554 26.9627 0.001142C26.8291 0.00420955 26.6975 0.0336198 26.576 0.0875787C26.4545 0.141538 26.3456 0.218914 26.2559 0.314989L21.3658 5.22049ZM10.9014 12.7265C10.7517 12.5723 10.5709 12.4495 10.3702 12.3657C10.1695 12.2818 9.95324 12.2388 9.73472 12.2393H5.59362C5.13745 12.2393 4.72678 12.4213 4.43337 12.7265L0.279434 16.8667C0.094118 17.0622 -0.0059269 17.3195 0.000271764 17.5848C0.00647043 17.8501 0.118431 18.1028 0.312684 18.2899C0.716353 18.6732 1.36269 18.6602 1.74069 18.2572L4.96128 15.0467V19.3356H1.34927C0.684852 19.3356 0.148767 19.868 0.148767 20.5316C0.148767 20.8758 0.279434 21.1816 0.514519 21.4026L4.5827 25.4574C4.94145 25.9842 5.64554 26.1532 6.20671 25.8276C6.79938 25.4902 6.99596 24.743 6.65646 24.1586L4.33537 21.8508L4.38087 21.857H11.0443L8.7168 24.1642C8.3843 24.7492 8.57971 25.4964 9.16597 25.8339C9.72713 26.1594 10.4382 25.991 10.797 25.4642L14.8652 21.4094C14.9835 21.2955 15.0768 21.1597 15.1396 21.01C15.2023 20.8603 15.2332 20.6999 15.2303 20.5384C15.2303 19.8748 14.6954 19.3429 14.031 19.3429H10.4248V15.0987L13.5871 18.2634C13.9721 18.6669 14.6102 18.6799 15.0145 18.2962C15.2088 18.1092 15.3209 17.8566 15.3271 17.5913C15.3333 17.3261 15.2332 17.0688 15.0477 16.8735L10.9014 12.7265ZM7.70705 11.8165C8.79555 11.8165 9.6758 10.9337 9.6758 9.84733C9.6758 8.75534 8.79555 7.87813 7.70705 7.87813C6.61737 7.87813 5.73012 8.75534 5.73012 9.84733C5.73012 10.9337 6.61796 11.8165 7.70705 11.8165Z" fill="#3B63DA"/>
</svg>
