<svg width="25" height="26" viewBox="0 0 25 26" fill="none" xmlns="http://www.w3.org/2000/svg">
<path fill-rule="evenodd" clip-rule="evenodd" d="M19.094 5.9884C19.094 8.91105 16.5402 13.977 13.7082 14.6992C13.2733 14.8101 12.8175 14.8691 12.348 14.8691C10.2482 14.8691 8.42395 13.6899 7.50112 11.9576C6.84118 10.7188 6.42384 9.33155 6.07441 7.97212C5.68655 6.46315 5.78038 4.61145 7.52656 3.00938C7.72914 2.82351 7.91877 2.62132 7.97973 2.35324C8.16722 1.52796 8.58398 -0.30626 11.2105 0.0439089C13.2364 0.31402 19.0941 1.35968 19.094 5.9884ZM14.7785 7.12767C15.6379 7.36469 16.2343 8.21953 16.3928 9.09675C16.4162 9.22627 16.4652 9.46941 16.4583 9.60085C16.344 11.7719 14.5475 13.497 12.348 13.497C10.6426 13.497 9.17938 12.4598 8.55484 10.9818C8.171 10.0734 8.33224 9.04273 8.33352 8.05657C8.33362 7.97601 8.33357 7.89419 8.33351 7.81141C8.33346 7.73571 8.33341 7.6592 8.33349 7.58212C8.33526 5.67819 10.0602 5.21347 11.7862 6.01711C12.955 6.56127 13.9839 6.90849 14.7785 7.12767Z" fill="#3B63DA"/>
<path d="M4.8021 21.2103C4.8021 20.5627 5.1012 19.985 5.56879 19.6078C5.69108 19.5091 5.75683 19.3513 5.72177 19.1981C5.62731 18.7854 5.54156 18.2834 5.47865 17.7794C5.39583 17.1155 4.70905 16.6649 4.1115 16.9658C1.79293 18.1331 0 19.8313 0 21.6012C0 23.6586 1.6678 25.3264 3.72513 25.3264H20.9714C23.0287 25.3264 24.6965 23.6586 24.6965 21.6012C24.6965 19.6134 22.4351 17.7162 19.7073 16.5597C19.6992 16.5562 19.6902 16.5624 19.6905 16.5712C19.7022 16.9898 19.6787 17.4697 19.6339 17.932C19.6079 18.201 19.5742 18.4696 19.5345 18.7229C19.4995 18.9457 19.6688 19.1522 19.8944 19.1522C20.1543 19.1522 20.3918 19.299 20.508 19.5315L21.194 20.9035C21.2417 20.9987 21.2664 21.1038 21.2664 21.2103V22.5823C21.2664 22.9612 20.9593 23.2683 20.5804 23.2683H19.8944C19.5155 23.2683 19.2084 22.9612 19.2084 22.5823V22.2393C19.2084 22.0499 19.362 21.8963 19.5514 21.8963C19.7408 21.8963 19.8944 21.7427 19.8944 21.5533V21.4723C19.8944 21.4065 19.8791 21.3416 19.8497 21.2827L19.7772 21.1379C19.5892 20.7618 19.2049 20.5243 18.7844 20.5243H18.2604C17.8399 20.5243 17.4555 20.7618 17.2675 21.1379L17.1951 21.2827C17.1657 21.3416 17.1504 21.4065 17.1504 21.4723V21.5533C17.1504 21.7427 17.3039 21.8963 17.4934 21.8963C17.6828 21.8963 17.8364 22.0499 17.8364 22.2393V22.5823C17.8364 22.9612 17.5292 23.2683 17.1504 23.2683H16.4643C16.0855 23.2683 15.7783 22.9612 15.7783 22.5823V21.2103C15.7783 21.1038 15.8031 20.9987 15.8508 20.9035L16.5368 19.5315C16.653 19.299 16.8905 19.1522 17.1504 19.1522H17.8515C17.9698 19.1522 18.0733 19.072 18.0978 18.9563C18.1664 18.6329 18.2273 18.2231 18.2684 17.7999C18.3093 17.3761 18.3287 16.9556 18.319 16.6097C18.3141 16.4364 18.3022 16.2925 18.2852 16.1817C18.2702 16.0845 18.2551 16.0396 18.2519 16.03C18.2513 16.0281 18.2516 16.0285 18.2516 16.0285C18.2523 16.0283 18.2524 16.0273 18.2516 16.0271C17.8858 15.9137 17.5174 15.8145 17.1504 15.7308C16.4484 15.571 15.8416 16.4244 15.1217 16.4244H13.5043C12.8936 16.4246 12.5829 16.4245 12.2775 16.4244H12.2668C11.9548 16.4244 11.6443 16.4243 11.0201 16.4244H8.36198C8.28215 16.4244 8.20904 16.3801 8.17324 16.3088C8.02808 16.0193 7.8489 15.6619 7.54616 15.7308C7.39846 15.7645 7.25056 15.8006 7.10271 15.8392C6.89215 15.8942 6.74158 16.0791 6.74297 16.2967C6.74537 16.676 6.78166 17.1408 6.84018 17.6095C6.89856 18.0774 6.97697 18.5329 7.05916 18.892C7.09793 19.0612 7.24212 19.1802 7.40948 19.2264C8.27942 19.4667 8.91819 20.2639 8.91819 21.2103C8.91819 22.3469 7.9968 23.2683 6.86014 23.2683C5.72349 23.2683 4.8021 22.3469 4.8021 21.2103Z" fill="#3B63DA"/>
<path d="M7.5461 21.2103C7.5461 21.6042 7.22944 21.9064 6.86009 21.9064C6.49074 21.9064 6.17407 21.6042 6.17407 21.2103C6.17407 20.8164 6.49074 20.5142 6.86009 20.5142C7.22944 20.5142 7.5461 20.8164 7.5461 21.2103Z" fill="#3B63DA"/>
</svg>
